G04 #@! TF.GenerationSoftware,KiCad,Pcbnew,(5.1.5)-3*
G04 #@! TF.CreationDate,2021-04-30T23:34:10+03:00*
G04 #@! TF.ProjectId,HM10USBDongle,484d3130-5553-4424-946f-6e676c652e6b,rev?*
G04 #@! TF.SameCoordinates,Original*
G04 #@! TF.FileFunction,Legend,Top*
G04 #@! TF.FilePolarity,Positive*
%FSLAX46Y46*%
G04 Gerber Fmt 4.6, Leading zero omitted, Abs format (unit mm)*
G04 Created by KiCad (PCBNEW (5.1.5)-3) date 2021-04-30 23:34:10*
%MOMM*%
%LPD*%
G04 APERTURE LIST*
%ADD10C,0.203200*%
%ADD11C,0.120000*%
%ADD12C,0.127000*%
%ADD13C,0.150000*%
G04 APERTURE END LIST*
D10*
X137728960Y-93997780D02*
X129733040Y-93997780D01*
X139730480Y-97995740D02*
X139730480Y-96994980D01*
X127731520Y-97995740D02*
X127731520Y-96994980D01*
X127731520Y-97995740D02*
X139730480Y-97995740D01*
D11*
X131230999Y-61089000D02*
X129325999Y-61089000D01*
X131230999Y-64899000D02*
X131230999Y-61089000D01*
X133135999Y-64899000D02*
X131230999Y-64899000D01*
X133135999Y-61089000D02*
X133135999Y-64899000D01*
X135040999Y-61089000D02*
X133135999Y-61089000D01*
X135040999Y-64899000D02*
X135040999Y-61089000D01*
X136945999Y-64899000D02*
X135040999Y-64899000D01*
X136945999Y-61089000D02*
X136945999Y-64899000D01*
X138850999Y-61089000D02*
X136945999Y-61089000D01*
X138850999Y-66804000D02*
X138850999Y-61089000D01*
X127420999Y-66804000D02*
X140120999Y-66804000D01*
X127420999Y-87124000D02*
X127420999Y-60454000D01*
X140120999Y-87124000D02*
X127420999Y-87124000D01*
X140120999Y-60454000D02*
X140120999Y-87124000D01*
X127420999Y-60454000D02*
X140120999Y-60454000D01*
D12*
X127047171Y-91389200D02*
X127482600Y-91389200D01*
X127569685Y-91418228D01*
X127627742Y-91476285D01*
X127656771Y-91563371D01*
X127656771Y-91621428D01*
X127656771Y-90779600D02*
X127656771Y-91127942D01*
X127656771Y-90953771D02*
X127047171Y-90953771D01*
X127134257Y-91011828D01*
X127192314Y-91069885D01*
X127221342Y-91127942D01*
X139747171Y-92448742D02*
X140240657Y-92448742D01*
X140298714Y-92419714D01*
X140327742Y-92390685D01*
X140356771Y-92332628D01*
X140356771Y-92216514D01*
X140327742Y-92158457D01*
X140298714Y-92129428D01*
X140240657Y-92100400D01*
X139747171Y-92100400D01*
X140327742Y-91839142D02*
X140356771Y-91752057D01*
X140356771Y-91606914D01*
X140327742Y-91548857D01*
X140298714Y-91519828D01*
X140240657Y-91490800D01*
X140182600Y-91490800D01*
X140124542Y-91519828D01*
X140095514Y-91548857D01*
X140066485Y-91606914D01*
X140037457Y-91723028D01*
X140008428Y-91781085D01*
X139979400Y-91810114D01*
X139921342Y-91839142D01*
X139863285Y-91839142D01*
X139805228Y-91810114D01*
X139776200Y-91781085D01*
X139747171Y-91723028D01*
X139747171Y-91577885D01*
X139776200Y-91490800D01*
X140037457Y-91026342D02*
X140066485Y-90939257D01*
X140095514Y-90910228D01*
X140153571Y-90881200D01*
X140240657Y-90881200D01*
X140298714Y-90910228D01*
X140327742Y-90939257D01*
X140356771Y-90997314D01*
X140356771Y-91229542D01*
X139747171Y-91229542D01*
X139747171Y-91026342D01*
X139776200Y-90968285D01*
X139805228Y-90939257D01*
X139863285Y-90910228D01*
X139921342Y-90910228D01*
X139979400Y-90939257D01*
X140008428Y-90968285D01*
X140037457Y-91026342D01*
X140037457Y-91229542D01*
X140414828Y-90765085D02*
X140414828Y-90300628D01*
X140182600Y-90184514D02*
X140182600Y-89894228D01*
X140356771Y-90242571D02*
X139747171Y-90039371D01*
X140356771Y-89836171D01*
D13*
X133009094Y-73741380D02*
X133009094Y-74550904D01*
X133056713Y-74646142D01*
X133104332Y-74693761D01*
X133199570Y-74741380D01*
X133390046Y-74741380D01*
X133485284Y-74693761D01*
X133532903Y-74646142D01*
X133580522Y-74550904D01*
X133580522Y-73741380D01*
X134009094Y-73836619D02*
X134056713Y-73789000D01*
X134151951Y-73741380D01*
X134390046Y-73741380D01*
X134485284Y-73789000D01*
X134532903Y-73836619D01*
X134580522Y-73931857D01*
X134580522Y-74027095D01*
X134532903Y-74169952D01*
X133961475Y-74741380D01*
X134580522Y-74741380D01*
M02*
