G04 #@! TF.GenerationSoftware,KiCad,Pcbnew,(5.1.5)-3*
G04 #@! TF.CreationDate,2021-04-30T23:34:10+03:00*
G04 #@! TF.ProjectId,HM10USBDongle,484d3130-5553-4424-946f-6e676c652e6b,rev?*
G04 #@! TF.SameCoordinates,Original*
G04 #@! TF.FileFunction,Copper,L1,Top*
G04 #@! TF.FilePolarity,Positive*
%FSLAX46Y46*%
G04 Gerber Fmt 4.6, Leading zero omitted, Abs format (unit mm)*
G04 Created by KiCad (PCBNEW (5.1.5)-3) date 2021-04-30 23:34:10*
%MOMM*%
%LPD*%
G04 APERTURE LIST*
%ADD10C,1.879600*%
%ADD11C,3.215640*%
%ADD12C,0.100000*%
%ADD13C,0.800000*%
%ADD14C,0.250000*%
%ADD15C,0.600000*%
%ADD16C,0.254000*%
G04 APERTURE END LIST*
D10*
X137228580Y-92598240D03*
D11*
X127932180Y-94996000D03*
X139529820Y-94996000D03*
D10*
X130233420Y-92598240D03*
X134856220Y-92598240D03*
X132605780Y-92598240D03*
G04 #@! TA.AperFunction,SMDPad,CuDef*
D12*
G36*
X140845503Y-67055204D02*
G01*
X140869772Y-67058804D01*
X140893570Y-67064765D01*
X140916670Y-67073030D01*
X140938848Y-67083520D01*
X140959892Y-67096133D01*
X140979597Y-67110747D01*
X140997776Y-67127223D01*
X141014252Y-67145402D01*
X141028866Y-67165107D01*
X141041479Y-67186151D01*
X141051969Y-67208329D01*
X141060234Y-67231429D01*
X141066195Y-67255227D01*
X141069795Y-67279496D01*
X141070999Y-67304000D01*
X141070999Y-67804000D01*
X141069795Y-67828504D01*
X141066195Y-67852773D01*
X141060234Y-67876571D01*
X141051969Y-67899671D01*
X141041479Y-67921849D01*
X141028866Y-67942893D01*
X141014252Y-67962598D01*
X140997776Y-67980777D01*
X140979597Y-67997253D01*
X140959892Y-68011867D01*
X140938848Y-68024480D01*
X140916670Y-68034970D01*
X140893570Y-68043235D01*
X140869772Y-68049196D01*
X140845503Y-68052796D01*
X140820999Y-68054000D01*
X139520999Y-68054000D01*
X139496495Y-68052796D01*
X139472226Y-68049196D01*
X139448428Y-68043235D01*
X139425328Y-68034970D01*
X139403150Y-68024480D01*
X139382106Y-68011867D01*
X139362401Y-67997253D01*
X139344222Y-67980777D01*
X139327746Y-67962598D01*
X139313132Y-67942893D01*
X139300519Y-67921849D01*
X139290029Y-67899671D01*
X139281764Y-67876571D01*
X139275803Y-67852773D01*
X139272203Y-67828504D01*
X139270999Y-67804000D01*
X139270999Y-67304000D01*
X139272203Y-67279496D01*
X139275803Y-67255227D01*
X139281764Y-67231429D01*
X139290029Y-67208329D01*
X139300519Y-67186151D01*
X139313132Y-67165107D01*
X139327746Y-67145402D01*
X139344222Y-67127223D01*
X139362401Y-67110747D01*
X139382106Y-67096133D01*
X139403150Y-67083520D01*
X139425328Y-67073030D01*
X139448428Y-67064765D01*
X139472226Y-67058804D01*
X139496495Y-67055204D01*
X139520999Y-67054000D01*
X140820999Y-67054000D01*
X140845503Y-67055204D01*
G37*
G04 #@! TD.AperFunction*
G04 #@! TA.AperFunction,SMDPad,CuDef*
G36*
X140845503Y-68555204D02*
G01*
X140869772Y-68558804D01*
X140893570Y-68564765D01*
X140916670Y-68573030D01*
X140938848Y-68583520D01*
X140959892Y-68596133D01*
X140979597Y-68610747D01*
X140997776Y-68627223D01*
X141014252Y-68645402D01*
X141028866Y-68665107D01*
X141041479Y-68686151D01*
X141051969Y-68708329D01*
X141060234Y-68731429D01*
X141066195Y-68755227D01*
X141069795Y-68779496D01*
X141070999Y-68804000D01*
X141070999Y-69304000D01*
X141069795Y-69328504D01*
X141066195Y-69352773D01*
X141060234Y-69376571D01*
X141051969Y-69399671D01*
X141041479Y-69421849D01*
X141028866Y-69442893D01*
X141014252Y-69462598D01*
X140997776Y-69480777D01*
X140979597Y-69497253D01*
X140959892Y-69511867D01*
X140938848Y-69524480D01*
X140916670Y-69534970D01*
X140893570Y-69543235D01*
X140869772Y-69549196D01*
X140845503Y-69552796D01*
X140820999Y-69554000D01*
X139520999Y-69554000D01*
X139496495Y-69552796D01*
X139472226Y-69549196D01*
X139448428Y-69543235D01*
X139425328Y-69534970D01*
X139403150Y-69524480D01*
X139382106Y-69511867D01*
X139362401Y-69497253D01*
X139344222Y-69480777D01*
X139327746Y-69462598D01*
X139313132Y-69442893D01*
X139300519Y-69421849D01*
X139290029Y-69399671D01*
X139281764Y-69376571D01*
X139275803Y-69352773D01*
X139272203Y-69328504D01*
X139270999Y-69304000D01*
X139270999Y-68804000D01*
X139272203Y-68779496D01*
X139275803Y-68755227D01*
X139281764Y-68731429D01*
X139290029Y-68708329D01*
X139300519Y-68686151D01*
X139313132Y-68665107D01*
X139327746Y-68645402D01*
X139344222Y-68627223D01*
X139362401Y-68610747D01*
X139382106Y-68596133D01*
X139403150Y-68583520D01*
X139425328Y-68573030D01*
X139448428Y-68564765D01*
X139472226Y-68558804D01*
X139496495Y-68555204D01*
X139520999Y-68554000D01*
X140820999Y-68554000D01*
X140845503Y-68555204D01*
G37*
G04 #@! TD.AperFunction*
G04 #@! TA.AperFunction,SMDPad,CuDef*
G36*
X140845503Y-70055204D02*
G01*
X140869772Y-70058804D01*
X140893570Y-70064765D01*
X140916670Y-70073030D01*
X140938848Y-70083520D01*
X140959892Y-70096133D01*
X140979597Y-70110747D01*
X140997776Y-70127223D01*
X141014252Y-70145402D01*
X141028866Y-70165107D01*
X141041479Y-70186151D01*
X141051969Y-70208329D01*
X141060234Y-70231429D01*
X141066195Y-70255227D01*
X141069795Y-70279496D01*
X141070999Y-70304000D01*
X141070999Y-70804000D01*
X141069795Y-70828504D01*
X141066195Y-70852773D01*
X141060234Y-70876571D01*
X141051969Y-70899671D01*
X141041479Y-70921849D01*
X141028866Y-70942893D01*
X141014252Y-70962598D01*
X140997776Y-70980777D01*
X140979597Y-70997253D01*
X140959892Y-71011867D01*
X140938848Y-71024480D01*
X140916670Y-71034970D01*
X140893570Y-71043235D01*
X140869772Y-71049196D01*
X140845503Y-71052796D01*
X140820999Y-71054000D01*
X139520999Y-71054000D01*
X139496495Y-71052796D01*
X139472226Y-71049196D01*
X139448428Y-71043235D01*
X139425328Y-71034970D01*
X139403150Y-71024480D01*
X139382106Y-71011867D01*
X139362401Y-70997253D01*
X139344222Y-70980777D01*
X139327746Y-70962598D01*
X139313132Y-70942893D01*
X139300519Y-70921849D01*
X139290029Y-70899671D01*
X139281764Y-70876571D01*
X139275803Y-70852773D01*
X139272203Y-70828504D01*
X139270999Y-70804000D01*
X139270999Y-70304000D01*
X139272203Y-70279496D01*
X139275803Y-70255227D01*
X139281764Y-70231429D01*
X139290029Y-70208329D01*
X139300519Y-70186151D01*
X139313132Y-70165107D01*
X139327746Y-70145402D01*
X139344222Y-70127223D01*
X139362401Y-70110747D01*
X139382106Y-70096133D01*
X139403150Y-70083520D01*
X139425328Y-70073030D01*
X139448428Y-70064765D01*
X139472226Y-70058804D01*
X139496495Y-70055204D01*
X139520999Y-70054000D01*
X140820999Y-70054000D01*
X140845503Y-70055204D01*
G37*
G04 #@! TD.AperFunction*
G04 #@! TA.AperFunction,SMDPad,CuDef*
G36*
X140845503Y-71555204D02*
G01*
X140869772Y-71558804D01*
X140893570Y-71564765D01*
X140916670Y-71573030D01*
X140938848Y-71583520D01*
X140959892Y-71596133D01*
X140979597Y-71610747D01*
X140997776Y-71627223D01*
X141014252Y-71645402D01*
X141028866Y-71665107D01*
X141041479Y-71686151D01*
X141051969Y-71708329D01*
X141060234Y-71731429D01*
X141066195Y-71755227D01*
X141069795Y-71779496D01*
X141070999Y-71804000D01*
X141070999Y-72304000D01*
X141069795Y-72328504D01*
X141066195Y-72352773D01*
X141060234Y-72376571D01*
X141051969Y-72399671D01*
X141041479Y-72421849D01*
X141028866Y-72442893D01*
X141014252Y-72462598D01*
X140997776Y-72480777D01*
X140979597Y-72497253D01*
X140959892Y-72511867D01*
X140938848Y-72524480D01*
X140916670Y-72534970D01*
X140893570Y-72543235D01*
X140869772Y-72549196D01*
X140845503Y-72552796D01*
X140820999Y-72554000D01*
X139520999Y-72554000D01*
X139496495Y-72552796D01*
X139472226Y-72549196D01*
X139448428Y-72543235D01*
X139425328Y-72534970D01*
X139403150Y-72524480D01*
X139382106Y-72511867D01*
X139362401Y-72497253D01*
X139344222Y-72480777D01*
X139327746Y-72462598D01*
X139313132Y-72442893D01*
X139300519Y-72421849D01*
X139290029Y-72399671D01*
X139281764Y-72376571D01*
X139275803Y-72352773D01*
X139272203Y-72328504D01*
X139270999Y-72304000D01*
X139270999Y-71804000D01*
X139272203Y-71779496D01*
X139275803Y-71755227D01*
X139281764Y-71731429D01*
X139290029Y-71708329D01*
X139300519Y-71686151D01*
X139313132Y-71665107D01*
X139327746Y-71645402D01*
X139344222Y-71627223D01*
X139362401Y-71610747D01*
X139382106Y-71596133D01*
X139403150Y-71583520D01*
X139425328Y-71573030D01*
X139448428Y-71564765D01*
X139472226Y-71558804D01*
X139496495Y-71555204D01*
X139520999Y-71554000D01*
X140820999Y-71554000D01*
X140845503Y-71555204D01*
G37*
G04 #@! TD.AperFunction*
G04 #@! TA.AperFunction,SMDPad,CuDef*
G36*
X140845503Y-73055204D02*
G01*
X140869772Y-73058804D01*
X140893570Y-73064765D01*
X140916670Y-73073030D01*
X140938848Y-73083520D01*
X140959892Y-73096133D01*
X140979597Y-73110747D01*
X140997776Y-73127223D01*
X141014252Y-73145402D01*
X141028866Y-73165107D01*
X141041479Y-73186151D01*
X141051969Y-73208329D01*
X141060234Y-73231429D01*
X141066195Y-73255227D01*
X141069795Y-73279496D01*
X141070999Y-73304000D01*
X141070999Y-73804000D01*
X141069795Y-73828504D01*
X141066195Y-73852773D01*
X141060234Y-73876571D01*
X141051969Y-73899671D01*
X141041479Y-73921849D01*
X141028866Y-73942893D01*
X141014252Y-73962598D01*
X140997776Y-73980777D01*
X140979597Y-73997253D01*
X140959892Y-74011867D01*
X140938848Y-74024480D01*
X140916670Y-74034970D01*
X140893570Y-74043235D01*
X140869772Y-74049196D01*
X140845503Y-74052796D01*
X140820999Y-74054000D01*
X139520999Y-74054000D01*
X139496495Y-74052796D01*
X139472226Y-74049196D01*
X139448428Y-74043235D01*
X139425328Y-74034970D01*
X139403150Y-74024480D01*
X139382106Y-74011867D01*
X139362401Y-73997253D01*
X139344222Y-73980777D01*
X139327746Y-73962598D01*
X139313132Y-73942893D01*
X139300519Y-73921849D01*
X139290029Y-73899671D01*
X139281764Y-73876571D01*
X139275803Y-73852773D01*
X139272203Y-73828504D01*
X139270999Y-73804000D01*
X139270999Y-73304000D01*
X139272203Y-73279496D01*
X139275803Y-73255227D01*
X139281764Y-73231429D01*
X139290029Y-73208329D01*
X139300519Y-73186151D01*
X139313132Y-73165107D01*
X139327746Y-73145402D01*
X139344222Y-73127223D01*
X139362401Y-73110747D01*
X139382106Y-73096133D01*
X139403150Y-73083520D01*
X139425328Y-73073030D01*
X139448428Y-73064765D01*
X139472226Y-73058804D01*
X139496495Y-73055204D01*
X139520999Y-73054000D01*
X140820999Y-73054000D01*
X140845503Y-73055204D01*
G37*
G04 #@! TD.AperFunction*
G04 #@! TA.AperFunction,SMDPad,CuDef*
G36*
X140845503Y-74555204D02*
G01*
X140869772Y-74558804D01*
X140893570Y-74564765D01*
X140916670Y-74573030D01*
X140938848Y-74583520D01*
X140959892Y-74596133D01*
X140979597Y-74610747D01*
X140997776Y-74627223D01*
X141014252Y-74645402D01*
X141028866Y-74665107D01*
X141041479Y-74686151D01*
X141051969Y-74708329D01*
X141060234Y-74731429D01*
X141066195Y-74755227D01*
X141069795Y-74779496D01*
X141070999Y-74804000D01*
X141070999Y-75304000D01*
X141069795Y-75328504D01*
X141066195Y-75352773D01*
X141060234Y-75376571D01*
X141051969Y-75399671D01*
X141041479Y-75421849D01*
X141028866Y-75442893D01*
X141014252Y-75462598D01*
X140997776Y-75480777D01*
X140979597Y-75497253D01*
X140959892Y-75511867D01*
X140938848Y-75524480D01*
X140916670Y-75534970D01*
X140893570Y-75543235D01*
X140869772Y-75549196D01*
X140845503Y-75552796D01*
X140820999Y-75554000D01*
X139520999Y-75554000D01*
X139496495Y-75552796D01*
X139472226Y-75549196D01*
X139448428Y-75543235D01*
X139425328Y-75534970D01*
X139403150Y-75524480D01*
X139382106Y-75511867D01*
X139362401Y-75497253D01*
X139344222Y-75480777D01*
X139327746Y-75462598D01*
X139313132Y-75442893D01*
X139300519Y-75421849D01*
X139290029Y-75399671D01*
X139281764Y-75376571D01*
X139275803Y-75352773D01*
X139272203Y-75328504D01*
X139270999Y-75304000D01*
X139270999Y-74804000D01*
X139272203Y-74779496D01*
X139275803Y-74755227D01*
X139281764Y-74731429D01*
X139290029Y-74708329D01*
X139300519Y-74686151D01*
X139313132Y-74665107D01*
X139327746Y-74645402D01*
X139344222Y-74627223D01*
X139362401Y-74610747D01*
X139382106Y-74596133D01*
X139403150Y-74583520D01*
X139425328Y-74573030D01*
X139448428Y-74564765D01*
X139472226Y-74558804D01*
X139496495Y-74555204D01*
X139520999Y-74554000D01*
X140820999Y-74554000D01*
X140845503Y-74555204D01*
G37*
G04 #@! TD.AperFunction*
G04 #@! TA.AperFunction,SMDPad,CuDef*
G36*
X140845503Y-76055204D02*
G01*
X140869772Y-76058804D01*
X140893570Y-76064765D01*
X140916670Y-76073030D01*
X140938848Y-76083520D01*
X140959892Y-76096133D01*
X140979597Y-76110747D01*
X140997776Y-76127223D01*
X141014252Y-76145402D01*
X141028866Y-76165107D01*
X141041479Y-76186151D01*
X141051969Y-76208329D01*
X141060234Y-76231429D01*
X141066195Y-76255227D01*
X141069795Y-76279496D01*
X141070999Y-76304000D01*
X141070999Y-76804000D01*
X141069795Y-76828504D01*
X141066195Y-76852773D01*
X141060234Y-76876571D01*
X141051969Y-76899671D01*
X141041479Y-76921849D01*
X141028866Y-76942893D01*
X141014252Y-76962598D01*
X140997776Y-76980777D01*
X140979597Y-76997253D01*
X140959892Y-77011867D01*
X140938848Y-77024480D01*
X140916670Y-77034970D01*
X140893570Y-77043235D01*
X140869772Y-77049196D01*
X140845503Y-77052796D01*
X140820999Y-77054000D01*
X139520999Y-77054000D01*
X139496495Y-77052796D01*
X139472226Y-77049196D01*
X139448428Y-77043235D01*
X139425328Y-77034970D01*
X139403150Y-77024480D01*
X139382106Y-77011867D01*
X139362401Y-76997253D01*
X139344222Y-76980777D01*
X139327746Y-76962598D01*
X139313132Y-76942893D01*
X139300519Y-76921849D01*
X139290029Y-76899671D01*
X139281764Y-76876571D01*
X139275803Y-76852773D01*
X139272203Y-76828504D01*
X139270999Y-76804000D01*
X139270999Y-76304000D01*
X139272203Y-76279496D01*
X139275803Y-76255227D01*
X139281764Y-76231429D01*
X139290029Y-76208329D01*
X139300519Y-76186151D01*
X139313132Y-76165107D01*
X139327746Y-76145402D01*
X139344222Y-76127223D01*
X139362401Y-76110747D01*
X139382106Y-76096133D01*
X139403150Y-76083520D01*
X139425328Y-76073030D01*
X139448428Y-76064765D01*
X139472226Y-76058804D01*
X139496495Y-76055204D01*
X139520999Y-76054000D01*
X140820999Y-76054000D01*
X140845503Y-76055204D01*
G37*
G04 #@! TD.AperFunction*
G04 #@! TA.AperFunction,SMDPad,CuDef*
G36*
X140845503Y-77555204D02*
G01*
X140869772Y-77558804D01*
X140893570Y-77564765D01*
X140916670Y-77573030D01*
X140938848Y-77583520D01*
X140959892Y-77596133D01*
X140979597Y-77610747D01*
X140997776Y-77627223D01*
X141014252Y-77645402D01*
X141028866Y-77665107D01*
X141041479Y-77686151D01*
X141051969Y-77708329D01*
X141060234Y-77731429D01*
X141066195Y-77755227D01*
X141069795Y-77779496D01*
X141070999Y-77804000D01*
X141070999Y-78304000D01*
X141069795Y-78328504D01*
X141066195Y-78352773D01*
X141060234Y-78376571D01*
X141051969Y-78399671D01*
X141041479Y-78421849D01*
X141028866Y-78442893D01*
X141014252Y-78462598D01*
X140997776Y-78480777D01*
X140979597Y-78497253D01*
X140959892Y-78511867D01*
X140938848Y-78524480D01*
X140916670Y-78534970D01*
X140893570Y-78543235D01*
X140869772Y-78549196D01*
X140845503Y-78552796D01*
X140820999Y-78554000D01*
X139520999Y-78554000D01*
X139496495Y-78552796D01*
X139472226Y-78549196D01*
X139448428Y-78543235D01*
X139425328Y-78534970D01*
X139403150Y-78524480D01*
X139382106Y-78511867D01*
X139362401Y-78497253D01*
X139344222Y-78480777D01*
X139327746Y-78462598D01*
X139313132Y-78442893D01*
X139300519Y-78421849D01*
X139290029Y-78399671D01*
X139281764Y-78376571D01*
X139275803Y-78352773D01*
X139272203Y-78328504D01*
X139270999Y-78304000D01*
X139270999Y-77804000D01*
X139272203Y-77779496D01*
X139275803Y-77755227D01*
X139281764Y-77731429D01*
X139290029Y-77708329D01*
X139300519Y-77686151D01*
X139313132Y-77665107D01*
X139327746Y-77645402D01*
X139344222Y-77627223D01*
X139362401Y-77610747D01*
X139382106Y-77596133D01*
X139403150Y-77583520D01*
X139425328Y-77573030D01*
X139448428Y-77564765D01*
X139472226Y-77558804D01*
X139496495Y-77555204D01*
X139520999Y-77554000D01*
X140820999Y-77554000D01*
X140845503Y-77555204D01*
G37*
G04 #@! TD.AperFunction*
G04 #@! TA.AperFunction,SMDPad,CuDef*
G36*
X140845503Y-79055204D02*
G01*
X140869772Y-79058804D01*
X140893570Y-79064765D01*
X140916670Y-79073030D01*
X140938848Y-79083520D01*
X140959892Y-79096133D01*
X140979597Y-79110747D01*
X140997776Y-79127223D01*
X141014252Y-79145402D01*
X141028866Y-79165107D01*
X141041479Y-79186151D01*
X141051969Y-79208329D01*
X141060234Y-79231429D01*
X141066195Y-79255227D01*
X141069795Y-79279496D01*
X141070999Y-79304000D01*
X141070999Y-79804000D01*
X141069795Y-79828504D01*
X141066195Y-79852773D01*
X141060234Y-79876571D01*
X141051969Y-79899671D01*
X141041479Y-79921849D01*
X141028866Y-79942893D01*
X141014252Y-79962598D01*
X140997776Y-79980777D01*
X140979597Y-79997253D01*
X140959892Y-80011867D01*
X140938848Y-80024480D01*
X140916670Y-80034970D01*
X140893570Y-80043235D01*
X140869772Y-80049196D01*
X140845503Y-80052796D01*
X140820999Y-80054000D01*
X139520999Y-80054000D01*
X139496495Y-80052796D01*
X139472226Y-80049196D01*
X139448428Y-80043235D01*
X139425328Y-80034970D01*
X139403150Y-80024480D01*
X139382106Y-80011867D01*
X139362401Y-79997253D01*
X139344222Y-79980777D01*
X139327746Y-79962598D01*
X139313132Y-79942893D01*
X139300519Y-79921849D01*
X139290029Y-79899671D01*
X139281764Y-79876571D01*
X139275803Y-79852773D01*
X139272203Y-79828504D01*
X139270999Y-79804000D01*
X139270999Y-79304000D01*
X139272203Y-79279496D01*
X139275803Y-79255227D01*
X139281764Y-79231429D01*
X139290029Y-79208329D01*
X139300519Y-79186151D01*
X139313132Y-79165107D01*
X139327746Y-79145402D01*
X139344222Y-79127223D01*
X139362401Y-79110747D01*
X139382106Y-79096133D01*
X139403150Y-79083520D01*
X139425328Y-79073030D01*
X139448428Y-79064765D01*
X139472226Y-79058804D01*
X139496495Y-79055204D01*
X139520999Y-79054000D01*
X140820999Y-79054000D01*
X140845503Y-79055204D01*
G37*
G04 #@! TD.AperFunction*
G04 #@! TA.AperFunction,SMDPad,CuDef*
G36*
X140845503Y-80555204D02*
G01*
X140869772Y-80558804D01*
X140893570Y-80564765D01*
X140916670Y-80573030D01*
X140938848Y-80583520D01*
X140959892Y-80596133D01*
X140979597Y-80610747D01*
X140997776Y-80627223D01*
X141014252Y-80645402D01*
X141028866Y-80665107D01*
X141041479Y-80686151D01*
X141051969Y-80708329D01*
X141060234Y-80731429D01*
X141066195Y-80755227D01*
X141069795Y-80779496D01*
X141070999Y-80804000D01*
X141070999Y-81304000D01*
X141069795Y-81328504D01*
X141066195Y-81352773D01*
X141060234Y-81376571D01*
X141051969Y-81399671D01*
X141041479Y-81421849D01*
X141028866Y-81442893D01*
X141014252Y-81462598D01*
X140997776Y-81480777D01*
X140979597Y-81497253D01*
X140959892Y-81511867D01*
X140938848Y-81524480D01*
X140916670Y-81534970D01*
X140893570Y-81543235D01*
X140869772Y-81549196D01*
X140845503Y-81552796D01*
X140820999Y-81554000D01*
X139520999Y-81554000D01*
X139496495Y-81552796D01*
X139472226Y-81549196D01*
X139448428Y-81543235D01*
X139425328Y-81534970D01*
X139403150Y-81524480D01*
X139382106Y-81511867D01*
X139362401Y-81497253D01*
X139344222Y-81480777D01*
X139327746Y-81462598D01*
X139313132Y-81442893D01*
X139300519Y-81421849D01*
X139290029Y-81399671D01*
X139281764Y-81376571D01*
X139275803Y-81352773D01*
X139272203Y-81328504D01*
X139270999Y-81304000D01*
X139270999Y-80804000D01*
X139272203Y-80779496D01*
X139275803Y-80755227D01*
X139281764Y-80731429D01*
X139290029Y-80708329D01*
X139300519Y-80686151D01*
X139313132Y-80665107D01*
X139327746Y-80645402D01*
X139344222Y-80627223D01*
X139362401Y-80610747D01*
X139382106Y-80596133D01*
X139403150Y-80583520D01*
X139425328Y-80573030D01*
X139448428Y-80564765D01*
X139472226Y-80558804D01*
X139496495Y-80555204D01*
X139520999Y-80554000D01*
X140820999Y-80554000D01*
X140845503Y-80555204D01*
G37*
G04 #@! TD.AperFunction*
G04 #@! TA.AperFunction,SMDPad,CuDef*
G36*
X140845503Y-82055204D02*
G01*
X140869772Y-82058804D01*
X140893570Y-82064765D01*
X140916670Y-82073030D01*
X140938848Y-82083520D01*
X140959892Y-82096133D01*
X140979597Y-82110747D01*
X140997776Y-82127223D01*
X141014252Y-82145402D01*
X141028866Y-82165107D01*
X141041479Y-82186151D01*
X141051969Y-82208329D01*
X141060234Y-82231429D01*
X141066195Y-82255227D01*
X141069795Y-82279496D01*
X141070999Y-82304000D01*
X141070999Y-82804000D01*
X141069795Y-82828504D01*
X141066195Y-82852773D01*
X141060234Y-82876571D01*
X141051969Y-82899671D01*
X141041479Y-82921849D01*
X141028866Y-82942893D01*
X141014252Y-82962598D01*
X140997776Y-82980777D01*
X140979597Y-82997253D01*
X140959892Y-83011867D01*
X140938848Y-83024480D01*
X140916670Y-83034970D01*
X140893570Y-83043235D01*
X140869772Y-83049196D01*
X140845503Y-83052796D01*
X140820999Y-83054000D01*
X139520999Y-83054000D01*
X139496495Y-83052796D01*
X139472226Y-83049196D01*
X139448428Y-83043235D01*
X139425328Y-83034970D01*
X139403150Y-83024480D01*
X139382106Y-83011867D01*
X139362401Y-82997253D01*
X139344222Y-82980777D01*
X139327746Y-82962598D01*
X139313132Y-82942893D01*
X139300519Y-82921849D01*
X139290029Y-82899671D01*
X139281764Y-82876571D01*
X139275803Y-82852773D01*
X139272203Y-82828504D01*
X139270999Y-82804000D01*
X139270999Y-82304000D01*
X139272203Y-82279496D01*
X139275803Y-82255227D01*
X139281764Y-82231429D01*
X139290029Y-82208329D01*
X139300519Y-82186151D01*
X139313132Y-82165107D01*
X139327746Y-82145402D01*
X139344222Y-82127223D01*
X139362401Y-82110747D01*
X139382106Y-82096133D01*
X139403150Y-82083520D01*
X139425328Y-82073030D01*
X139448428Y-82064765D01*
X139472226Y-82058804D01*
X139496495Y-82055204D01*
X139520999Y-82054000D01*
X140820999Y-82054000D01*
X140845503Y-82055204D01*
G37*
G04 #@! TD.AperFunction*
G04 #@! TA.AperFunction,SMDPad,CuDef*
G36*
X140845503Y-83555204D02*
G01*
X140869772Y-83558804D01*
X140893570Y-83564765D01*
X140916670Y-83573030D01*
X140938848Y-83583520D01*
X140959892Y-83596133D01*
X140979597Y-83610747D01*
X140997776Y-83627223D01*
X141014252Y-83645402D01*
X141028866Y-83665107D01*
X141041479Y-83686151D01*
X141051969Y-83708329D01*
X141060234Y-83731429D01*
X141066195Y-83755227D01*
X141069795Y-83779496D01*
X141070999Y-83804000D01*
X141070999Y-84304000D01*
X141069795Y-84328504D01*
X141066195Y-84352773D01*
X141060234Y-84376571D01*
X141051969Y-84399671D01*
X141041479Y-84421849D01*
X141028866Y-84442893D01*
X141014252Y-84462598D01*
X140997776Y-84480777D01*
X140979597Y-84497253D01*
X140959892Y-84511867D01*
X140938848Y-84524480D01*
X140916670Y-84534970D01*
X140893570Y-84543235D01*
X140869772Y-84549196D01*
X140845503Y-84552796D01*
X140820999Y-84554000D01*
X139520999Y-84554000D01*
X139496495Y-84552796D01*
X139472226Y-84549196D01*
X139448428Y-84543235D01*
X139425328Y-84534970D01*
X139403150Y-84524480D01*
X139382106Y-84511867D01*
X139362401Y-84497253D01*
X139344222Y-84480777D01*
X139327746Y-84462598D01*
X139313132Y-84442893D01*
X139300519Y-84421849D01*
X139290029Y-84399671D01*
X139281764Y-84376571D01*
X139275803Y-84352773D01*
X139272203Y-84328504D01*
X139270999Y-84304000D01*
X139270999Y-83804000D01*
X139272203Y-83779496D01*
X139275803Y-83755227D01*
X139281764Y-83731429D01*
X139290029Y-83708329D01*
X139300519Y-83686151D01*
X139313132Y-83665107D01*
X139327746Y-83645402D01*
X139344222Y-83627223D01*
X139362401Y-83610747D01*
X139382106Y-83596133D01*
X139403150Y-83583520D01*
X139425328Y-83573030D01*
X139448428Y-83564765D01*
X139472226Y-83558804D01*
X139496495Y-83555204D01*
X139520999Y-83554000D01*
X140820999Y-83554000D01*
X140845503Y-83555204D01*
G37*
G04 #@! TD.AperFunction*
G04 #@! TA.AperFunction,SMDPad,CuDef*
G36*
X140845503Y-85055204D02*
G01*
X140869772Y-85058804D01*
X140893570Y-85064765D01*
X140916670Y-85073030D01*
X140938848Y-85083520D01*
X140959892Y-85096133D01*
X140979597Y-85110747D01*
X140997776Y-85127223D01*
X141014252Y-85145402D01*
X141028866Y-85165107D01*
X141041479Y-85186151D01*
X141051969Y-85208329D01*
X141060234Y-85231429D01*
X141066195Y-85255227D01*
X141069795Y-85279496D01*
X141070999Y-85304000D01*
X141070999Y-85804000D01*
X141069795Y-85828504D01*
X141066195Y-85852773D01*
X141060234Y-85876571D01*
X141051969Y-85899671D01*
X141041479Y-85921849D01*
X141028866Y-85942893D01*
X141014252Y-85962598D01*
X140997776Y-85980777D01*
X140979597Y-85997253D01*
X140959892Y-86011867D01*
X140938848Y-86024480D01*
X140916670Y-86034970D01*
X140893570Y-86043235D01*
X140869772Y-86049196D01*
X140845503Y-86052796D01*
X140820999Y-86054000D01*
X139520999Y-86054000D01*
X139496495Y-86052796D01*
X139472226Y-86049196D01*
X139448428Y-86043235D01*
X139425328Y-86034970D01*
X139403150Y-86024480D01*
X139382106Y-86011867D01*
X139362401Y-85997253D01*
X139344222Y-85980777D01*
X139327746Y-85962598D01*
X139313132Y-85942893D01*
X139300519Y-85921849D01*
X139290029Y-85899671D01*
X139281764Y-85876571D01*
X139275803Y-85852773D01*
X139272203Y-85828504D01*
X139270999Y-85804000D01*
X139270999Y-85304000D01*
X139272203Y-85279496D01*
X139275803Y-85255227D01*
X139281764Y-85231429D01*
X139290029Y-85208329D01*
X139300519Y-85186151D01*
X139313132Y-85165107D01*
X139327746Y-85145402D01*
X139344222Y-85127223D01*
X139362401Y-85110747D01*
X139382106Y-85096133D01*
X139403150Y-85083520D01*
X139425328Y-85073030D01*
X139448428Y-85064765D01*
X139472226Y-85058804D01*
X139496495Y-85055204D01*
X139520999Y-85054000D01*
X140820999Y-85054000D01*
X140845503Y-85055204D01*
G37*
G04 #@! TD.AperFunction*
G04 #@! TA.AperFunction,SMDPad,CuDef*
G36*
X139445503Y-86405204D02*
G01*
X139469772Y-86408804D01*
X139493570Y-86414765D01*
X139516670Y-86423030D01*
X139538848Y-86433520D01*
X139559892Y-86446133D01*
X139579597Y-86460747D01*
X139597776Y-86477223D01*
X139614252Y-86495402D01*
X139628866Y-86515107D01*
X139641479Y-86536151D01*
X139651969Y-86558329D01*
X139660234Y-86581429D01*
X139666195Y-86605227D01*
X139669795Y-86629496D01*
X139670999Y-86654000D01*
X139670999Y-87954000D01*
X139669795Y-87978504D01*
X139666195Y-88002773D01*
X139660234Y-88026571D01*
X139651969Y-88049671D01*
X139641479Y-88071849D01*
X139628866Y-88092893D01*
X139614252Y-88112598D01*
X139597776Y-88130777D01*
X139579597Y-88147253D01*
X139559892Y-88161867D01*
X139538848Y-88174480D01*
X139516670Y-88184970D01*
X139493570Y-88193235D01*
X139469772Y-88199196D01*
X139445503Y-88202796D01*
X139420999Y-88204000D01*
X138920999Y-88204000D01*
X138896495Y-88202796D01*
X138872226Y-88199196D01*
X138848428Y-88193235D01*
X138825328Y-88184970D01*
X138803150Y-88174480D01*
X138782106Y-88161867D01*
X138762401Y-88147253D01*
X138744222Y-88130777D01*
X138727746Y-88112598D01*
X138713132Y-88092893D01*
X138700519Y-88071849D01*
X138690029Y-88049671D01*
X138681764Y-88026571D01*
X138675803Y-88002773D01*
X138672203Y-87978504D01*
X138670999Y-87954000D01*
X138670999Y-86654000D01*
X138672203Y-86629496D01*
X138675803Y-86605227D01*
X138681764Y-86581429D01*
X138690029Y-86558329D01*
X138700519Y-86536151D01*
X138713132Y-86515107D01*
X138727746Y-86495402D01*
X138744222Y-86477223D01*
X138762401Y-86460747D01*
X138782106Y-86446133D01*
X138803150Y-86433520D01*
X138825328Y-86423030D01*
X138848428Y-86414765D01*
X138872226Y-86408804D01*
X138896495Y-86405204D01*
X138920999Y-86404000D01*
X139420999Y-86404000D01*
X139445503Y-86405204D01*
G37*
G04 #@! TD.AperFunction*
G04 #@! TA.AperFunction,SMDPad,CuDef*
G36*
X137945503Y-86405204D02*
G01*
X137969772Y-86408804D01*
X137993570Y-86414765D01*
X138016670Y-86423030D01*
X138038848Y-86433520D01*
X138059892Y-86446133D01*
X138079597Y-86460747D01*
X138097776Y-86477223D01*
X138114252Y-86495402D01*
X138128866Y-86515107D01*
X138141479Y-86536151D01*
X138151969Y-86558329D01*
X138160234Y-86581429D01*
X138166195Y-86605227D01*
X138169795Y-86629496D01*
X138170999Y-86654000D01*
X138170999Y-87954000D01*
X138169795Y-87978504D01*
X138166195Y-88002773D01*
X138160234Y-88026571D01*
X138151969Y-88049671D01*
X138141479Y-88071849D01*
X138128866Y-88092893D01*
X138114252Y-88112598D01*
X138097776Y-88130777D01*
X138079597Y-88147253D01*
X138059892Y-88161867D01*
X138038848Y-88174480D01*
X138016670Y-88184970D01*
X137993570Y-88193235D01*
X137969772Y-88199196D01*
X137945503Y-88202796D01*
X137920999Y-88204000D01*
X137420999Y-88204000D01*
X137396495Y-88202796D01*
X137372226Y-88199196D01*
X137348428Y-88193235D01*
X137325328Y-88184970D01*
X137303150Y-88174480D01*
X137282106Y-88161867D01*
X137262401Y-88147253D01*
X137244222Y-88130777D01*
X137227746Y-88112598D01*
X137213132Y-88092893D01*
X137200519Y-88071849D01*
X137190029Y-88049671D01*
X137181764Y-88026571D01*
X137175803Y-88002773D01*
X137172203Y-87978504D01*
X137170999Y-87954000D01*
X137170999Y-86654000D01*
X137172203Y-86629496D01*
X137175803Y-86605227D01*
X137181764Y-86581429D01*
X137190029Y-86558329D01*
X137200519Y-86536151D01*
X137213132Y-86515107D01*
X137227746Y-86495402D01*
X137244222Y-86477223D01*
X137262401Y-86460747D01*
X137282106Y-86446133D01*
X137303150Y-86433520D01*
X137325328Y-86423030D01*
X137348428Y-86414765D01*
X137372226Y-86408804D01*
X137396495Y-86405204D01*
X137420999Y-86404000D01*
X137920999Y-86404000D01*
X137945503Y-86405204D01*
G37*
G04 #@! TD.AperFunction*
G04 #@! TA.AperFunction,SMDPad,CuDef*
G36*
X136445503Y-86405204D02*
G01*
X136469772Y-86408804D01*
X136493570Y-86414765D01*
X136516670Y-86423030D01*
X136538848Y-86433520D01*
X136559892Y-86446133D01*
X136579597Y-86460747D01*
X136597776Y-86477223D01*
X136614252Y-86495402D01*
X136628866Y-86515107D01*
X136641479Y-86536151D01*
X136651969Y-86558329D01*
X136660234Y-86581429D01*
X136666195Y-86605227D01*
X136669795Y-86629496D01*
X136670999Y-86654000D01*
X136670999Y-87954000D01*
X136669795Y-87978504D01*
X136666195Y-88002773D01*
X136660234Y-88026571D01*
X136651969Y-88049671D01*
X136641479Y-88071849D01*
X136628866Y-88092893D01*
X136614252Y-88112598D01*
X136597776Y-88130777D01*
X136579597Y-88147253D01*
X136559892Y-88161867D01*
X136538848Y-88174480D01*
X136516670Y-88184970D01*
X136493570Y-88193235D01*
X136469772Y-88199196D01*
X136445503Y-88202796D01*
X136420999Y-88204000D01*
X135920999Y-88204000D01*
X135896495Y-88202796D01*
X135872226Y-88199196D01*
X135848428Y-88193235D01*
X135825328Y-88184970D01*
X135803150Y-88174480D01*
X135782106Y-88161867D01*
X135762401Y-88147253D01*
X135744222Y-88130777D01*
X135727746Y-88112598D01*
X135713132Y-88092893D01*
X135700519Y-88071849D01*
X135690029Y-88049671D01*
X135681764Y-88026571D01*
X135675803Y-88002773D01*
X135672203Y-87978504D01*
X135670999Y-87954000D01*
X135670999Y-86654000D01*
X135672203Y-86629496D01*
X135675803Y-86605227D01*
X135681764Y-86581429D01*
X135690029Y-86558329D01*
X135700519Y-86536151D01*
X135713132Y-86515107D01*
X135727746Y-86495402D01*
X135744222Y-86477223D01*
X135762401Y-86460747D01*
X135782106Y-86446133D01*
X135803150Y-86433520D01*
X135825328Y-86423030D01*
X135848428Y-86414765D01*
X135872226Y-86408804D01*
X135896495Y-86405204D01*
X135920999Y-86404000D01*
X136420999Y-86404000D01*
X136445503Y-86405204D01*
G37*
G04 #@! TD.AperFunction*
G04 #@! TA.AperFunction,SMDPad,CuDef*
G36*
X134945503Y-86405204D02*
G01*
X134969772Y-86408804D01*
X134993570Y-86414765D01*
X135016670Y-86423030D01*
X135038848Y-86433520D01*
X135059892Y-86446133D01*
X135079597Y-86460747D01*
X135097776Y-86477223D01*
X135114252Y-86495402D01*
X135128866Y-86515107D01*
X135141479Y-86536151D01*
X135151969Y-86558329D01*
X135160234Y-86581429D01*
X135166195Y-86605227D01*
X135169795Y-86629496D01*
X135170999Y-86654000D01*
X135170999Y-87954000D01*
X135169795Y-87978504D01*
X135166195Y-88002773D01*
X135160234Y-88026571D01*
X135151969Y-88049671D01*
X135141479Y-88071849D01*
X135128866Y-88092893D01*
X135114252Y-88112598D01*
X135097776Y-88130777D01*
X135079597Y-88147253D01*
X135059892Y-88161867D01*
X135038848Y-88174480D01*
X135016670Y-88184970D01*
X134993570Y-88193235D01*
X134969772Y-88199196D01*
X134945503Y-88202796D01*
X134920999Y-88204000D01*
X134420999Y-88204000D01*
X134396495Y-88202796D01*
X134372226Y-88199196D01*
X134348428Y-88193235D01*
X134325328Y-88184970D01*
X134303150Y-88174480D01*
X134282106Y-88161867D01*
X134262401Y-88147253D01*
X134244222Y-88130777D01*
X134227746Y-88112598D01*
X134213132Y-88092893D01*
X134200519Y-88071849D01*
X134190029Y-88049671D01*
X134181764Y-88026571D01*
X134175803Y-88002773D01*
X134172203Y-87978504D01*
X134170999Y-87954000D01*
X134170999Y-86654000D01*
X134172203Y-86629496D01*
X134175803Y-86605227D01*
X134181764Y-86581429D01*
X134190029Y-86558329D01*
X134200519Y-86536151D01*
X134213132Y-86515107D01*
X134227746Y-86495402D01*
X134244222Y-86477223D01*
X134262401Y-86460747D01*
X134282106Y-86446133D01*
X134303150Y-86433520D01*
X134325328Y-86423030D01*
X134348428Y-86414765D01*
X134372226Y-86408804D01*
X134396495Y-86405204D01*
X134420999Y-86404000D01*
X134920999Y-86404000D01*
X134945503Y-86405204D01*
G37*
G04 #@! TD.AperFunction*
G04 #@! TA.AperFunction,SMDPad,CuDef*
G36*
X133445503Y-86405204D02*
G01*
X133469772Y-86408804D01*
X133493570Y-86414765D01*
X133516670Y-86423030D01*
X133538848Y-86433520D01*
X133559892Y-86446133D01*
X133579597Y-86460747D01*
X133597776Y-86477223D01*
X133614252Y-86495402D01*
X133628866Y-86515107D01*
X133641479Y-86536151D01*
X133651969Y-86558329D01*
X133660234Y-86581429D01*
X133666195Y-86605227D01*
X133669795Y-86629496D01*
X133670999Y-86654000D01*
X133670999Y-87954000D01*
X133669795Y-87978504D01*
X133666195Y-88002773D01*
X133660234Y-88026571D01*
X133651969Y-88049671D01*
X133641479Y-88071849D01*
X133628866Y-88092893D01*
X133614252Y-88112598D01*
X133597776Y-88130777D01*
X133579597Y-88147253D01*
X133559892Y-88161867D01*
X133538848Y-88174480D01*
X133516670Y-88184970D01*
X133493570Y-88193235D01*
X133469772Y-88199196D01*
X133445503Y-88202796D01*
X133420999Y-88204000D01*
X132920999Y-88204000D01*
X132896495Y-88202796D01*
X132872226Y-88199196D01*
X132848428Y-88193235D01*
X132825328Y-88184970D01*
X132803150Y-88174480D01*
X132782106Y-88161867D01*
X132762401Y-88147253D01*
X132744222Y-88130777D01*
X132727746Y-88112598D01*
X132713132Y-88092893D01*
X132700519Y-88071849D01*
X132690029Y-88049671D01*
X132681764Y-88026571D01*
X132675803Y-88002773D01*
X132672203Y-87978504D01*
X132670999Y-87954000D01*
X132670999Y-86654000D01*
X132672203Y-86629496D01*
X132675803Y-86605227D01*
X132681764Y-86581429D01*
X132690029Y-86558329D01*
X132700519Y-86536151D01*
X132713132Y-86515107D01*
X132727746Y-86495402D01*
X132744222Y-86477223D01*
X132762401Y-86460747D01*
X132782106Y-86446133D01*
X132803150Y-86433520D01*
X132825328Y-86423030D01*
X132848428Y-86414765D01*
X132872226Y-86408804D01*
X132896495Y-86405204D01*
X132920999Y-86404000D01*
X133420999Y-86404000D01*
X133445503Y-86405204D01*
G37*
G04 #@! TD.AperFunction*
G04 #@! TA.AperFunction,SMDPad,CuDef*
G36*
X131945503Y-86405204D02*
G01*
X131969772Y-86408804D01*
X131993570Y-86414765D01*
X132016670Y-86423030D01*
X132038848Y-86433520D01*
X132059892Y-86446133D01*
X132079597Y-86460747D01*
X132097776Y-86477223D01*
X132114252Y-86495402D01*
X132128866Y-86515107D01*
X132141479Y-86536151D01*
X132151969Y-86558329D01*
X132160234Y-86581429D01*
X132166195Y-86605227D01*
X132169795Y-86629496D01*
X132170999Y-86654000D01*
X132170999Y-87954000D01*
X132169795Y-87978504D01*
X132166195Y-88002773D01*
X132160234Y-88026571D01*
X132151969Y-88049671D01*
X132141479Y-88071849D01*
X132128866Y-88092893D01*
X132114252Y-88112598D01*
X132097776Y-88130777D01*
X132079597Y-88147253D01*
X132059892Y-88161867D01*
X132038848Y-88174480D01*
X132016670Y-88184970D01*
X131993570Y-88193235D01*
X131969772Y-88199196D01*
X131945503Y-88202796D01*
X131920999Y-88204000D01*
X131420999Y-88204000D01*
X131396495Y-88202796D01*
X131372226Y-88199196D01*
X131348428Y-88193235D01*
X131325328Y-88184970D01*
X131303150Y-88174480D01*
X131282106Y-88161867D01*
X131262401Y-88147253D01*
X131244222Y-88130777D01*
X131227746Y-88112598D01*
X131213132Y-88092893D01*
X131200519Y-88071849D01*
X131190029Y-88049671D01*
X131181764Y-88026571D01*
X131175803Y-88002773D01*
X131172203Y-87978504D01*
X131170999Y-87954000D01*
X131170999Y-86654000D01*
X131172203Y-86629496D01*
X131175803Y-86605227D01*
X131181764Y-86581429D01*
X131190029Y-86558329D01*
X131200519Y-86536151D01*
X131213132Y-86515107D01*
X131227746Y-86495402D01*
X131244222Y-86477223D01*
X131262401Y-86460747D01*
X131282106Y-86446133D01*
X131303150Y-86433520D01*
X131325328Y-86423030D01*
X131348428Y-86414765D01*
X131372226Y-86408804D01*
X131396495Y-86405204D01*
X131420999Y-86404000D01*
X131920999Y-86404000D01*
X131945503Y-86405204D01*
G37*
G04 #@! TD.AperFunction*
G04 #@! TA.AperFunction,SMDPad,CuDef*
G36*
X130445503Y-86405204D02*
G01*
X130469772Y-86408804D01*
X130493570Y-86414765D01*
X130516670Y-86423030D01*
X130538848Y-86433520D01*
X130559892Y-86446133D01*
X130579597Y-86460747D01*
X130597776Y-86477223D01*
X130614252Y-86495402D01*
X130628866Y-86515107D01*
X130641479Y-86536151D01*
X130651969Y-86558329D01*
X130660234Y-86581429D01*
X130666195Y-86605227D01*
X130669795Y-86629496D01*
X130670999Y-86654000D01*
X130670999Y-87954000D01*
X130669795Y-87978504D01*
X130666195Y-88002773D01*
X130660234Y-88026571D01*
X130651969Y-88049671D01*
X130641479Y-88071849D01*
X130628866Y-88092893D01*
X130614252Y-88112598D01*
X130597776Y-88130777D01*
X130579597Y-88147253D01*
X130559892Y-88161867D01*
X130538848Y-88174480D01*
X130516670Y-88184970D01*
X130493570Y-88193235D01*
X130469772Y-88199196D01*
X130445503Y-88202796D01*
X130420999Y-88204000D01*
X129920999Y-88204000D01*
X129896495Y-88202796D01*
X129872226Y-88199196D01*
X129848428Y-88193235D01*
X129825328Y-88184970D01*
X129803150Y-88174480D01*
X129782106Y-88161867D01*
X129762401Y-88147253D01*
X129744222Y-88130777D01*
X129727746Y-88112598D01*
X129713132Y-88092893D01*
X129700519Y-88071849D01*
X129690029Y-88049671D01*
X129681764Y-88026571D01*
X129675803Y-88002773D01*
X129672203Y-87978504D01*
X129670999Y-87954000D01*
X129670999Y-86654000D01*
X129672203Y-86629496D01*
X129675803Y-86605227D01*
X129681764Y-86581429D01*
X129690029Y-86558329D01*
X129700519Y-86536151D01*
X129713132Y-86515107D01*
X129727746Y-86495402D01*
X129744222Y-86477223D01*
X129762401Y-86460747D01*
X129782106Y-86446133D01*
X129803150Y-86433520D01*
X129825328Y-86423030D01*
X129848428Y-86414765D01*
X129872226Y-86408804D01*
X129896495Y-86405204D01*
X129920999Y-86404000D01*
X130420999Y-86404000D01*
X130445503Y-86405204D01*
G37*
G04 #@! TD.AperFunction*
G04 #@! TA.AperFunction,SMDPad,CuDef*
G36*
X128945503Y-86405204D02*
G01*
X128969772Y-86408804D01*
X128993570Y-86414765D01*
X129016670Y-86423030D01*
X129038848Y-86433520D01*
X129059892Y-86446133D01*
X129079597Y-86460747D01*
X129097776Y-86477223D01*
X129114252Y-86495402D01*
X129128866Y-86515107D01*
X129141479Y-86536151D01*
X129151969Y-86558329D01*
X129160234Y-86581429D01*
X129166195Y-86605227D01*
X129169795Y-86629496D01*
X129170999Y-86654000D01*
X129170999Y-87954000D01*
X129169795Y-87978504D01*
X129166195Y-88002773D01*
X129160234Y-88026571D01*
X129151969Y-88049671D01*
X129141479Y-88071849D01*
X129128866Y-88092893D01*
X129114252Y-88112598D01*
X129097776Y-88130777D01*
X129079597Y-88147253D01*
X129059892Y-88161867D01*
X129038848Y-88174480D01*
X129016670Y-88184970D01*
X128993570Y-88193235D01*
X128969772Y-88199196D01*
X128945503Y-88202796D01*
X128920999Y-88204000D01*
X128420999Y-88204000D01*
X128396495Y-88202796D01*
X128372226Y-88199196D01*
X128348428Y-88193235D01*
X128325328Y-88184970D01*
X128303150Y-88174480D01*
X128282106Y-88161867D01*
X128262401Y-88147253D01*
X128244222Y-88130777D01*
X128227746Y-88112598D01*
X128213132Y-88092893D01*
X128200519Y-88071849D01*
X128190029Y-88049671D01*
X128181764Y-88026571D01*
X128175803Y-88002773D01*
X128172203Y-87978504D01*
X128170999Y-87954000D01*
X128170999Y-86654000D01*
X128172203Y-86629496D01*
X128175803Y-86605227D01*
X128181764Y-86581429D01*
X128190029Y-86558329D01*
X128200519Y-86536151D01*
X128213132Y-86515107D01*
X128227746Y-86495402D01*
X128244222Y-86477223D01*
X128262401Y-86460747D01*
X128282106Y-86446133D01*
X128303150Y-86433520D01*
X128325328Y-86423030D01*
X128348428Y-86414765D01*
X128372226Y-86408804D01*
X128396495Y-86405204D01*
X128420999Y-86404000D01*
X128920999Y-86404000D01*
X128945503Y-86405204D01*
G37*
G04 #@! TD.AperFunction*
G04 #@! TA.AperFunction,SMDPad,CuDef*
G36*
X128095503Y-85055204D02*
G01*
X128119772Y-85058804D01*
X128143570Y-85064765D01*
X128166670Y-85073030D01*
X128188848Y-85083520D01*
X128209892Y-85096133D01*
X128229597Y-85110747D01*
X128247776Y-85127223D01*
X128264252Y-85145402D01*
X128278866Y-85165107D01*
X128291479Y-85186151D01*
X128301969Y-85208329D01*
X128310234Y-85231429D01*
X128316195Y-85255227D01*
X128319795Y-85279496D01*
X128320999Y-85304000D01*
X128320999Y-85804000D01*
X128319795Y-85828504D01*
X128316195Y-85852773D01*
X128310234Y-85876571D01*
X128301969Y-85899671D01*
X128291479Y-85921849D01*
X128278866Y-85942893D01*
X128264252Y-85962598D01*
X128247776Y-85980777D01*
X128229597Y-85997253D01*
X128209892Y-86011867D01*
X128188848Y-86024480D01*
X128166670Y-86034970D01*
X128143570Y-86043235D01*
X128119772Y-86049196D01*
X128095503Y-86052796D01*
X128070999Y-86054000D01*
X126770999Y-86054000D01*
X126746495Y-86052796D01*
X126722226Y-86049196D01*
X126698428Y-86043235D01*
X126675328Y-86034970D01*
X126653150Y-86024480D01*
X126632106Y-86011867D01*
X126612401Y-85997253D01*
X126594222Y-85980777D01*
X126577746Y-85962598D01*
X126563132Y-85942893D01*
X126550519Y-85921849D01*
X126540029Y-85899671D01*
X126531764Y-85876571D01*
X126525803Y-85852773D01*
X126522203Y-85828504D01*
X126520999Y-85804000D01*
X126520999Y-85304000D01*
X126522203Y-85279496D01*
X126525803Y-85255227D01*
X126531764Y-85231429D01*
X126540029Y-85208329D01*
X126550519Y-85186151D01*
X126563132Y-85165107D01*
X126577746Y-85145402D01*
X126594222Y-85127223D01*
X126612401Y-85110747D01*
X126632106Y-85096133D01*
X126653150Y-85083520D01*
X126675328Y-85073030D01*
X126698428Y-85064765D01*
X126722226Y-85058804D01*
X126746495Y-85055204D01*
X126770999Y-85054000D01*
X128070999Y-85054000D01*
X128095503Y-85055204D01*
G37*
G04 #@! TD.AperFunction*
G04 #@! TA.AperFunction,SMDPad,CuDef*
G36*
X128095503Y-83555204D02*
G01*
X128119772Y-83558804D01*
X128143570Y-83564765D01*
X128166670Y-83573030D01*
X128188848Y-83583520D01*
X128209892Y-83596133D01*
X128229597Y-83610747D01*
X128247776Y-83627223D01*
X128264252Y-83645402D01*
X128278866Y-83665107D01*
X128291479Y-83686151D01*
X128301969Y-83708329D01*
X128310234Y-83731429D01*
X128316195Y-83755227D01*
X128319795Y-83779496D01*
X128320999Y-83804000D01*
X128320999Y-84304000D01*
X128319795Y-84328504D01*
X128316195Y-84352773D01*
X128310234Y-84376571D01*
X128301969Y-84399671D01*
X128291479Y-84421849D01*
X128278866Y-84442893D01*
X128264252Y-84462598D01*
X128247776Y-84480777D01*
X128229597Y-84497253D01*
X128209892Y-84511867D01*
X128188848Y-84524480D01*
X128166670Y-84534970D01*
X128143570Y-84543235D01*
X128119772Y-84549196D01*
X128095503Y-84552796D01*
X128070999Y-84554000D01*
X126770999Y-84554000D01*
X126746495Y-84552796D01*
X126722226Y-84549196D01*
X126698428Y-84543235D01*
X126675328Y-84534970D01*
X126653150Y-84524480D01*
X126632106Y-84511867D01*
X126612401Y-84497253D01*
X126594222Y-84480777D01*
X126577746Y-84462598D01*
X126563132Y-84442893D01*
X126550519Y-84421849D01*
X126540029Y-84399671D01*
X126531764Y-84376571D01*
X126525803Y-84352773D01*
X126522203Y-84328504D01*
X126520999Y-84304000D01*
X126520999Y-83804000D01*
X126522203Y-83779496D01*
X126525803Y-83755227D01*
X126531764Y-83731429D01*
X126540029Y-83708329D01*
X126550519Y-83686151D01*
X126563132Y-83665107D01*
X126577746Y-83645402D01*
X126594222Y-83627223D01*
X126612401Y-83610747D01*
X126632106Y-83596133D01*
X126653150Y-83583520D01*
X126675328Y-83573030D01*
X126698428Y-83564765D01*
X126722226Y-83558804D01*
X126746495Y-83555204D01*
X126770999Y-83554000D01*
X128070999Y-83554000D01*
X128095503Y-83555204D01*
G37*
G04 #@! TD.AperFunction*
G04 #@! TA.AperFunction,SMDPad,CuDef*
G36*
X128095503Y-82055204D02*
G01*
X128119772Y-82058804D01*
X128143570Y-82064765D01*
X128166670Y-82073030D01*
X128188848Y-82083520D01*
X128209892Y-82096133D01*
X128229597Y-82110747D01*
X128247776Y-82127223D01*
X128264252Y-82145402D01*
X128278866Y-82165107D01*
X128291479Y-82186151D01*
X128301969Y-82208329D01*
X128310234Y-82231429D01*
X128316195Y-82255227D01*
X128319795Y-82279496D01*
X128320999Y-82304000D01*
X128320999Y-82804000D01*
X128319795Y-82828504D01*
X128316195Y-82852773D01*
X128310234Y-82876571D01*
X128301969Y-82899671D01*
X128291479Y-82921849D01*
X128278866Y-82942893D01*
X128264252Y-82962598D01*
X128247776Y-82980777D01*
X128229597Y-82997253D01*
X128209892Y-83011867D01*
X128188848Y-83024480D01*
X128166670Y-83034970D01*
X128143570Y-83043235D01*
X128119772Y-83049196D01*
X128095503Y-83052796D01*
X128070999Y-83054000D01*
X126770999Y-83054000D01*
X126746495Y-83052796D01*
X126722226Y-83049196D01*
X126698428Y-83043235D01*
X126675328Y-83034970D01*
X126653150Y-83024480D01*
X126632106Y-83011867D01*
X126612401Y-82997253D01*
X126594222Y-82980777D01*
X126577746Y-82962598D01*
X126563132Y-82942893D01*
X126550519Y-82921849D01*
X126540029Y-82899671D01*
X126531764Y-82876571D01*
X126525803Y-82852773D01*
X126522203Y-82828504D01*
X126520999Y-82804000D01*
X126520999Y-82304000D01*
X126522203Y-82279496D01*
X126525803Y-82255227D01*
X126531764Y-82231429D01*
X126540029Y-82208329D01*
X126550519Y-82186151D01*
X126563132Y-82165107D01*
X126577746Y-82145402D01*
X126594222Y-82127223D01*
X126612401Y-82110747D01*
X126632106Y-82096133D01*
X126653150Y-82083520D01*
X126675328Y-82073030D01*
X126698428Y-82064765D01*
X126722226Y-82058804D01*
X126746495Y-82055204D01*
X126770999Y-82054000D01*
X128070999Y-82054000D01*
X128095503Y-82055204D01*
G37*
G04 #@! TD.AperFunction*
G04 #@! TA.AperFunction,SMDPad,CuDef*
G36*
X128095503Y-80555204D02*
G01*
X128119772Y-80558804D01*
X128143570Y-80564765D01*
X128166670Y-80573030D01*
X128188848Y-80583520D01*
X128209892Y-80596133D01*
X128229597Y-80610747D01*
X128247776Y-80627223D01*
X128264252Y-80645402D01*
X128278866Y-80665107D01*
X128291479Y-80686151D01*
X128301969Y-80708329D01*
X128310234Y-80731429D01*
X128316195Y-80755227D01*
X128319795Y-80779496D01*
X128320999Y-80804000D01*
X128320999Y-81304000D01*
X128319795Y-81328504D01*
X128316195Y-81352773D01*
X128310234Y-81376571D01*
X128301969Y-81399671D01*
X128291479Y-81421849D01*
X128278866Y-81442893D01*
X128264252Y-81462598D01*
X128247776Y-81480777D01*
X128229597Y-81497253D01*
X128209892Y-81511867D01*
X128188848Y-81524480D01*
X128166670Y-81534970D01*
X128143570Y-81543235D01*
X128119772Y-81549196D01*
X128095503Y-81552796D01*
X128070999Y-81554000D01*
X126770999Y-81554000D01*
X126746495Y-81552796D01*
X126722226Y-81549196D01*
X126698428Y-81543235D01*
X126675328Y-81534970D01*
X126653150Y-81524480D01*
X126632106Y-81511867D01*
X126612401Y-81497253D01*
X126594222Y-81480777D01*
X126577746Y-81462598D01*
X126563132Y-81442893D01*
X126550519Y-81421849D01*
X126540029Y-81399671D01*
X126531764Y-81376571D01*
X126525803Y-81352773D01*
X126522203Y-81328504D01*
X126520999Y-81304000D01*
X126520999Y-80804000D01*
X126522203Y-80779496D01*
X126525803Y-80755227D01*
X126531764Y-80731429D01*
X126540029Y-80708329D01*
X126550519Y-80686151D01*
X126563132Y-80665107D01*
X126577746Y-80645402D01*
X126594222Y-80627223D01*
X126612401Y-80610747D01*
X126632106Y-80596133D01*
X126653150Y-80583520D01*
X126675328Y-80573030D01*
X126698428Y-80564765D01*
X126722226Y-80558804D01*
X126746495Y-80555204D01*
X126770999Y-80554000D01*
X128070999Y-80554000D01*
X128095503Y-80555204D01*
G37*
G04 #@! TD.AperFunction*
G04 #@! TA.AperFunction,SMDPad,CuDef*
G36*
X128095503Y-79055204D02*
G01*
X128119772Y-79058804D01*
X128143570Y-79064765D01*
X128166670Y-79073030D01*
X128188848Y-79083520D01*
X128209892Y-79096133D01*
X128229597Y-79110747D01*
X128247776Y-79127223D01*
X128264252Y-79145402D01*
X128278866Y-79165107D01*
X128291479Y-79186151D01*
X128301969Y-79208329D01*
X128310234Y-79231429D01*
X128316195Y-79255227D01*
X128319795Y-79279496D01*
X128320999Y-79304000D01*
X128320999Y-79804000D01*
X128319795Y-79828504D01*
X128316195Y-79852773D01*
X128310234Y-79876571D01*
X128301969Y-79899671D01*
X128291479Y-79921849D01*
X128278866Y-79942893D01*
X128264252Y-79962598D01*
X128247776Y-79980777D01*
X128229597Y-79997253D01*
X128209892Y-80011867D01*
X128188848Y-80024480D01*
X128166670Y-80034970D01*
X128143570Y-80043235D01*
X128119772Y-80049196D01*
X128095503Y-80052796D01*
X128070999Y-80054000D01*
X126770999Y-80054000D01*
X126746495Y-80052796D01*
X126722226Y-80049196D01*
X126698428Y-80043235D01*
X126675328Y-80034970D01*
X126653150Y-80024480D01*
X126632106Y-80011867D01*
X126612401Y-79997253D01*
X126594222Y-79980777D01*
X126577746Y-79962598D01*
X126563132Y-79942893D01*
X126550519Y-79921849D01*
X126540029Y-79899671D01*
X126531764Y-79876571D01*
X126525803Y-79852773D01*
X126522203Y-79828504D01*
X126520999Y-79804000D01*
X126520999Y-79304000D01*
X126522203Y-79279496D01*
X126525803Y-79255227D01*
X126531764Y-79231429D01*
X126540029Y-79208329D01*
X126550519Y-79186151D01*
X126563132Y-79165107D01*
X126577746Y-79145402D01*
X126594222Y-79127223D01*
X126612401Y-79110747D01*
X126632106Y-79096133D01*
X126653150Y-79083520D01*
X126675328Y-79073030D01*
X126698428Y-79064765D01*
X126722226Y-79058804D01*
X126746495Y-79055204D01*
X126770999Y-79054000D01*
X128070999Y-79054000D01*
X128095503Y-79055204D01*
G37*
G04 #@! TD.AperFunction*
G04 #@! TA.AperFunction,SMDPad,CuDef*
G36*
X128095503Y-77555204D02*
G01*
X128119772Y-77558804D01*
X128143570Y-77564765D01*
X128166670Y-77573030D01*
X128188848Y-77583520D01*
X128209892Y-77596133D01*
X128229597Y-77610747D01*
X128247776Y-77627223D01*
X128264252Y-77645402D01*
X128278866Y-77665107D01*
X128291479Y-77686151D01*
X128301969Y-77708329D01*
X128310234Y-77731429D01*
X128316195Y-77755227D01*
X128319795Y-77779496D01*
X128320999Y-77804000D01*
X128320999Y-78304000D01*
X128319795Y-78328504D01*
X128316195Y-78352773D01*
X128310234Y-78376571D01*
X128301969Y-78399671D01*
X128291479Y-78421849D01*
X128278866Y-78442893D01*
X128264252Y-78462598D01*
X128247776Y-78480777D01*
X128229597Y-78497253D01*
X128209892Y-78511867D01*
X128188848Y-78524480D01*
X128166670Y-78534970D01*
X128143570Y-78543235D01*
X128119772Y-78549196D01*
X128095503Y-78552796D01*
X128070999Y-78554000D01*
X126770999Y-78554000D01*
X126746495Y-78552796D01*
X126722226Y-78549196D01*
X126698428Y-78543235D01*
X126675328Y-78534970D01*
X126653150Y-78524480D01*
X126632106Y-78511867D01*
X126612401Y-78497253D01*
X126594222Y-78480777D01*
X126577746Y-78462598D01*
X126563132Y-78442893D01*
X126550519Y-78421849D01*
X126540029Y-78399671D01*
X126531764Y-78376571D01*
X126525803Y-78352773D01*
X126522203Y-78328504D01*
X126520999Y-78304000D01*
X126520999Y-77804000D01*
X126522203Y-77779496D01*
X126525803Y-77755227D01*
X126531764Y-77731429D01*
X126540029Y-77708329D01*
X126550519Y-77686151D01*
X126563132Y-77665107D01*
X126577746Y-77645402D01*
X126594222Y-77627223D01*
X126612401Y-77610747D01*
X126632106Y-77596133D01*
X126653150Y-77583520D01*
X126675328Y-77573030D01*
X126698428Y-77564765D01*
X126722226Y-77558804D01*
X126746495Y-77555204D01*
X126770999Y-77554000D01*
X128070999Y-77554000D01*
X128095503Y-77555204D01*
G37*
G04 #@! TD.AperFunction*
G04 #@! TA.AperFunction,SMDPad,CuDef*
G36*
X128095503Y-76055204D02*
G01*
X128119772Y-76058804D01*
X128143570Y-76064765D01*
X128166670Y-76073030D01*
X128188848Y-76083520D01*
X128209892Y-76096133D01*
X128229597Y-76110747D01*
X128247776Y-76127223D01*
X128264252Y-76145402D01*
X128278866Y-76165107D01*
X128291479Y-76186151D01*
X128301969Y-76208329D01*
X128310234Y-76231429D01*
X128316195Y-76255227D01*
X128319795Y-76279496D01*
X128320999Y-76304000D01*
X128320999Y-76804000D01*
X128319795Y-76828504D01*
X128316195Y-76852773D01*
X128310234Y-76876571D01*
X128301969Y-76899671D01*
X128291479Y-76921849D01*
X128278866Y-76942893D01*
X128264252Y-76962598D01*
X128247776Y-76980777D01*
X128229597Y-76997253D01*
X128209892Y-77011867D01*
X128188848Y-77024480D01*
X128166670Y-77034970D01*
X128143570Y-77043235D01*
X128119772Y-77049196D01*
X128095503Y-77052796D01*
X128070999Y-77054000D01*
X126770999Y-77054000D01*
X126746495Y-77052796D01*
X126722226Y-77049196D01*
X126698428Y-77043235D01*
X126675328Y-77034970D01*
X126653150Y-77024480D01*
X126632106Y-77011867D01*
X126612401Y-76997253D01*
X126594222Y-76980777D01*
X126577746Y-76962598D01*
X126563132Y-76942893D01*
X126550519Y-76921849D01*
X126540029Y-76899671D01*
X126531764Y-76876571D01*
X126525803Y-76852773D01*
X126522203Y-76828504D01*
X126520999Y-76804000D01*
X126520999Y-76304000D01*
X126522203Y-76279496D01*
X126525803Y-76255227D01*
X126531764Y-76231429D01*
X126540029Y-76208329D01*
X126550519Y-76186151D01*
X126563132Y-76165107D01*
X126577746Y-76145402D01*
X126594222Y-76127223D01*
X126612401Y-76110747D01*
X126632106Y-76096133D01*
X126653150Y-76083520D01*
X126675328Y-76073030D01*
X126698428Y-76064765D01*
X126722226Y-76058804D01*
X126746495Y-76055204D01*
X126770999Y-76054000D01*
X128070999Y-76054000D01*
X128095503Y-76055204D01*
G37*
G04 #@! TD.AperFunction*
G04 #@! TA.AperFunction,SMDPad,CuDef*
G36*
X128095503Y-74555204D02*
G01*
X128119772Y-74558804D01*
X128143570Y-74564765D01*
X128166670Y-74573030D01*
X128188848Y-74583520D01*
X128209892Y-74596133D01*
X128229597Y-74610747D01*
X128247776Y-74627223D01*
X128264252Y-74645402D01*
X128278866Y-74665107D01*
X128291479Y-74686151D01*
X128301969Y-74708329D01*
X128310234Y-74731429D01*
X128316195Y-74755227D01*
X128319795Y-74779496D01*
X128320999Y-74804000D01*
X128320999Y-75304000D01*
X128319795Y-75328504D01*
X128316195Y-75352773D01*
X128310234Y-75376571D01*
X128301969Y-75399671D01*
X128291479Y-75421849D01*
X128278866Y-75442893D01*
X128264252Y-75462598D01*
X128247776Y-75480777D01*
X128229597Y-75497253D01*
X128209892Y-75511867D01*
X128188848Y-75524480D01*
X128166670Y-75534970D01*
X128143570Y-75543235D01*
X128119772Y-75549196D01*
X128095503Y-75552796D01*
X128070999Y-75554000D01*
X126770999Y-75554000D01*
X126746495Y-75552796D01*
X126722226Y-75549196D01*
X126698428Y-75543235D01*
X126675328Y-75534970D01*
X126653150Y-75524480D01*
X126632106Y-75511867D01*
X126612401Y-75497253D01*
X126594222Y-75480777D01*
X126577746Y-75462598D01*
X126563132Y-75442893D01*
X126550519Y-75421849D01*
X126540029Y-75399671D01*
X126531764Y-75376571D01*
X126525803Y-75352773D01*
X126522203Y-75328504D01*
X126520999Y-75304000D01*
X126520999Y-74804000D01*
X126522203Y-74779496D01*
X126525803Y-74755227D01*
X126531764Y-74731429D01*
X126540029Y-74708329D01*
X126550519Y-74686151D01*
X126563132Y-74665107D01*
X126577746Y-74645402D01*
X126594222Y-74627223D01*
X126612401Y-74610747D01*
X126632106Y-74596133D01*
X126653150Y-74583520D01*
X126675328Y-74573030D01*
X126698428Y-74564765D01*
X126722226Y-74558804D01*
X126746495Y-74555204D01*
X126770999Y-74554000D01*
X128070999Y-74554000D01*
X128095503Y-74555204D01*
G37*
G04 #@! TD.AperFunction*
G04 #@! TA.AperFunction,SMDPad,CuDef*
G36*
X128095503Y-73055204D02*
G01*
X128119772Y-73058804D01*
X128143570Y-73064765D01*
X128166670Y-73073030D01*
X128188848Y-73083520D01*
X128209892Y-73096133D01*
X128229597Y-73110747D01*
X128247776Y-73127223D01*
X128264252Y-73145402D01*
X128278866Y-73165107D01*
X128291479Y-73186151D01*
X128301969Y-73208329D01*
X128310234Y-73231429D01*
X128316195Y-73255227D01*
X128319795Y-73279496D01*
X128320999Y-73304000D01*
X128320999Y-73804000D01*
X128319795Y-73828504D01*
X128316195Y-73852773D01*
X128310234Y-73876571D01*
X128301969Y-73899671D01*
X128291479Y-73921849D01*
X128278866Y-73942893D01*
X128264252Y-73962598D01*
X128247776Y-73980777D01*
X128229597Y-73997253D01*
X128209892Y-74011867D01*
X128188848Y-74024480D01*
X128166670Y-74034970D01*
X128143570Y-74043235D01*
X128119772Y-74049196D01*
X128095503Y-74052796D01*
X128070999Y-74054000D01*
X126770999Y-74054000D01*
X126746495Y-74052796D01*
X126722226Y-74049196D01*
X126698428Y-74043235D01*
X126675328Y-74034970D01*
X126653150Y-74024480D01*
X126632106Y-74011867D01*
X126612401Y-73997253D01*
X126594222Y-73980777D01*
X126577746Y-73962598D01*
X126563132Y-73942893D01*
X126550519Y-73921849D01*
X126540029Y-73899671D01*
X126531764Y-73876571D01*
X126525803Y-73852773D01*
X126522203Y-73828504D01*
X126520999Y-73804000D01*
X126520999Y-73304000D01*
X126522203Y-73279496D01*
X126525803Y-73255227D01*
X126531764Y-73231429D01*
X126540029Y-73208329D01*
X126550519Y-73186151D01*
X126563132Y-73165107D01*
X126577746Y-73145402D01*
X126594222Y-73127223D01*
X126612401Y-73110747D01*
X126632106Y-73096133D01*
X126653150Y-73083520D01*
X126675328Y-73073030D01*
X126698428Y-73064765D01*
X126722226Y-73058804D01*
X126746495Y-73055204D01*
X126770999Y-73054000D01*
X128070999Y-73054000D01*
X128095503Y-73055204D01*
G37*
G04 #@! TD.AperFunction*
G04 #@! TA.AperFunction,SMDPad,CuDef*
G36*
X128095503Y-71555204D02*
G01*
X128119772Y-71558804D01*
X128143570Y-71564765D01*
X128166670Y-71573030D01*
X128188848Y-71583520D01*
X128209892Y-71596133D01*
X128229597Y-71610747D01*
X128247776Y-71627223D01*
X128264252Y-71645402D01*
X128278866Y-71665107D01*
X128291479Y-71686151D01*
X128301969Y-71708329D01*
X128310234Y-71731429D01*
X128316195Y-71755227D01*
X128319795Y-71779496D01*
X128320999Y-71804000D01*
X128320999Y-72304000D01*
X128319795Y-72328504D01*
X128316195Y-72352773D01*
X128310234Y-72376571D01*
X128301969Y-72399671D01*
X128291479Y-72421849D01*
X128278866Y-72442893D01*
X128264252Y-72462598D01*
X128247776Y-72480777D01*
X128229597Y-72497253D01*
X128209892Y-72511867D01*
X128188848Y-72524480D01*
X128166670Y-72534970D01*
X128143570Y-72543235D01*
X128119772Y-72549196D01*
X128095503Y-72552796D01*
X128070999Y-72554000D01*
X126770999Y-72554000D01*
X126746495Y-72552796D01*
X126722226Y-72549196D01*
X126698428Y-72543235D01*
X126675328Y-72534970D01*
X126653150Y-72524480D01*
X126632106Y-72511867D01*
X126612401Y-72497253D01*
X126594222Y-72480777D01*
X126577746Y-72462598D01*
X126563132Y-72442893D01*
X126550519Y-72421849D01*
X126540029Y-72399671D01*
X126531764Y-72376571D01*
X126525803Y-72352773D01*
X126522203Y-72328504D01*
X126520999Y-72304000D01*
X126520999Y-71804000D01*
X126522203Y-71779496D01*
X126525803Y-71755227D01*
X126531764Y-71731429D01*
X126540029Y-71708329D01*
X126550519Y-71686151D01*
X126563132Y-71665107D01*
X126577746Y-71645402D01*
X126594222Y-71627223D01*
X126612401Y-71610747D01*
X126632106Y-71596133D01*
X126653150Y-71583520D01*
X126675328Y-71573030D01*
X126698428Y-71564765D01*
X126722226Y-71558804D01*
X126746495Y-71555204D01*
X126770999Y-71554000D01*
X128070999Y-71554000D01*
X128095503Y-71555204D01*
G37*
G04 #@! TD.AperFunction*
G04 #@! TA.AperFunction,SMDPad,CuDef*
G36*
X128095503Y-70055204D02*
G01*
X128119772Y-70058804D01*
X128143570Y-70064765D01*
X128166670Y-70073030D01*
X128188848Y-70083520D01*
X128209892Y-70096133D01*
X128229597Y-70110747D01*
X128247776Y-70127223D01*
X128264252Y-70145402D01*
X128278866Y-70165107D01*
X128291479Y-70186151D01*
X128301969Y-70208329D01*
X128310234Y-70231429D01*
X128316195Y-70255227D01*
X128319795Y-70279496D01*
X128320999Y-70304000D01*
X128320999Y-70804000D01*
X128319795Y-70828504D01*
X128316195Y-70852773D01*
X128310234Y-70876571D01*
X128301969Y-70899671D01*
X128291479Y-70921849D01*
X128278866Y-70942893D01*
X128264252Y-70962598D01*
X128247776Y-70980777D01*
X128229597Y-70997253D01*
X128209892Y-71011867D01*
X128188848Y-71024480D01*
X128166670Y-71034970D01*
X128143570Y-71043235D01*
X128119772Y-71049196D01*
X128095503Y-71052796D01*
X128070999Y-71054000D01*
X126770999Y-71054000D01*
X126746495Y-71052796D01*
X126722226Y-71049196D01*
X126698428Y-71043235D01*
X126675328Y-71034970D01*
X126653150Y-71024480D01*
X126632106Y-71011867D01*
X126612401Y-70997253D01*
X126594222Y-70980777D01*
X126577746Y-70962598D01*
X126563132Y-70942893D01*
X126550519Y-70921849D01*
X126540029Y-70899671D01*
X126531764Y-70876571D01*
X126525803Y-70852773D01*
X126522203Y-70828504D01*
X126520999Y-70804000D01*
X126520999Y-70304000D01*
X126522203Y-70279496D01*
X126525803Y-70255227D01*
X126531764Y-70231429D01*
X126540029Y-70208329D01*
X126550519Y-70186151D01*
X126563132Y-70165107D01*
X126577746Y-70145402D01*
X126594222Y-70127223D01*
X126612401Y-70110747D01*
X126632106Y-70096133D01*
X126653150Y-70083520D01*
X126675328Y-70073030D01*
X126698428Y-70064765D01*
X126722226Y-70058804D01*
X126746495Y-70055204D01*
X126770999Y-70054000D01*
X128070999Y-70054000D01*
X128095503Y-70055204D01*
G37*
G04 #@! TD.AperFunction*
G04 #@! TA.AperFunction,SMDPad,CuDef*
G36*
X128095503Y-68555204D02*
G01*
X128119772Y-68558804D01*
X128143570Y-68564765D01*
X128166670Y-68573030D01*
X128188848Y-68583520D01*
X128209892Y-68596133D01*
X128229597Y-68610747D01*
X128247776Y-68627223D01*
X128264252Y-68645402D01*
X128278866Y-68665107D01*
X128291479Y-68686151D01*
X128301969Y-68708329D01*
X128310234Y-68731429D01*
X128316195Y-68755227D01*
X128319795Y-68779496D01*
X128320999Y-68804000D01*
X128320999Y-69304000D01*
X128319795Y-69328504D01*
X128316195Y-69352773D01*
X128310234Y-69376571D01*
X128301969Y-69399671D01*
X128291479Y-69421849D01*
X128278866Y-69442893D01*
X128264252Y-69462598D01*
X128247776Y-69480777D01*
X128229597Y-69497253D01*
X128209892Y-69511867D01*
X128188848Y-69524480D01*
X128166670Y-69534970D01*
X128143570Y-69543235D01*
X128119772Y-69549196D01*
X128095503Y-69552796D01*
X128070999Y-69554000D01*
X126770999Y-69554000D01*
X126746495Y-69552796D01*
X126722226Y-69549196D01*
X126698428Y-69543235D01*
X126675328Y-69534970D01*
X126653150Y-69524480D01*
X126632106Y-69511867D01*
X126612401Y-69497253D01*
X126594222Y-69480777D01*
X126577746Y-69462598D01*
X126563132Y-69442893D01*
X126550519Y-69421849D01*
X126540029Y-69399671D01*
X126531764Y-69376571D01*
X126525803Y-69352773D01*
X126522203Y-69328504D01*
X126520999Y-69304000D01*
X126520999Y-68804000D01*
X126522203Y-68779496D01*
X126525803Y-68755227D01*
X126531764Y-68731429D01*
X126540029Y-68708329D01*
X126550519Y-68686151D01*
X126563132Y-68665107D01*
X126577746Y-68645402D01*
X126594222Y-68627223D01*
X126612401Y-68610747D01*
X126632106Y-68596133D01*
X126653150Y-68583520D01*
X126675328Y-68573030D01*
X126698428Y-68564765D01*
X126722226Y-68558804D01*
X126746495Y-68555204D01*
X126770999Y-68554000D01*
X128070999Y-68554000D01*
X128095503Y-68555204D01*
G37*
G04 #@! TD.AperFunction*
G04 #@! TA.AperFunction,SMDPad,CuDef*
G36*
X128095503Y-67055204D02*
G01*
X128119772Y-67058804D01*
X128143570Y-67064765D01*
X128166670Y-67073030D01*
X128188848Y-67083520D01*
X128209892Y-67096133D01*
X128229597Y-67110747D01*
X128247776Y-67127223D01*
X128264252Y-67145402D01*
X128278866Y-67165107D01*
X128291479Y-67186151D01*
X128301969Y-67208329D01*
X128310234Y-67231429D01*
X128316195Y-67255227D01*
X128319795Y-67279496D01*
X128320999Y-67304000D01*
X128320999Y-67804000D01*
X128319795Y-67828504D01*
X128316195Y-67852773D01*
X128310234Y-67876571D01*
X128301969Y-67899671D01*
X128291479Y-67921849D01*
X128278866Y-67942893D01*
X128264252Y-67962598D01*
X128247776Y-67980777D01*
X128229597Y-67997253D01*
X128209892Y-68011867D01*
X128188848Y-68024480D01*
X128166670Y-68034970D01*
X128143570Y-68043235D01*
X128119772Y-68049196D01*
X128095503Y-68052796D01*
X128070999Y-68054000D01*
X126770999Y-68054000D01*
X126746495Y-68052796D01*
X126722226Y-68049196D01*
X126698428Y-68043235D01*
X126675328Y-68034970D01*
X126653150Y-68024480D01*
X126632106Y-68011867D01*
X126612401Y-67997253D01*
X126594222Y-67980777D01*
X126577746Y-67962598D01*
X126563132Y-67942893D01*
X126550519Y-67921849D01*
X126540029Y-67899671D01*
X126531764Y-67876571D01*
X126525803Y-67852773D01*
X126522203Y-67828504D01*
X126520999Y-67804000D01*
X126520999Y-67304000D01*
X126522203Y-67279496D01*
X126525803Y-67255227D01*
X126531764Y-67231429D01*
X126540029Y-67208329D01*
X126550519Y-67186151D01*
X126563132Y-67165107D01*
X126577746Y-67145402D01*
X126594222Y-67127223D01*
X126612401Y-67110747D01*
X126632106Y-67096133D01*
X126653150Y-67083520D01*
X126675328Y-67073030D01*
X126698428Y-67064765D01*
X126722226Y-67058804D01*
X126746495Y-67055204D01*
X126770999Y-67054000D01*
X128070999Y-67054000D01*
X128095503Y-67055204D01*
G37*
G04 #@! TD.AperFunction*
D13*
X130175000Y-67564000D03*
X130175000Y-69088000D03*
X128651000Y-89789000D03*
X139192000Y-89789000D03*
X133477000Y-81407000D03*
X133477000Y-77597000D03*
X129159000Y-85471000D03*
X138557000Y-85471000D03*
X125857000Y-68326000D03*
X141732000Y-68326000D03*
X133223000Y-68834000D03*
X138303000Y-72771000D03*
X130429000Y-71120000D03*
X129286000Y-77978000D03*
X129032000Y-80772000D03*
X130429000Y-85090000D03*
X138430000Y-76073000D03*
X135128000Y-84328000D03*
X134874000Y-82169000D03*
X128651000Y-83820000D03*
X131572000Y-89789000D03*
D14*
X127430999Y-67564000D02*
X127420999Y-67554000D01*
X130175000Y-67564000D02*
X127430999Y-67564000D01*
X127454999Y-69088000D02*
X127420999Y-69054000D01*
X130175000Y-69088000D02*
X127454999Y-69088000D01*
X135128000Y-82423000D02*
X134874000Y-82169000D01*
X135128000Y-84328000D02*
X135128000Y-82423000D01*
D15*
X128036000Y-84054000D02*
X127420999Y-84054000D01*
X128651000Y-83820000D02*
X128036000Y-84054000D01*
X137228580Y-92598240D02*
X137228580Y-90873580D01*
X137228580Y-90873580D02*
X136144000Y-89789000D01*
X136144000Y-89789000D02*
X131572000Y-89789000D01*
D16*
G36*
X125950527Y-66964150D02*
G01*
X125899991Y-67130746D01*
X125882927Y-67304000D01*
X125882927Y-67804000D01*
X125899991Y-67977254D01*
X125950527Y-68143850D01*
X126032594Y-68297386D01*
X126038022Y-68304000D01*
X126032594Y-68310614D01*
X125950527Y-68464150D01*
X125899991Y-68630746D01*
X125882927Y-68804000D01*
X125882927Y-69304000D01*
X125899991Y-69477254D01*
X125950527Y-69643850D01*
X126032594Y-69797386D01*
X126038022Y-69804000D01*
X126032594Y-69810614D01*
X125950527Y-69964150D01*
X125899991Y-70130746D01*
X125882927Y-70304000D01*
X125882927Y-70804000D01*
X125899991Y-70977254D01*
X125950527Y-71143850D01*
X126032594Y-71297386D01*
X126038022Y-71304000D01*
X126032594Y-71310614D01*
X125950527Y-71464150D01*
X125899991Y-71630746D01*
X125882927Y-71804000D01*
X125882927Y-72304000D01*
X125899991Y-72477254D01*
X125950527Y-72643850D01*
X126032594Y-72797386D01*
X126038022Y-72804000D01*
X126032594Y-72810614D01*
X125950527Y-72964150D01*
X125899991Y-73130746D01*
X125882927Y-73304000D01*
X125882927Y-73804000D01*
X125899991Y-73977254D01*
X125950527Y-74143850D01*
X126032594Y-74297386D01*
X126038022Y-74304000D01*
X126032594Y-74310614D01*
X125950527Y-74464150D01*
X125899991Y-74630746D01*
X125882927Y-74804000D01*
X125882927Y-75304000D01*
X125899991Y-75477254D01*
X125950527Y-75643850D01*
X126032594Y-75797386D01*
X126038022Y-75804000D01*
X126032594Y-75810614D01*
X125950527Y-75964150D01*
X125899991Y-76130746D01*
X125882927Y-76304000D01*
X125882927Y-76804000D01*
X125899991Y-76977254D01*
X125950527Y-77143850D01*
X126032594Y-77297386D01*
X126038022Y-77304000D01*
X126032594Y-77310614D01*
X125950527Y-77464150D01*
X125899991Y-77630746D01*
X125882927Y-77804000D01*
X125882927Y-78304000D01*
X125899991Y-78477254D01*
X125950527Y-78643850D01*
X126032594Y-78797386D01*
X126038022Y-78804000D01*
X126032594Y-78810614D01*
X125950527Y-78964150D01*
X125899991Y-79130746D01*
X125882927Y-79304000D01*
X125882927Y-79804000D01*
X125899991Y-79977254D01*
X125950527Y-80143850D01*
X126032594Y-80297386D01*
X126038022Y-80304000D01*
X126032594Y-80310614D01*
X125950527Y-80464150D01*
X125899991Y-80630746D01*
X125882927Y-80804000D01*
X125882927Y-81304000D01*
X125899991Y-81477254D01*
X125950527Y-81643850D01*
X126032594Y-81797386D01*
X126038022Y-81804000D01*
X126032594Y-81810614D01*
X125950527Y-81964150D01*
X125899991Y-82130746D01*
X125882927Y-82304000D01*
X125882927Y-82804000D01*
X125899991Y-82977254D01*
X125950527Y-83143850D01*
X126032594Y-83297386D01*
X126038022Y-83304000D01*
X126032594Y-83310614D01*
X125950527Y-83464150D01*
X125899991Y-83630746D01*
X125882927Y-83804000D01*
X125882927Y-84304000D01*
X125899991Y-84477254D01*
X125950527Y-84643850D01*
X125985369Y-84709034D01*
X125931497Y-84809820D01*
X125895187Y-84929518D01*
X125882927Y-85054000D01*
X125885999Y-85268250D01*
X126044749Y-85427000D01*
X127293999Y-85427000D01*
X127293999Y-85407000D01*
X127547999Y-85407000D01*
X127547999Y-85427000D01*
X128797249Y-85427000D01*
X128955999Y-85268250D01*
X128959071Y-85054000D01*
X128946811Y-84929518D01*
X128914460Y-84822872D01*
X128952898Y-84815226D01*
X129141256Y-84737205D01*
X129310774Y-84623937D01*
X129454937Y-84479774D01*
X129568205Y-84310256D01*
X129646226Y-84121898D01*
X129686000Y-83921939D01*
X129686000Y-83718061D01*
X129646226Y-83518102D01*
X129568205Y-83329744D01*
X129454937Y-83160226D01*
X129310774Y-83016063D01*
X129141256Y-82902795D01*
X128956863Y-82826416D01*
X128959071Y-82804000D01*
X128959071Y-82304000D01*
X128942007Y-82130746D01*
X128922689Y-82067061D01*
X133839000Y-82067061D01*
X133839000Y-82270939D01*
X133878774Y-82470898D01*
X133956795Y-82659256D01*
X134070063Y-82828774D01*
X134214226Y-82972937D01*
X134368001Y-83075686D01*
X134368000Y-83624289D01*
X134324063Y-83668226D01*
X134210795Y-83837744D01*
X134132774Y-84026102D01*
X134093000Y-84226061D01*
X134093000Y-84429939D01*
X134132774Y-84629898D01*
X134210795Y-84818256D01*
X134324063Y-84987774D01*
X134468226Y-85131937D01*
X134637744Y-85245205D01*
X134826102Y-85323226D01*
X135026061Y-85363000D01*
X135229939Y-85363000D01*
X135429898Y-85323226D01*
X135618256Y-85245205D01*
X135787774Y-85131937D01*
X135931937Y-84987774D01*
X136045205Y-84818256D01*
X136123226Y-84629898D01*
X136163000Y-84429939D01*
X136163000Y-84226061D01*
X136123226Y-84026102D01*
X136045205Y-83837744D01*
X135931937Y-83668226D01*
X135888000Y-83624289D01*
X135888000Y-82460322D01*
X135891676Y-82422999D01*
X135888000Y-82385676D01*
X135888000Y-82385667D01*
X135887397Y-82379545D01*
X135909000Y-82270939D01*
X135909000Y-82067061D01*
X135869226Y-81867102D01*
X135791205Y-81678744D01*
X135677937Y-81509226D01*
X135533774Y-81365063D01*
X135364256Y-81251795D01*
X135175898Y-81173774D01*
X134975939Y-81134000D01*
X134772061Y-81134000D01*
X134572102Y-81173774D01*
X134383744Y-81251795D01*
X134214226Y-81365063D01*
X134070063Y-81509226D01*
X133956795Y-81678744D01*
X133878774Y-81867102D01*
X133839000Y-82067061D01*
X128922689Y-82067061D01*
X128891471Y-81964150D01*
X128809404Y-81810614D01*
X128803976Y-81804000D01*
X128809404Y-81797386D01*
X128891471Y-81643850D01*
X128942007Y-81477254D01*
X128959071Y-81304000D01*
X128959071Y-80804000D01*
X128942007Y-80630746D01*
X128891471Y-80464150D01*
X128809404Y-80310614D01*
X128803976Y-80304000D01*
X128809404Y-80297386D01*
X128891471Y-80143850D01*
X128942007Y-79977254D01*
X128959071Y-79804000D01*
X128959071Y-79304000D01*
X128942007Y-79130746D01*
X128891471Y-78964150D01*
X128809404Y-78810614D01*
X128803976Y-78804000D01*
X128809404Y-78797386D01*
X128891471Y-78643850D01*
X128942007Y-78477254D01*
X128959071Y-78304000D01*
X128959071Y-77804000D01*
X128942007Y-77630746D01*
X128891471Y-77464150D01*
X128809404Y-77310614D01*
X128803976Y-77304000D01*
X128809404Y-77297386D01*
X128891471Y-77143850D01*
X128942007Y-76977254D01*
X128959071Y-76804000D01*
X128959071Y-76304000D01*
X128942007Y-76130746D01*
X128891471Y-75964150D01*
X128809404Y-75810614D01*
X128803976Y-75804000D01*
X128809404Y-75797386D01*
X128891471Y-75643850D01*
X128942007Y-75477254D01*
X128959071Y-75304000D01*
X128959071Y-74804000D01*
X128942007Y-74630746D01*
X128891471Y-74464150D01*
X128809404Y-74310614D01*
X128803976Y-74304000D01*
X128809404Y-74297386D01*
X128891471Y-74143850D01*
X128942007Y-73977254D01*
X128959071Y-73804000D01*
X128959071Y-73304000D01*
X128942007Y-73130746D01*
X128891471Y-72964150D01*
X128809404Y-72810614D01*
X128803976Y-72804000D01*
X128809404Y-72797386D01*
X128891471Y-72643850D01*
X128942007Y-72477254D01*
X128959071Y-72304000D01*
X128959071Y-71804000D01*
X128942007Y-71630746D01*
X128891471Y-71464150D01*
X128809404Y-71310614D01*
X128803976Y-71304000D01*
X128809404Y-71297386D01*
X128891471Y-71143850D01*
X128942007Y-70977254D01*
X128959071Y-70804000D01*
X128959071Y-70304000D01*
X128942007Y-70130746D01*
X128891471Y-69964150D01*
X128829387Y-69848000D01*
X129471289Y-69848000D01*
X129515226Y-69891937D01*
X129684744Y-70005205D01*
X129873102Y-70083226D01*
X130073061Y-70123000D01*
X130276939Y-70123000D01*
X130476898Y-70083226D01*
X130665256Y-70005205D01*
X130834774Y-69891937D01*
X130978937Y-69747774D01*
X131092205Y-69578256D01*
X131170226Y-69389898D01*
X131210000Y-69189939D01*
X131210000Y-68986061D01*
X131170226Y-68786102D01*
X131092205Y-68597744D01*
X130978937Y-68428226D01*
X130876711Y-68326000D01*
X130978937Y-68223774D01*
X131092205Y-68054256D01*
X131170226Y-67865898D01*
X131210000Y-67665939D01*
X131210000Y-67462061D01*
X131170226Y-67262102D01*
X131092205Y-67073744D01*
X130995490Y-66929000D01*
X138719315Y-66929000D01*
X138700527Y-66964150D01*
X138649991Y-67130746D01*
X138632927Y-67304000D01*
X138632927Y-67804000D01*
X138649991Y-67977254D01*
X138700527Y-68143850D01*
X138782594Y-68297386D01*
X138788022Y-68304000D01*
X138782594Y-68310614D01*
X138700527Y-68464150D01*
X138649991Y-68630746D01*
X138632927Y-68804000D01*
X138632927Y-69304000D01*
X138649991Y-69477254D01*
X138700527Y-69643850D01*
X138782594Y-69797386D01*
X138788022Y-69804000D01*
X138782594Y-69810614D01*
X138700527Y-69964150D01*
X138649991Y-70130746D01*
X138632927Y-70304000D01*
X138632927Y-70804000D01*
X138649991Y-70977254D01*
X138700527Y-71143850D01*
X138782594Y-71297386D01*
X138788022Y-71304000D01*
X138782594Y-71310614D01*
X138700527Y-71464150D01*
X138649991Y-71630746D01*
X138632927Y-71804000D01*
X138632927Y-72304000D01*
X138649991Y-72477254D01*
X138700527Y-72643850D01*
X138782594Y-72797386D01*
X138788022Y-72804000D01*
X138782594Y-72810614D01*
X138700527Y-72964150D01*
X138649991Y-73130746D01*
X138632927Y-73304000D01*
X138632927Y-73804000D01*
X138649991Y-73977254D01*
X138700527Y-74143850D01*
X138782594Y-74297386D01*
X138788022Y-74304000D01*
X138782594Y-74310614D01*
X138700527Y-74464150D01*
X138649991Y-74630746D01*
X138632927Y-74804000D01*
X138632927Y-75304000D01*
X138649991Y-75477254D01*
X138700527Y-75643850D01*
X138782594Y-75797386D01*
X138788022Y-75804000D01*
X138782594Y-75810614D01*
X138700527Y-75964150D01*
X138649991Y-76130746D01*
X138632927Y-76304000D01*
X138632927Y-76804000D01*
X138649991Y-76977254D01*
X138700527Y-77143850D01*
X138782594Y-77297386D01*
X138788022Y-77304000D01*
X138782594Y-77310614D01*
X138700527Y-77464150D01*
X138649991Y-77630746D01*
X138632927Y-77804000D01*
X138632927Y-78304000D01*
X138649991Y-78477254D01*
X138700527Y-78643850D01*
X138782594Y-78797386D01*
X138788022Y-78804000D01*
X138782594Y-78810614D01*
X138700527Y-78964150D01*
X138649991Y-79130746D01*
X138632927Y-79304000D01*
X138632927Y-79804000D01*
X138649991Y-79977254D01*
X138700527Y-80143850D01*
X138782594Y-80297386D01*
X138788022Y-80304000D01*
X138782594Y-80310614D01*
X138700527Y-80464150D01*
X138649991Y-80630746D01*
X138632927Y-80804000D01*
X138632927Y-81304000D01*
X138649991Y-81477254D01*
X138700527Y-81643850D01*
X138782594Y-81797386D01*
X138788022Y-81804000D01*
X138782594Y-81810614D01*
X138700527Y-81964150D01*
X138649991Y-82130746D01*
X138632927Y-82304000D01*
X138632927Y-82804000D01*
X138649991Y-82977254D01*
X138700527Y-83143850D01*
X138782594Y-83297386D01*
X138788022Y-83304000D01*
X138782594Y-83310614D01*
X138700527Y-83464150D01*
X138649991Y-83630746D01*
X138632927Y-83804000D01*
X138632927Y-84304000D01*
X138649991Y-84477254D01*
X138700527Y-84643850D01*
X138735369Y-84709034D01*
X138681497Y-84809820D01*
X138645187Y-84929518D01*
X138632927Y-85054000D01*
X138635999Y-85268250D01*
X138794749Y-85427000D01*
X140043999Y-85427000D01*
X140043999Y-85407000D01*
X140297999Y-85407000D01*
X140297999Y-85427000D01*
X141547249Y-85427000D01*
X141705999Y-85268250D01*
X141709071Y-85054000D01*
X141696811Y-84929518D01*
X141660501Y-84809820D01*
X141606629Y-84709034D01*
X141641471Y-84643850D01*
X141692007Y-84477254D01*
X141709071Y-84304000D01*
X141709071Y-83804000D01*
X141692007Y-83630746D01*
X141641471Y-83464150D01*
X141559404Y-83310614D01*
X141553976Y-83304000D01*
X141559404Y-83297386D01*
X141641471Y-83143850D01*
X141692007Y-82977254D01*
X141709071Y-82804000D01*
X141709071Y-82304000D01*
X141692007Y-82130746D01*
X141641471Y-81964150D01*
X141559404Y-81810614D01*
X141553976Y-81804000D01*
X141559404Y-81797386D01*
X141641471Y-81643850D01*
X141692007Y-81477254D01*
X141709071Y-81304000D01*
X141709071Y-80804000D01*
X141692007Y-80630746D01*
X141641471Y-80464150D01*
X141559404Y-80310614D01*
X141553976Y-80304000D01*
X141559404Y-80297386D01*
X141641471Y-80143850D01*
X141692007Y-79977254D01*
X141709071Y-79804000D01*
X141709071Y-79304000D01*
X141692007Y-79130746D01*
X141641471Y-78964150D01*
X141559404Y-78810614D01*
X141553976Y-78804000D01*
X141559404Y-78797386D01*
X141641471Y-78643850D01*
X141692007Y-78477254D01*
X141709071Y-78304000D01*
X141709071Y-77804000D01*
X141692007Y-77630746D01*
X141641471Y-77464150D01*
X141559404Y-77310614D01*
X141553976Y-77304000D01*
X141559404Y-77297386D01*
X141641471Y-77143850D01*
X141692007Y-76977254D01*
X141709071Y-76804000D01*
X141709071Y-76304000D01*
X141692007Y-76130746D01*
X141641471Y-75964150D01*
X141559404Y-75810614D01*
X141553976Y-75804000D01*
X141559404Y-75797386D01*
X141641471Y-75643850D01*
X141692007Y-75477254D01*
X141709071Y-75304000D01*
X141709071Y-74804000D01*
X141692007Y-74630746D01*
X141641471Y-74464150D01*
X141559404Y-74310614D01*
X141553976Y-74304000D01*
X141559404Y-74297386D01*
X141641471Y-74143850D01*
X141692007Y-73977254D01*
X141709071Y-73804000D01*
X141709071Y-73304000D01*
X141692007Y-73130746D01*
X141641471Y-72964150D01*
X141559404Y-72810614D01*
X141553976Y-72804000D01*
X141559404Y-72797386D01*
X141641471Y-72643850D01*
X141692007Y-72477254D01*
X141709071Y-72304000D01*
X141709071Y-71804000D01*
X141692007Y-71630746D01*
X141641471Y-71464150D01*
X141559404Y-71310614D01*
X141553976Y-71304000D01*
X141559404Y-71297386D01*
X141641471Y-71143850D01*
X141692007Y-70977254D01*
X141709071Y-70804000D01*
X141709071Y-70304000D01*
X141692007Y-70130746D01*
X141641471Y-69964150D01*
X141559404Y-69810614D01*
X141553976Y-69804000D01*
X141559404Y-69797386D01*
X141641471Y-69643850D01*
X141692007Y-69477254D01*
X141709071Y-69304000D01*
X141709071Y-68804000D01*
X141692007Y-68630746D01*
X141641471Y-68464150D01*
X141559404Y-68310614D01*
X141553976Y-68304000D01*
X141559404Y-68297386D01*
X141641471Y-68143850D01*
X141692007Y-67977254D01*
X141709071Y-67804000D01*
X141709071Y-67304000D01*
X141692007Y-67130746D01*
X141641471Y-66964150D01*
X141622683Y-66929000D01*
X141834000Y-66929000D01*
X141834001Y-95852711D01*
X141804766Y-96150876D01*
X141727551Y-96406624D01*
X141602131Y-96642504D01*
X141433289Y-96849525D01*
X141227446Y-97019813D01*
X140992444Y-97146879D01*
X140737240Y-97225877D01*
X140441118Y-97257000D01*
X127032279Y-97257000D01*
X126734124Y-97227766D01*
X126478376Y-97150551D01*
X126242496Y-97025131D01*
X126035475Y-96856289D01*
X125865187Y-96650446D01*
X125818669Y-96564412D01*
X126543373Y-96564412D01*
X126712355Y-96891010D01*
X127105492Y-97092574D01*
X127530397Y-97213568D01*
X127970743Y-97249342D01*
X128409608Y-97198521D01*
X128830125Y-97063058D01*
X129152005Y-96891010D01*
X129320987Y-96564412D01*
X138141013Y-96564412D01*
X138309995Y-96891010D01*
X138703132Y-97092574D01*
X139128037Y-97213568D01*
X139568383Y-97249342D01*
X140007248Y-97198521D01*
X140427765Y-97063058D01*
X140749645Y-96891010D01*
X140918627Y-96564412D01*
X139529820Y-95175605D01*
X138141013Y-96564412D01*
X129320987Y-96564412D01*
X127932180Y-95175605D01*
X126543373Y-96564412D01*
X125818669Y-96564412D01*
X125738121Y-96415444D01*
X125659123Y-96160240D01*
X125628000Y-95864118D01*
X125628000Y-95034563D01*
X125678838Y-95034563D01*
X125729659Y-95473428D01*
X125865122Y-95893945D01*
X126037170Y-96215825D01*
X126363768Y-96384807D01*
X127752575Y-94996000D01*
X128111785Y-94996000D01*
X129500592Y-96384807D01*
X129827190Y-96215825D01*
X130028754Y-95822688D01*
X130149748Y-95397783D01*
X130185522Y-94957437D01*
X130134701Y-94518572D01*
X130020297Y-94163427D01*
X130298397Y-94179324D01*
X130605604Y-94136267D01*
X130898506Y-94034105D01*
X131057797Y-93948963D01*
X131146291Y-93690716D01*
X130233420Y-92777845D01*
X129320549Y-93690716D01*
X129345182Y-93762603D01*
X128111785Y-94996000D01*
X127752575Y-94996000D01*
X126363768Y-93607193D01*
X126037170Y-93776175D01*
X125835606Y-94169312D01*
X125714612Y-94594217D01*
X125678838Y-95034563D01*
X125628000Y-95034563D01*
X125628000Y-93427588D01*
X126543373Y-93427588D01*
X127932180Y-94816395D01*
X129320987Y-93427588D01*
X129288076Y-93363979D01*
X130053815Y-92598240D01*
X129140944Y-91685369D01*
X128882697Y-91773863D01*
X128747823Y-92053216D01*
X128670039Y-92353515D01*
X128652336Y-92663217D01*
X128682390Y-92877648D01*
X128333963Y-92778432D01*
X127893617Y-92742658D01*
X127454752Y-92793479D01*
X127034235Y-92928942D01*
X126712355Y-93100990D01*
X126543373Y-93427588D01*
X125628000Y-93427588D01*
X125628000Y-91505764D01*
X129320549Y-91505764D01*
X130233420Y-92418635D01*
X131146291Y-91505764D01*
X131057797Y-91247517D01*
X130778444Y-91112643D01*
X130478145Y-91034859D01*
X130168443Y-91017156D01*
X129861236Y-91060213D01*
X129568334Y-91162375D01*
X129409043Y-91247517D01*
X129320549Y-91505764D01*
X125628000Y-91505764D01*
X125628000Y-88204000D01*
X127532927Y-88204000D01*
X127545187Y-88328482D01*
X127581497Y-88448180D01*
X127640462Y-88558494D01*
X127719814Y-88655185D01*
X127816505Y-88734537D01*
X127926819Y-88793502D01*
X128046517Y-88829812D01*
X128170999Y-88842072D01*
X128385249Y-88839000D01*
X128543999Y-88680250D01*
X128543999Y-87431000D01*
X127694749Y-87431000D01*
X127535999Y-87589750D01*
X127532927Y-88204000D01*
X125628000Y-88204000D01*
X125628000Y-86054000D01*
X125882927Y-86054000D01*
X125895187Y-86178482D01*
X125931497Y-86298180D01*
X125990462Y-86408494D01*
X126069814Y-86505185D01*
X126166505Y-86584537D01*
X126276819Y-86643502D01*
X126396517Y-86679812D01*
X126520999Y-86692072D01*
X127135249Y-86689000D01*
X127293999Y-86530250D01*
X127293999Y-86404000D01*
X127532927Y-86404000D01*
X127535999Y-87018250D01*
X127694749Y-87177000D01*
X128543999Y-87177000D01*
X128543999Y-87157000D01*
X128797999Y-87157000D01*
X128797999Y-87177000D01*
X128817999Y-87177000D01*
X128817999Y-87431000D01*
X128797999Y-87431000D01*
X128797999Y-88680250D01*
X128956749Y-88839000D01*
X129170999Y-88842072D01*
X129295481Y-88829812D01*
X129415179Y-88793502D01*
X129515965Y-88739630D01*
X129581149Y-88774472D01*
X129747745Y-88825008D01*
X129920999Y-88842072D01*
X130420999Y-88842072D01*
X130594253Y-88825008D01*
X130760849Y-88774472D01*
X130914385Y-88692405D01*
X130920999Y-88686977D01*
X130927613Y-88692405D01*
X131081149Y-88774472D01*
X131217123Y-88815719D01*
X131081744Y-88871795D01*
X130912226Y-88985063D01*
X130768063Y-89129226D01*
X130654795Y-89298744D01*
X130576774Y-89487102D01*
X130537000Y-89687061D01*
X130537000Y-89890939D01*
X130576774Y-90090898D01*
X130654795Y-90279256D01*
X130768063Y-90448774D01*
X130912226Y-90592937D01*
X131081744Y-90706205D01*
X131270102Y-90784226D01*
X131470061Y-90824000D01*
X131673939Y-90824000D01*
X131873898Y-90784226D01*
X132019295Y-90724000D01*
X135756711Y-90724000D01*
X136293581Y-91260870D01*
X136293581Y-91328990D01*
X136224703Y-91375013D01*
X136042400Y-91557316D01*
X135860097Y-91375013D01*
X135602168Y-91202670D01*
X135315572Y-91083958D01*
X135011324Y-91023440D01*
X134701116Y-91023440D01*
X134396868Y-91083958D01*
X134110272Y-91202670D01*
X133852343Y-91375013D01*
X133731000Y-91496356D01*
X133609657Y-91375013D01*
X133351728Y-91202670D01*
X133065132Y-91083958D01*
X132760884Y-91023440D01*
X132450676Y-91023440D01*
X132146428Y-91083958D01*
X131859832Y-91202670D01*
X131601903Y-91375013D01*
X131382553Y-91594363D01*
X131313385Y-91697880D01*
X130413025Y-92598240D01*
X131313385Y-93498600D01*
X131382553Y-93602117D01*
X131601903Y-93821467D01*
X131791776Y-93948336D01*
X131599803Y-93910150D01*
X131366397Y-93910150D01*
X131137475Y-93955686D01*
X130921835Y-94045007D01*
X130727764Y-94174681D01*
X130562721Y-94339724D01*
X130433047Y-94533795D01*
X130343726Y-94749435D01*
X130298190Y-94978357D01*
X130298190Y-95211763D01*
X130343726Y-95440685D01*
X130433047Y-95656325D01*
X130562721Y-95850396D01*
X130727764Y-96015439D01*
X130921835Y-96145113D01*
X131137475Y-96234434D01*
X131366397Y-96279970D01*
X131599803Y-96279970D01*
X131828725Y-96234434D01*
X132044365Y-96145113D01*
X132238436Y-96015439D01*
X132403479Y-95850396D01*
X132533153Y-95656325D01*
X132622474Y-95440685D01*
X132668010Y-95211763D01*
X132668010Y-94978357D01*
X132622474Y-94749435D01*
X132533153Y-94533795D01*
X132403479Y-94339724D01*
X132238436Y-94174681D01*
X132143745Y-94111411D01*
X132146428Y-94112522D01*
X132450676Y-94173040D01*
X132760884Y-94173040D01*
X133065132Y-94112522D01*
X133351728Y-93993810D01*
X133609657Y-93821467D01*
X133731000Y-93700124D01*
X133852343Y-93821467D01*
X134110272Y-93993810D01*
X134396868Y-94112522D01*
X134701116Y-94173040D01*
X135011324Y-94173040D01*
X135315572Y-94112522D01*
X135318255Y-94111411D01*
X135223564Y-94174681D01*
X135058521Y-94339724D01*
X134928847Y-94533795D01*
X134839526Y-94749435D01*
X134793990Y-94978357D01*
X134793990Y-95211763D01*
X134839526Y-95440685D01*
X134928847Y-95656325D01*
X135058521Y-95850396D01*
X135223564Y-96015439D01*
X135417635Y-96145113D01*
X135633275Y-96234434D01*
X135862197Y-96279970D01*
X136095603Y-96279970D01*
X136324525Y-96234434D01*
X136540165Y-96145113D01*
X136734236Y-96015439D01*
X136899279Y-95850396D01*
X137028953Y-95656325D01*
X137118274Y-95440685D01*
X137163810Y-95211763D01*
X137163810Y-94978357D01*
X137118274Y-94749435D01*
X137028953Y-94533795D01*
X136899279Y-94339724D01*
X136734236Y-94174681D01*
X136540165Y-94045007D01*
X136324525Y-93955686D01*
X136095603Y-93910150D01*
X135862197Y-93910150D01*
X135670224Y-93948336D01*
X135860097Y-93821467D01*
X136042400Y-93639164D01*
X136224703Y-93821467D01*
X136482632Y-93993810D01*
X136769228Y-94112522D01*
X137073476Y-94173040D01*
X137383684Y-94173040D01*
X137436746Y-94162485D01*
X137433246Y-94169312D01*
X137312252Y-94594217D01*
X137276478Y-95034563D01*
X137327299Y-95473428D01*
X137462762Y-95893945D01*
X137634810Y-96215825D01*
X137961408Y-96384807D01*
X139350215Y-94996000D01*
X139709425Y-94996000D01*
X141098232Y-96384807D01*
X141424830Y-96215825D01*
X141626394Y-95822688D01*
X141747388Y-95397783D01*
X141783162Y-94957437D01*
X141732341Y-94518572D01*
X141596878Y-94098055D01*
X141424830Y-93776175D01*
X141098232Y-93607193D01*
X139709425Y-94996000D01*
X139350215Y-94996000D01*
X139336073Y-94981858D01*
X139515678Y-94802253D01*
X139529820Y-94816395D01*
X140918627Y-93427588D01*
X140749645Y-93100990D01*
X140356508Y-92899426D01*
X139931603Y-92778432D01*
X139491257Y-92742658D01*
X139052392Y-92793479D01*
X138777802Y-92881934D01*
X138803380Y-92753344D01*
X138803380Y-92443136D01*
X138742862Y-92138888D01*
X138624150Y-91852292D01*
X138451807Y-91594363D01*
X138232457Y-91375013D01*
X138163580Y-91328991D01*
X138163580Y-90919515D01*
X138168104Y-90873580D01*
X138150052Y-90690288D01*
X138118539Y-90586408D01*
X138096587Y-90514040D01*
X138009766Y-90351608D01*
X137892924Y-90209236D01*
X137857239Y-90179950D01*
X136837630Y-89160341D01*
X136808344Y-89124656D01*
X136665972Y-89007814D01*
X136503540Y-88920993D01*
X136327292Y-88867529D01*
X136189932Y-88854000D01*
X136144000Y-88849476D01*
X136098068Y-88854000D01*
X132019295Y-88854000D01*
X131977148Y-88836542D01*
X132094253Y-88825008D01*
X132260849Y-88774472D01*
X132414385Y-88692405D01*
X132420999Y-88686977D01*
X132427613Y-88692405D01*
X132581149Y-88774472D01*
X132747745Y-88825008D01*
X132920999Y-88842072D01*
X133420999Y-88842072D01*
X133594253Y-88825008D01*
X133760849Y-88774472D01*
X133914385Y-88692405D01*
X133920999Y-88686977D01*
X133927613Y-88692405D01*
X134081149Y-88774472D01*
X134247745Y-88825008D01*
X134420999Y-88842072D01*
X134920999Y-88842072D01*
X135094253Y-88825008D01*
X135260849Y-88774472D01*
X135414385Y-88692405D01*
X135420999Y-88686977D01*
X135427613Y-88692405D01*
X135581149Y-88774472D01*
X135747745Y-88825008D01*
X135920999Y-88842072D01*
X136420999Y-88842072D01*
X136594253Y-88825008D01*
X136760849Y-88774472D01*
X136914385Y-88692405D01*
X136920999Y-88686977D01*
X136927613Y-88692405D01*
X137081149Y-88774472D01*
X137247745Y-88825008D01*
X137420999Y-88842072D01*
X137920999Y-88842072D01*
X138094253Y-88825008D01*
X138260849Y-88774472D01*
X138326033Y-88739630D01*
X138426819Y-88793502D01*
X138546517Y-88829812D01*
X138670999Y-88842072D01*
X138885249Y-88839000D01*
X139043999Y-88680250D01*
X139043999Y-87431000D01*
X139297999Y-87431000D01*
X139297999Y-88680250D01*
X139456749Y-88839000D01*
X139670999Y-88842072D01*
X139795481Y-88829812D01*
X139915179Y-88793502D01*
X140025493Y-88734537D01*
X140122184Y-88655185D01*
X140201536Y-88558494D01*
X140260501Y-88448180D01*
X140296811Y-88328482D01*
X140309071Y-88204000D01*
X140305999Y-87589750D01*
X140147249Y-87431000D01*
X139297999Y-87431000D01*
X139043999Y-87431000D01*
X139023999Y-87431000D01*
X139023999Y-87177000D01*
X139043999Y-87177000D01*
X139043999Y-87157000D01*
X139297999Y-87157000D01*
X139297999Y-87177000D01*
X140147249Y-87177000D01*
X140305999Y-87018250D01*
X140308388Y-86540639D01*
X140456749Y-86689000D01*
X141070999Y-86692072D01*
X141195481Y-86679812D01*
X141315179Y-86643502D01*
X141425493Y-86584537D01*
X141522184Y-86505185D01*
X141601536Y-86408494D01*
X141660501Y-86298180D01*
X141696811Y-86178482D01*
X141709071Y-86054000D01*
X141705999Y-85839750D01*
X141547249Y-85681000D01*
X140297999Y-85681000D01*
X140297999Y-85701000D01*
X140043999Y-85701000D01*
X140043999Y-85681000D01*
X138794749Y-85681000D01*
X138709272Y-85766477D01*
X138670999Y-85765928D01*
X138546517Y-85778188D01*
X138426819Y-85814498D01*
X138326033Y-85868370D01*
X138260849Y-85833528D01*
X138094253Y-85782992D01*
X137920999Y-85765928D01*
X137420999Y-85765928D01*
X137247745Y-85782992D01*
X137081149Y-85833528D01*
X136927613Y-85915595D01*
X136920999Y-85921023D01*
X136914385Y-85915595D01*
X136760849Y-85833528D01*
X136594253Y-85782992D01*
X136420999Y-85765928D01*
X135920999Y-85765928D01*
X135747745Y-85782992D01*
X135581149Y-85833528D01*
X135427613Y-85915595D01*
X135420999Y-85921023D01*
X135414385Y-85915595D01*
X135260849Y-85833528D01*
X135094253Y-85782992D01*
X134920999Y-85765928D01*
X134420999Y-85765928D01*
X134247745Y-85782992D01*
X134081149Y-85833528D01*
X133927613Y-85915595D01*
X133920999Y-85921023D01*
X133914385Y-85915595D01*
X133760849Y-85833528D01*
X133594253Y-85782992D01*
X133420999Y-85765928D01*
X132920999Y-85765928D01*
X132747745Y-85782992D01*
X132581149Y-85833528D01*
X132427613Y-85915595D01*
X132420999Y-85921023D01*
X132414385Y-85915595D01*
X132260849Y-85833528D01*
X132094253Y-85782992D01*
X131920999Y-85765928D01*
X131420999Y-85765928D01*
X131247745Y-85782992D01*
X131081149Y-85833528D01*
X130927613Y-85915595D01*
X130920999Y-85921023D01*
X130914385Y-85915595D01*
X130760849Y-85833528D01*
X130594253Y-85782992D01*
X130420999Y-85765928D01*
X129920999Y-85765928D01*
X129747745Y-85782992D01*
X129581149Y-85833528D01*
X129515965Y-85868370D01*
X129415179Y-85814498D01*
X129295481Y-85778188D01*
X129170999Y-85765928D01*
X128956749Y-85769000D01*
X128920999Y-85804750D01*
X128797249Y-85681000D01*
X127547999Y-85681000D01*
X127547999Y-86270248D01*
X127545187Y-86279518D01*
X127532927Y-86404000D01*
X127293999Y-86404000D01*
X127293999Y-85681000D01*
X126044749Y-85681000D01*
X125885999Y-85839750D01*
X125882927Y-86054000D01*
X125628000Y-86054000D01*
X125628000Y-66929000D01*
X125969315Y-66929000D01*
X125950527Y-66964150D01*
G37*
X125950527Y-66964150D02*
X125899991Y-67130746D01*
X125882927Y-67304000D01*
X125882927Y-67804000D01*
X125899991Y-67977254D01*
X125950527Y-68143850D01*
X126032594Y-68297386D01*
X126038022Y-68304000D01*
X126032594Y-68310614D01*
X125950527Y-68464150D01*
X125899991Y-68630746D01*
X125882927Y-68804000D01*
X125882927Y-69304000D01*
X125899991Y-69477254D01*
X125950527Y-69643850D01*
X126032594Y-69797386D01*
X126038022Y-69804000D01*
X126032594Y-69810614D01*
X125950527Y-69964150D01*
X125899991Y-70130746D01*
X125882927Y-70304000D01*
X125882927Y-70804000D01*
X125899991Y-70977254D01*
X125950527Y-71143850D01*
X126032594Y-71297386D01*
X126038022Y-71304000D01*
X126032594Y-71310614D01*
X125950527Y-71464150D01*
X125899991Y-71630746D01*
X125882927Y-71804000D01*
X125882927Y-72304000D01*
X125899991Y-72477254D01*
X125950527Y-72643850D01*
X126032594Y-72797386D01*
X126038022Y-72804000D01*
X126032594Y-72810614D01*
X125950527Y-72964150D01*
X125899991Y-73130746D01*
X125882927Y-73304000D01*
X125882927Y-73804000D01*
X125899991Y-73977254D01*
X125950527Y-74143850D01*
X126032594Y-74297386D01*
X126038022Y-74304000D01*
X126032594Y-74310614D01*
X125950527Y-74464150D01*
X125899991Y-74630746D01*
X125882927Y-74804000D01*
X125882927Y-75304000D01*
X125899991Y-75477254D01*
X125950527Y-75643850D01*
X126032594Y-75797386D01*
X126038022Y-75804000D01*
X126032594Y-75810614D01*
X125950527Y-75964150D01*
X125899991Y-76130746D01*
X125882927Y-76304000D01*
X125882927Y-76804000D01*
X125899991Y-76977254D01*
X125950527Y-77143850D01*
X126032594Y-77297386D01*
X126038022Y-77304000D01*
X126032594Y-77310614D01*
X125950527Y-77464150D01*
X125899991Y-77630746D01*
X125882927Y-77804000D01*
X125882927Y-78304000D01*
X125899991Y-78477254D01*
X125950527Y-78643850D01*
X126032594Y-78797386D01*
X126038022Y-78804000D01*
X126032594Y-78810614D01*
X125950527Y-78964150D01*
X125899991Y-79130746D01*
X125882927Y-79304000D01*
X125882927Y-79804000D01*
X125899991Y-79977254D01*
X125950527Y-80143850D01*
X126032594Y-80297386D01*
X126038022Y-80304000D01*
X126032594Y-80310614D01*
X125950527Y-80464150D01*
X125899991Y-80630746D01*
X125882927Y-80804000D01*
X125882927Y-81304000D01*
X125899991Y-81477254D01*
X125950527Y-81643850D01*
X126032594Y-81797386D01*
X126038022Y-81804000D01*
X126032594Y-81810614D01*
X125950527Y-81964150D01*
X125899991Y-82130746D01*
X125882927Y-82304000D01*
X125882927Y-82804000D01*
X125899991Y-82977254D01*
X125950527Y-83143850D01*
X126032594Y-83297386D01*
X126038022Y-83304000D01*
X126032594Y-83310614D01*
X125950527Y-83464150D01*
X125899991Y-83630746D01*
X125882927Y-83804000D01*
X125882927Y-84304000D01*
X125899991Y-84477254D01*
X125950527Y-84643850D01*
X125985369Y-84709034D01*
X125931497Y-84809820D01*
X125895187Y-84929518D01*
X125882927Y-85054000D01*
X125885999Y-85268250D01*
X126044749Y-85427000D01*
X127293999Y-85427000D01*
X127293999Y-85407000D01*
X127547999Y-85407000D01*
X127547999Y-85427000D01*
X128797249Y-85427000D01*
X128955999Y-85268250D01*
X128959071Y-85054000D01*
X128946811Y-84929518D01*
X128914460Y-84822872D01*
X128952898Y-84815226D01*
X129141256Y-84737205D01*
X129310774Y-84623937D01*
X129454937Y-84479774D01*
X129568205Y-84310256D01*
X129646226Y-84121898D01*
X129686000Y-83921939D01*
X129686000Y-83718061D01*
X129646226Y-83518102D01*
X129568205Y-83329744D01*
X129454937Y-83160226D01*
X129310774Y-83016063D01*
X129141256Y-82902795D01*
X128956863Y-82826416D01*
X128959071Y-82804000D01*
X128959071Y-82304000D01*
X128942007Y-82130746D01*
X128922689Y-82067061D01*
X133839000Y-82067061D01*
X133839000Y-82270939D01*
X133878774Y-82470898D01*
X133956795Y-82659256D01*
X134070063Y-82828774D01*
X134214226Y-82972937D01*
X134368001Y-83075686D01*
X134368000Y-83624289D01*
X134324063Y-83668226D01*
X134210795Y-83837744D01*
X134132774Y-84026102D01*
X134093000Y-84226061D01*
X134093000Y-84429939D01*
X134132774Y-84629898D01*
X134210795Y-84818256D01*
X134324063Y-84987774D01*
X134468226Y-85131937D01*
X134637744Y-85245205D01*
X134826102Y-85323226D01*
X135026061Y-85363000D01*
X135229939Y-85363000D01*
X135429898Y-85323226D01*
X135618256Y-85245205D01*
X135787774Y-85131937D01*
X135931937Y-84987774D01*
X136045205Y-84818256D01*
X136123226Y-84629898D01*
X136163000Y-84429939D01*
X136163000Y-84226061D01*
X136123226Y-84026102D01*
X136045205Y-83837744D01*
X135931937Y-83668226D01*
X135888000Y-83624289D01*
X135888000Y-82460322D01*
X135891676Y-82422999D01*
X135888000Y-82385676D01*
X135888000Y-82385667D01*
X135887397Y-82379545D01*
X135909000Y-82270939D01*
X135909000Y-82067061D01*
X135869226Y-81867102D01*
X135791205Y-81678744D01*
X135677937Y-81509226D01*
X135533774Y-81365063D01*
X135364256Y-81251795D01*
X135175898Y-81173774D01*
X134975939Y-81134000D01*
X134772061Y-81134000D01*
X134572102Y-81173774D01*
X134383744Y-81251795D01*
X134214226Y-81365063D01*
X134070063Y-81509226D01*
X133956795Y-81678744D01*
X133878774Y-81867102D01*
X133839000Y-82067061D01*
X128922689Y-82067061D01*
X128891471Y-81964150D01*
X128809404Y-81810614D01*
X128803976Y-81804000D01*
X128809404Y-81797386D01*
X128891471Y-81643850D01*
X128942007Y-81477254D01*
X128959071Y-81304000D01*
X128959071Y-80804000D01*
X128942007Y-80630746D01*
X128891471Y-80464150D01*
X128809404Y-80310614D01*
X128803976Y-80304000D01*
X128809404Y-80297386D01*
X128891471Y-80143850D01*
X128942007Y-79977254D01*
X128959071Y-79804000D01*
X128959071Y-79304000D01*
X128942007Y-79130746D01*
X128891471Y-78964150D01*
X128809404Y-78810614D01*
X128803976Y-78804000D01*
X128809404Y-78797386D01*
X128891471Y-78643850D01*
X128942007Y-78477254D01*
X128959071Y-78304000D01*
X128959071Y-77804000D01*
X128942007Y-77630746D01*
X128891471Y-77464150D01*
X128809404Y-77310614D01*
X128803976Y-77304000D01*
X128809404Y-77297386D01*
X128891471Y-77143850D01*
X128942007Y-76977254D01*
X128959071Y-76804000D01*
X128959071Y-76304000D01*
X128942007Y-76130746D01*
X128891471Y-75964150D01*
X128809404Y-75810614D01*
X128803976Y-75804000D01*
X128809404Y-75797386D01*
X128891471Y-75643850D01*
X128942007Y-75477254D01*
X128959071Y-75304000D01*
X128959071Y-74804000D01*
X128942007Y-74630746D01*
X128891471Y-74464150D01*
X128809404Y-74310614D01*
X128803976Y-74304000D01*
X128809404Y-74297386D01*
X128891471Y-74143850D01*
X128942007Y-73977254D01*
X128959071Y-73804000D01*
X128959071Y-73304000D01*
X128942007Y-73130746D01*
X128891471Y-72964150D01*
X128809404Y-72810614D01*
X128803976Y-72804000D01*
X128809404Y-72797386D01*
X128891471Y-72643850D01*
X128942007Y-72477254D01*
X128959071Y-72304000D01*
X128959071Y-71804000D01*
X128942007Y-71630746D01*
X128891471Y-71464150D01*
X128809404Y-71310614D01*
X128803976Y-71304000D01*
X128809404Y-71297386D01*
X128891471Y-71143850D01*
X128942007Y-70977254D01*
X128959071Y-70804000D01*
X128959071Y-70304000D01*
X128942007Y-70130746D01*
X128891471Y-69964150D01*
X128829387Y-69848000D01*
X129471289Y-69848000D01*
X129515226Y-69891937D01*
X129684744Y-70005205D01*
X129873102Y-70083226D01*
X130073061Y-70123000D01*
X130276939Y-70123000D01*
X130476898Y-70083226D01*
X130665256Y-70005205D01*
X130834774Y-69891937D01*
X130978937Y-69747774D01*
X131092205Y-69578256D01*
X131170226Y-69389898D01*
X131210000Y-69189939D01*
X131210000Y-68986061D01*
X131170226Y-68786102D01*
X131092205Y-68597744D01*
X130978937Y-68428226D01*
X130876711Y-68326000D01*
X130978937Y-68223774D01*
X131092205Y-68054256D01*
X131170226Y-67865898D01*
X131210000Y-67665939D01*
X131210000Y-67462061D01*
X131170226Y-67262102D01*
X131092205Y-67073744D01*
X130995490Y-66929000D01*
X138719315Y-66929000D01*
X138700527Y-66964150D01*
X138649991Y-67130746D01*
X138632927Y-67304000D01*
X138632927Y-67804000D01*
X138649991Y-67977254D01*
X138700527Y-68143850D01*
X138782594Y-68297386D01*
X138788022Y-68304000D01*
X138782594Y-68310614D01*
X138700527Y-68464150D01*
X138649991Y-68630746D01*
X138632927Y-68804000D01*
X138632927Y-69304000D01*
X138649991Y-69477254D01*
X138700527Y-69643850D01*
X138782594Y-69797386D01*
X138788022Y-69804000D01*
X138782594Y-69810614D01*
X138700527Y-69964150D01*
X138649991Y-70130746D01*
X138632927Y-70304000D01*
X138632927Y-70804000D01*
X138649991Y-70977254D01*
X138700527Y-71143850D01*
X138782594Y-71297386D01*
X138788022Y-71304000D01*
X138782594Y-71310614D01*
X138700527Y-71464150D01*
X138649991Y-71630746D01*
X138632927Y-71804000D01*
X138632927Y-72304000D01*
X138649991Y-72477254D01*
X138700527Y-72643850D01*
X138782594Y-72797386D01*
X138788022Y-72804000D01*
X138782594Y-72810614D01*
X138700527Y-72964150D01*
X138649991Y-73130746D01*
X138632927Y-73304000D01*
X138632927Y-73804000D01*
X138649991Y-73977254D01*
X138700527Y-74143850D01*
X138782594Y-74297386D01*
X138788022Y-74304000D01*
X138782594Y-74310614D01*
X138700527Y-74464150D01*
X138649991Y-74630746D01*
X138632927Y-74804000D01*
X138632927Y-75304000D01*
X138649991Y-75477254D01*
X138700527Y-75643850D01*
X138782594Y-75797386D01*
X138788022Y-75804000D01*
X138782594Y-75810614D01*
X138700527Y-75964150D01*
X138649991Y-76130746D01*
X138632927Y-76304000D01*
X138632927Y-76804000D01*
X138649991Y-76977254D01*
X138700527Y-77143850D01*
X138782594Y-77297386D01*
X138788022Y-77304000D01*
X138782594Y-77310614D01*
X138700527Y-77464150D01*
X138649991Y-77630746D01*
X138632927Y-77804000D01*
X138632927Y-78304000D01*
X138649991Y-78477254D01*
X138700527Y-78643850D01*
X138782594Y-78797386D01*
X138788022Y-78804000D01*
X138782594Y-78810614D01*
X138700527Y-78964150D01*
X138649991Y-79130746D01*
X138632927Y-79304000D01*
X138632927Y-79804000D01*
X138649991Y-79977254D01*
X138700527Y-80143850D01*
X138782594Y-80297386D01*
X138788022Y-80304000D01*
X138782594Y-80310614D01*
X138700527Y-80464150D01*
X138649991Y-80630746D01*
X138632927Y-80804000D01*
X138632927Y-81304000D01*
X138649991Y-81477254D01*
X138700527Y-81643850D01*
X138782594Y-81797386D01*
X138788022Y-81804000D01*
X138782594Y-81810614D01*
X138700527Y-81964150D01*
X138649991Y-82130746D01*
X138632927Y-82304000D01*
X138632927Y-82804000D01*
X138649991Y-82977254D01*
X138700527Y-83143850D01*
X138782594Y-83297386D01*
X138788022Y-83304000D01*
X138782594Y-83310614D01*
X138700527Y-83464150D01*
X138649991Y-83630746D01*
X138632927Y-83804000D01*
X138632927Y-84304000D01*
X138649991Y-84477254D01*
X138700527Y-84643850D01*
X138735369Y-84709034D01*
X138681497Y-84809820D01*
X138645187Y-84929518D01*
X138632927Y-85054000D01*
X138635999Y-85268250D01*
X138794749Y-85427000D01*
X140043999Y-85427000D01*
X140043999Y-85407000D01*
X140297999Y-85407000D01*
X140297999Y-85427000D01*
X141547249Y-85427000D01*
X141705999Y-85268250D01*
X141709071Y-85054000D01*
X141696811Y-84929518D01*
X141660501Y-84809820D01*
X141606629Y-84709034D01*
X141641471Y-84643850D01*
X141692007Y-84477254D01*
X141709071Y-84304000D01*
X141709071Y-83804000D01*
X141692007Y-83630746D01*
X141641471Y-83464150D01*
X141559404Y-83310614D01*
X141553976Y-83304000D01*
X141559404Y-83297386D01*
X141641471Y-83143850D01*
X141692007Y-82977254D01*
X141709071Y-82804000D01*
X141709071Y-82304000D01*
X141692007Y-82130746D01*
X141641471Y-81964150D01*
X141559404Y-81810614D01*
X141553976Y-81804000D01*
X141559404Y-81797386D01*
X141641471Y-81643850D01*
X141692007Y-81477254D01*
X141709071Y-81304000D01*
X141709071Y-80804000D01*
X141692007Y-80630746D01*
X141641471Y-80464150D01*
X141559404Y-80310614D01*
X141553976Y-80304000D01*
X141559404Y-80297386D01*
X141641471Y-80143850D01*
X141692007Y-79977254D01*
X141709071Y-79804000D01*
X141709071Y-79304000D01*
X141692007Y-79130746D01*
X141641471Y-78964150D01*
X141559404Y-78810614D01*
X141553976Y-78804000D01*
X141559404Y-78797386D01*
X141641471Y-78643850D01*
X141692007Y-78477254D01*
X141709071Y-78304000D01*
X141709071Y-77804000D01*
X141692007Y-77630746D01*
X141641471Y-77464150D01*
X141559404Y-77310614D01*
X141553976Y-77304000D01*
X141559404Y-77297386D01*
X141641471Y-77143850D01*
X141692007Y-76977254D01*
X141709071Y-76804000D01*
X141709071Y-76304000D01*
X141692007Y-76130746D01*
X141641471Y-75964150D01*
X141559404Y-75810614D01*
X141553976Y-75804000D01*
X141559404Y-75797386D01*
X141641471Y-75643850D01*
X141692007Y-75477254D01*
X141709071Y-75304000D01*
X141709071Y-74804000D01*
X141692007Y-74630746D01*
X141641471Y-74464150D01*
X141559404Y-74310614D01*
X141553976Y-74304000D01*
X141559404Y-74297386D01*
X141641471Y-74143850D01*
X141692007Y-73977254D01*
X141709071Y-73804000D01*
X141709071Y-73304000D01*
X141692007Y-73130746D01*
X141641471Y-72964150D01*
X141559404Y-72810614D01*
X141553976Y-72804000D01*
X141559404Y-72797386D01*
X141641471Y-72643850D01*
X141692007Y-72477254D01*
X141709071Y-72304000D01*
X141709071Y-71804000D01*
X141692007Y-71630746D01*
X141641471Y-71464150D01*
X141559404Y-71310614D01*
X141553976Y-71304000D01*
X141559404Y-71297386D01*
X141641471Y-71143850D01*
X141692007Y-70977254D01*
X141709071Y-70804000D01*
X141709071Y-70304000D01*
X141692007Y-70130746D01*
X141641471Y-69964150D01*
X141559404Y-69810614D01*
X141553976Y-69804000D01*
X141559404Y-69797386D01*
X141641471Y-69643850D01*
X141692007Y-69477254D01*
X141709071Y-69304000D01*
X141709071Y-68804000D01*
X141692007Y-68630746D01*
X141641471Y-68464150D01*
X141559404Y-68310614D01*
X141553976Y-68304000D01*
X141559404Y-68297386D01*
X141641471Y-68143850D01*
X141692007Y-67977254D01*
X141709071Y-67804000D01*
X141709071Y-67304000D01*
X141692007Y-67130746D01*
X141641471Y-66964150D01*
X141622683Y-66929000D01*
X141834000Y-66929000D01*
X141834001Y-95852711D01*
X141804766Y-96150876D01*
X141727551Y-96406624D01*
X141602131Y-96642504D01*
X141433289Y-96849525D01*
X141227446Y-97019813D01*
X140992444Y-97146879D01*
X140737240Y-97225877D01*
X140441118Y-97257000D01*
X127032279Y-97257000D01*
X126734124Y-97227766D01*
X126478376Y-97150551D01*
X126242496Y-97025131D01*
X126035475Y-96856289D01*
X125865187Y-96650446D01*
X125818669Y-96564412D01*
X126543373Y-96564412D01*
X126712355Y-96891010D01*
X127105492Y-97092574D01*
X127530397Y-97213568D01*
X127970743Y-97249342D01*
X128409608Y-97198521D01*
X128830125Y-97063058D01*
X129152005Y-96891010D01*
X129320987Y-96564412D01*
X138141013Y-96564412D01*
X138309995Y-96891010D01*
X138703132Y-97092574D01*
X139128037Y-97213568D01*
X139568383Y-97249342D01*
X140007248Y-97198521D01*
X140427765Y-97063058D01*
X140749645Y-96891010D01*
X140918627Y-96564412D01*
X139529820Y-95175605D01*
X138141013Y-96564412D01*
X129320987Y-96564412D01*
X127932180Y-95175605D01*
X126543373Y-96564412D01*
X125818669Y-96564412D01*
X125738121Y-96415444D01*
X125659123Y-96160240D01*
X125628000Y-95864118D01*
X125628000Y-95034563D01*
X125678838Y-95034563D01*
X125729659Y-95473428D01*
X125865122Y-95893945D01*
X126037170Y-96215825D01*
X126363768Y-96384807D01*
X127752575Y-94996000D01*
X128111785Y-94996000D01*
X129500592Y-96384807D01*
X129827190Y-96215825D01*
X130028754Y-95822688D01*
X130149748Y-95397783D01*
X130185522Y-94957437D01*
X130134701Y-94518572D01*
X130020297Y-94163427D01*
X130298397Y-94179324D01*
X130605604Y-94136267D01*
X130898506Y-94034105D01*
X131057797Y-93948963D01*
X131146291Y-93690716D01*
X130233420Y-92777845D01*
X129320549Y-93690716D01*
X129345182Y-93762603D01*
X128111785Y-94996000D01*
X127752575Y-94996000D01*
X126363768Y-93607193D01*
X126037170Y-93776175D01*
X125835606Y-94169312D01*
X125714612Y-94594217D01*
X125678838Y-95034563D01*
X125628000Y-95034563D01*
X125628000Y-93427588D01*
X126543373Y-93427588D01*
X127932180Y-94816395D01*
X129320987Y-93427588D01*
X129288076Y-93363979D01*
X130053815Y-92598240D01*
X129140944Y-91685369D01*
X128882697Y-91773863D01*
X128747823Y-92053216D01*
X128670039Y-92353515D01*
X128652336Y-92663217D01*
X128682390Y-92877648D01*
X128333963Y-92778432D01*
X127893617Y-92742658D01*
X127454752Y-92793479D01*
X127034235Y-92928942D01*
X126712355Y-93100990D01*
X126543373Y-93427588D01*
X125628000Y-93427588D01*
X125628000Y-91505764D01*
X129320549Y-91505764D01*
X130233420Y-92418635D01*
X131146291Y-91505764D01*
X131057797Y-91247517D01*
X130778444Y-91112643D01*
X130478145Y-91034859D01*
X130168443Y-91017156D01*
X129861236Y-91060213D01*
X129568334Y-91162375D01*
X129409043Y-91247517D01*
X129320549Y-91505764D01*
X125628000Y-91505764D01*
X125628000Y-88204000D01*
X127532927Y-88204000D01*
X127545187Y-88328482D01*
X127581497Y-88448180D01*
X127640462Y-88558494D01*
X127719814Y-88655185D01*
X127816505Y-88734537D01*
X127926819Y-88793502D01*
X128046517Y-88829812D01*
X128170999Y-88842072D01*
X128385249Y-88839000D01*
X128543999Y-88680250D01*
X128543999Y-87431000D01*
X127694749Y-87431000D01*
X127535999Y-87589750D01*
X127532927Y-88204000D01*
X125628000Y-88204000D01*
X125628000Y-86054000D01*
X125882927Y-86054000D01*
X125895187Y-86178482D01*
X125931497Y-86298180D01*
X125990462Y-86408494D01*
X126069814Y-86505185D01*
X126166505Y-86584537D01*
X126276819Y-86643502D01*
X126396517Y-86679812D01*
X126520999Y-86692072D01*
X127135249Y-86689000D01*
X127293999Y-86530250D01*
X127293999Y-86404000D01*
X127532927Y-86404000D01*
X127535999Y-87018250D01*
X127694749Y-87177000D01*
X128543999Y-87177000D01*
X128543999Y-87157000D01*
X128797999Y-87157000D01*
X128797999Y-87177000D01*
X128817999Y-87177000D01*
X128817999Y-87431000D01*
X128797999Y-87431000D01*
X128797999Y-88680250D01*
X128956749Y-88839000D01*
X129170999Y-88842072D01*
X129295481Y-88829812D01*
X129415179Y-88793502D01*
X129515965Y-88739630D01*
X129581149Y-88774472D01*
X129747745Y-88825008D01*
X129920999Y-88842072D01*
X130420999Y-88842072D01*
X130594253Y-88825008D01*
X130760849Y-88774472D01*
X130914385Y-88692405D01*
X130920999Y-88686977D01*
X130927613Y-88692405D01*
X131081149Y-88774472D01*
X131217123Y-88815719D01*
X131081744Y-88871795D01*
X130912226Y-88985063D01*
X130768063Y-89129226D01*
X130654795Y-89298744D01*
X130576774Y-89487102D01*
X130537000Y-89687061D01*
X130537000Y-89890939D01*
X130576774Y-90090898D01*
X130654795Y-90279256D01*
X130768063Y-90448774D01*
X130912226Y-90592937D01*
X131081744Y-90706205D01*
X131270102Y-90784226D01*
X131470061Y-90824000D01*
X131673939Y-90824000D01*
X131873898Y-90784226D01*
X132019295Y-90724000D01*
X135756711Y-90724000D01*
X136293581Y-91260870D01*
X136293581Y-91328990D01*
X136224703Y-91375013D01*
X136042400Y-91557316D01*
X135860097Y-91375013D01*
X135602168Y-91202670D01*
X135315572Y-91083958D01*
X135011324Y-91023440D01*
X134701116Y-91023440D01*
X134396868Y-91083958D01*
X134110272Y-91202670D01*
X133852343Y-91375013D01*
X133731000Y-91496356D01*
X133609657Y-91375013D01*
X133351728Y-91202670D01*
X133065132Y-91083958D01*
X132760884Y-91023440D01*
X132450676Y-91023440D01*
X132146428Y-91083958D01*
X131859832Y-91202670D01*
X131601903Y-91375013D01*
X131382553Y-91594363D01*
X131313385Y-91697880D01*
X130413025Y-92598240D01*
X131313385Y-93498600D01*
X131382553Y-93602117D01*
X131601903Y-93821467D01*
X131791776Y-93948336D01*
X131599803Y-93910150D01*
X131366397Y-93910150D01*
X131137475Y-93955686D01*
X130921835Y-94045007D01*
X130727764Y-94174681D01*
X130562721Y-94339724D01*
X130433047Y-94533795D01*
X130343726Y-94749435D01*
X130298190Y-94978357D01*
X130298190Y-95211763D01*
X130343726Y-95440685D01*
X130433047Y-95656325D01*
X130562721Y-95850396D01*
X130727764Y-96015439D01*
X130921835Y-96145113D01*
X131137475Y-96234434D01*
X131366397Y-96279970D01*
X131599803Y-96279970D01*
X131828725Y-96234434D01*
X132044365Y-96145113D01*
X132238436Y-96015439D01*
X132403479Y-95850396D01*
X132533153Y-95656325D01*
X132622474Y-95440685D01*
X132668010Y-95211763D01*
X132668010Y-94978357D01*
X132622474Y-94749435D01*
X132533153Y-94533795D01*
X132403479Y-94339724D01*
X132238436Y-94174681D01*
X132143745Y-94111411D01*
X132146428Y-94112522D01*
X132450676Y-94173040D01*
X132760884Y-94173040D01*
X133065132Y-94112522D01*
X133351728Y-93993810D01*
X133609657Y-93821467D01*
X133731000Y-93700124D01*
X133852343Y-93821467D01*
X134110272Y-93993810D01*
X134396868Y-94112522D01*
X134701116Y-94173040D01*
X135011324Y-94173040D01*
X135315572Y-94112522D01*
X135318255Y-94111411D01*
X135223564Y-94174681D01*
X135058521Y-94339724D01*
X134928847Y-94533795D01*
X134839526Y-94749435D01*
X134793990Y-94978357D01*
X134793990Y-95211763D01*
X134839526Y-95440685D01*
X134928847Y-95656325D01*
X135058521Y-95850396D01*
X135223564Y-96015439D01*
X135417635Y-96145113D01*
X135633275Y-96234434D01*
X135862197Y-96279970D01*
X136095603Y-96279970D01*
X136324525Y-96234434D01*
X136540165Y-96145113D01*
X136734236Y-96015439D01*
X136899279Y-95850396D01*
X137028953Y-95656325D01*
X137118274Y-95440685D01*
X137163810Y-95211763D01*
X137163810Y-94978357D01*
X137118274Y-94749435D01*
X137028953Y-94533795D01*
X136899279Y-94339724D01*
X136734236Y-94174681D01*
X136540165Y-94045007D01*
X136324525Y-93955686D01*
X136095603Y-93910150D01*
X135862197Y-93910150D01*
X135670224Y-93948336D01*
X135860097Y-93821467D01*
X136042400Y-93639164D01*
X136224703Y-93821467D01*
X136482632Y-93993810D01*
X136769228Y-94112522D01*
X137073476Y-94173040D01*
X137383684Y-94173040D01*
X137436746Y-94162485D01*
X137433246Y-94169312D01*
X137312252Y-94594217D01*
X137276478Y-95034563D01*
X137327299Y-95473428D01*
X137462762Y-95893945D01*
X137634810Y-96215825D01*
X137961408Y-96384807D01*
X139350215Y-94996000D01*
X139709425Y-94996000D01*
X141098232Y-96384807D01*
X141424830Y-96215825D01*
X141626394Y-95822688D01*
X141747388Y-95397783D01*
X141783162Y-94957437D01*
X141732341Y-94518572D01*
X141596878Y-94098055D01*
X141424830Y-93776175D01*
X141098232Y-93607193D01*
X139709425Y-94996000D01*
X139350215Y-94996000D01*
X139336073Y-94981858D01*
X139515678Y-94802253D01*
X139529820Y-94816395D01*
X140918627Y-93427588D01*
X140749645Y-93100990D01*
X140356508Y-92899426D01*
X139931603Y-92778432D01*
X139491257Y-92742658D01*
X139052392Y-92793479D01*
X138777802Y-92881934D01*
X138803380Y-92753344D01*
X138803380Y-92443136D01*
X138742862Y-92138888D01*
X138624150Y-91852292D01*
X138451807Y-91594363D01*
X138232457Y-91375013D01*
X138163580Y-91328991D01*
X138163580Y-90919515D01*
X138168104Y-90873580D01*
X138150052Y-90690288D01*
X138118539Y-90586408D01*
X138096587Y-90514040D01*
X138009766Y-90351608D01*
X137892924Y-90209236D01*
X137857239Y-90179950D01*
X136837630Y-89160341D01*
X136808344Y-89124656D01*
X136665972Y-89007814D01*
X136503540Y-88920993D01*
X136327292Y-88867529D01*
X136189932Y-88854000D01*
X136144000Y-88849476D01*
X136098068Y-88854000D01*
X132019295Y-88854000D01*
X131977148Y-88836542D01*
X132094253Y-88825008D01*
X132260849Y-88774472D01*
X132414385Y-88692405D01*
X132420999Y-88686977D01*
X132427613Y-88692405D01*
X132581149Y-88774472D01*
X132747745Y-88825008D01*
X132920999Y-88842072D01*
X133420999Y-88842072D01*
X133594253Y-88825008D01*
X133760849Y-88774472D01*
X133914385Y-88692405D01*
X133920999Y-88686977D01*
X133927613Y-88692405D01*
X134081149Y-88774472D01*
X134247745Y-88825008D01*
X134420999Y-88842072D01*
X134920999Y-88842072D01*
X135094253Y-88825008D01*
X135260849Y-88774472D01*
X135414385Y-88692405D01*
X135420999Y-88686977D01*
X135427613Y-88692405D01*
X135581149Y-88774472D01*
X135747745Y-88825008D01*
X135920999Y-88842072D01*
X136420999Y-88842072D01*
X136594253Y-88825008D01*
X136760849Y-88774472D01*
X136914385Y-88692405D01*
X136920999Y-88686977D01*
X136927613Y-88692405D01*
X137081149Y-88774472D01*
X137247745Y-88825008D01*
X137420999Y-88842072D01*
X137920999Y-88842072D01*
X138094253Y-88825008D01*
X138260849Y-88774472D01*
X138326033Y-88739630D01*
X138426819Y-88793502D01*
X138546517Y-88829812D01*
X138670999Y-88842072D01*
X138885249Y-88839000D01*
X139043999Y-88680250D01*
X139043999Y-87431000D01*
X139297999Y-87431000D01*
X139297999Y-88680250D01*
X139456749Y-88839000D01*
X139670999Y-88842072D01*
X139795481Y-88829812D01*
X139915179Y-88793502D01*
X140025493Y-88734537D01*
X140122184Y-88655185D01*
X140201536Y-88558494D01*
X140260501Y-88448180D01*
X140296811Y-88328482D01*
X140309071Y-88204000D01*
X140305999Y-87589750D01*
X140147249Y-87431000D01*
X139297999Y-87431000D01*
X139043999Y-87431000D01*
X139023999Y-87431000D01*
X139023999Y-87177000D01*
X139043999Y-87177000D01*
X139043999Y-87157000D01*
X139297999Y-87157000D01*
X139297999Y-87177000D01*
X140147249Y-87177000D01*
X140305999Y-87018250D01*
X140308388Y-86540639D01*
X140456749Y-86689000D01*
X141070999Y-86692072D01*
X141195481Y-86679812D01*
X141315179Y-86643502D01*
X141425493Y-86584537D01*
X141522184Y-86505185D01*
X141601536Y-86408494D01*
X141660501Y-86298180D01*
X141696811Y-86178482D01*
X141709071Y-86054000D01*
X141705999Y-85839750D01*
X141547249Y-85681000D01*
X140297999Y-85681000D01*
X140297999Y-85701000D01*
X140043999Y-85701000D01*
X140043999Y-85681000D01*
X138794749Y-85681000D01*
X138709272Y-85766477D01*
X138670999Y-85765928D01*
X138546517Y-85778188D01*
X138426819Y-85814498D01*
X138326033Y-85868370D01*
X138260849Y-85833528D01*
X138094253Y-85782992D01*
X137920999Y-85765928D01*
X137420999Y-85765928D01*
X137247745Y-85782992D01*
X137081149Y-85833528D01*
X136927613Y-85915595D01*
X136920999Y-85921023D01*
X136914385Y-85915595D01*
X136760849Y-85833528D01*
X136594253Y-85782992D01*
X136420999Y-85765928D01*
X135920999Y-85765928D01*
X135747745Y-85782992D01*
X135581149Y-85833528D01*
X135427613Y-85915595D01*
X135420999Y-85921023D01*
X135414385Y-85915595D01*
X135260849Y-85833528D01*
X135094253Y-85782992D01*
X134920999Y-85765928D01*
X134420999Y-85765928D01*
X134247745Y-85782992D01*
X134081149Y-85833528D01*
X133927613Y-85915595D01*
X133920999Y-85921023D01*
X133914385Y-85915595D01*
X133760849Y-85833528D01*
X133594253Y-85782992D01*
X133420999Y-85765928D01*
X132920999Y-85765928D01*
X132747745Y-85782992D01*
X132581149Y-85833528D01*
X132427613Y-85915595D01*
X132420999Y-85921023D01*
X132414385Y-85915595D01*
X132260849Y-85833528D01*
X132094253Y-85782992D01*
X131920999Y-85765928D01*
X131420999Y-85765928D01*
X131247745Y-85782992D01*
X131081149Y-85833528D01*
X130927613Y-85915595D01*
X130920999Y-85921023D01*
X130914385Y-85915595D01*
X130760849Y-85833528D01*
X130594253Y-85782992D01*
X130420999Y-85765928D01*
X129920999Y-85765928D01*
X129747745Y-85782992D01*
X129581149Y-85833528D01*
X129515965Y-85868370D01*
X129415179Y-85814498D01*
X129295481Y-85778188D01*
X129170999Y-85765928D01*
X128956749Y-85769000D01*
X128920999Y-85804750D01*
X128797249Y-85681000D01*
X127547999Y-85681000D01*
X127547999Y-86270248D01*
X127545187Y-86279518D01*
X127532927Y-86404000D01*
X127293999Y-86404000D01*
X127293999Y-85681000D01*
X126044749Y-85681000D01*
X125885999Y-85839750D01*
X125882927Y-86054000D01*
X125628000Y-86054000D01*
X125628000Y-66929000D01*
X125969315Y-66929000D01*
X125950527Y-66964150D01*
M02*
