G04 #@! TF.GenerationSoftware,KiCad,Pcbnew,(5.1.5)-3*
G04 #@! TF.CreationDate,2021-04-30T23:34:10+03:00*
G04 #@! TF.ProjectId,HM10USBDongle,484d3130-5553-4424-946f-6e676c652e6b,rev?*
G04 #@! TF.SameCoordinates,Original*
G04 #@! TF.FileFunction,Soldermask,Bot*
G04 #@! TF.FilePolarity,Negative*
%FSLAX46Y46*%
G04 Gerber Fmt 4.6, Leading zero omitted, Abs format (unit mm)*
G04 Created by KiCad (PCBNEW (5.1.5)-3) date 2021-04-30 23:34:10*
%MOMM*%
%LPD*%
G04 APERTURE LIST*
%ADD10C,0.100000*%
G04 APERTURE END LIST*
D10*
G36*
X139918354Y-93330375D02*
G01*
X140028439Y-93352272D01*
X140339534Y-93481132D01*
X140619512Y-93668207D01*
X140857613Y-93906308D01*
X141044688Y-94186286D01*
X141161622Y-94468588D01*
X141173548Y-94497382D01*
X141231049Y-94786454D01*
X141239240Y-94827637D01*
X141239240Y-95164363D01*
X141173548Y-95494619D01*
X141044688Y-95805714D01*
X140857613Y-96085692D01*
X140619512Y-96323793D01*
X140339534Y-96510868D01*
X140028439Y-96639728D01*
X139918354Y-96661625D01*
X139698185Y-96705420D01*
X139361455Y-96705420D01*
X139141286Y-96661625D01*
X139031201Y-96639728D01*
X138720106Y-96510868D01*
X138440128Y-96323793D01*
X138202027Y-96085692D01*
X138014952Y-95805714D01*
X137886092Y-95494619D01*
X137820400Y-95164363D01*
X137820400Y-94827637D01*
X137828592Y-94786454D01*
X137886092Y-94497382D01*
X137898019Y-94468588D01*
X138014952Y-94186286D01*
X138202027Y-93906308D01*
X138440128Y-93668207D01*
X138720106Y-93481132D01*
X139031201Y-93352272D01*
X139141286Y-93330375D01*
X139361455Y-93286580D01*
X139698185Y-93286580D01*
X139918354Y-93330375D01*
G37*
G36*
X128320714Y-93330375D02*
G01*
X128430799Y-93352272D01*
X128741894Y-93481132D01*
X129021872Y-93668207D01*
X129259973Y-93906308D01*
X129447048Y-94186286D01*
X129563982Y-94468588D01*
X129575908Y-94497382D01*
X129633409Y-94786454D01*
X129641600Y-94827637D01*
X129641600Y-95164363D01*
X129575908Y-95494619D01*
X129447048Y-95805714D01*
X129259973Y-96085692D01*
X129021872Y-96323793D01*
X128741894Y-96510868D01*
X128430799Y-96639728D01*
X128320714Y-96661625D01*
X128100545Y-96705420D01*
X127763815Y-96705420D01*
X127543646Y-96661625D01*
X127433561Y-96639728D01*
X127122466Y-96510868D01*
X126842488Y-96323793D01*
X126604387Y-96085692D01*
X126417312Y-95805714D01*
X126288452Y-95494619D01*
X126222760Y-95164363D01*
X126222760Y-94827637D01*
X126230952Y-94786454D01*
X126288452Y-94497382D01*
X126300379Y-94468588D01*
X126417312Y-94186286D01*
X126604387Y-93906308D01*
X126842488Y-93668207D01*
X127122466Y-93481132D01*
X127433561Y-93352272D01*
X127543646Y-93330375D01*
X127763815Y-93286580D01*
X128100545Y-93286580D01*
X128320714Y-93330375D01*
G37*
G36*
X136168937Y-94468587D02*
G01*
X136287507Y-94517700D01*
X136394211Y-94588997D01*
X136484963Y-94679749D01*
X136556260Y-94786453D01*
X136605373Y-94905023D01*
X136630410Y-95030891D01*
X136630410Y-95159229D01*
X136605373Y-95285097D01*
X136556260Y-95403667D01*
X136484963Y-95510371D01*
X136394211Y-95601123D01*
X136287507Y-95672420D01*
X136168937Y-95721533D01*
X136043069Y-95746570D01*
X135914731Y-95746570D01*
X135788863Y-95721533D01*
X135670293Y-95672420D01*
X135563589Y-95601123D01*
X135472837Y-95510371D01*
X135401540Y-95403667D01*
X135352427Y-95285097D01*
X135327390Y-95159229D01*
X135327390Y-95030891D01*
X135352427Y-94905023D01*
X135401540Y-94786453D01*
X135472837Y-94679749D01*
X135563589Y-94588997D01*
X135670293Y-94517700D01*
X135788863Y-94468587D01*
X135914731Y-94443550D01*
X136043069Y-94443550D01*
X136168937Y-94468587D01*
G37*
G36*
X131673137Y-94468587D02*
G01*
X131791707Y-94517700D01*
X131898411Y-94588997D01*
X131989163Y-94679749D01*
X132060460Y-94786453D01*
X132109573Y-94905023D01*
X132134610Y-95030891D01*
X132134610Y-95159229D01*
X132109573Y-95285097D01*
X132060460Y-95403667D01*
X131989163Y-95510371D01*
X131898411Y-95601123D01*
X131791707Y-95672420D01*
X131673137Y-95721533D01*
X131547269Y-95746570D01*
X131418931Y-95746570D01*
X131293063Y-95721533D01*
X131174493Y-95672420D01*
X131067789Y-95601123D01*
X130977037Y-95510371D01*
X130905740Y-95403667D01*
X130856627Y-95285097D01*
X130831590Y-95159229D01*
X130831590Y-95030891D01*
X130856627Y-94905023D01*
X130905740Y-94786453D01*
X130977037Y-94679749D01*
X131067789Y-94588997D01*
X131174493Y-94517700D01*
X131293063Y-94468587D01*
X131418931Y-94443550D01*
X131547269Y-94443550D01*
X131673137Y-94468587D01*
G37*
G36*
X137532345Y-91596860D02*
G01*
X137721868Y-91675363D01*
X137892434Y-91789332D01*
X138037488Y-91934386D01*
X138151457Y-92104952D01*
X138229960Y-92294475D01*
X138269980Y-92495671D01*
X138269980Y-92700809D01*
X138229960Y-92902005D01*
X138151457Y-93091528D01*
X138037488Y-93262094D01*
X137892434Y-93407148D01*
X137721868Y-93521117D01*
X137721867Y-93521118D01*
X137721866Y-93521118D01*
X137532345Y-93599620D01*
X137331150Y-93639640D01*
X137126010Y-93639640D01*
X136924815Y-93599620D01*
X136735294Y-93521118D01*
X136735293Y-93521118D01*
X136735292Y-93521117D01*
X136564726Y-93407148D01*
X136419672Y-93262094D01*
X136305703Y-93091528D01*
X136227200Y-92902005D01*
X136187180Y-92700809D01*
X136187180Y-92495671D01*
X136227200Y-92294475D01*
X136305703Y-92104952D01*
X136419672Y-91934386D01*
X136564726Y-91789332D01*
X136735292Y-91675363D01*
X136924815Y-91596860D01*
X137126010Y-91556840D01*
X137331150Y-91556840D01*
X137532345Y-91596860D01*
G37*
G36*
X130537185Y-91596860D02*
G01*
X130726708Y-91675363D01*
X130897274Y-91789332D01*
X131042328Y-91934386D01*
X131156297Y-92104952D01*
X131234800Y-92294475D01*
X131274820Y-92495671D01*
X131274820Y-92700809D01*
X131234800Y-92902005D01*
X131156297Y-93091528D01*
X131042328Y-93262094D01*
X130897274Y-93407148D01*
X130726708Y-93521117D01*
X130726707Y-93521118D01*
X130726706Y-93521118D01*
X130537185Y-93599620D01*
X130335990Y-93639640D01*
X130130850Y-93639640D01*
X129929655Y-93599620D01*
X129740134Y-93521118D01*
X129740133Y-93521118D01*
X129740132Y-93521117D01*
X129569566Y-93407148D01*
X129424512Y-93262094D01*
X129310543Y-93091528D01*
X129232040Y-92902005D01*
X129192020Y-92700809D01*
X129192020Y-92495671D01*
X129232040Y-92294475D01*
X129310543Y-92104952D01*
X129424512Y-91934386D01*
X129569566Y-91789332D01*
X129740132Y-91675363D01*
X129929655Y-91596860D01*
X130130850Y-91556840D01*
X130335990Y-91556840D01*
X130537185Y-91596860D01*
G37*
G36*
X132909545Y-91596860D02*
G01*
X133099068Y-91675363D01*
X133269634Y-91789332D01*
X133414688Y-91934386D01*
X133414689Y-91934388D01*
X133528658Y-92104954D01*
X133607160Y-92294475D01*
X133608403Y-92300725D01*
X133615516Y-92324174D01*
X133627067Y-92345784D01*
X133642612Y-92364726D01*
X133661554Y-92380272D01*
X133683165Y-92391823D01*
X133706613Y-92398936D01*
X133731000Y-92401338D01*
X133755386Y-92398936D01*
X133778835Y-92391823D01*
X133800445Y-92380272D01*
X133819387Y-92364727D01*
X133834933Y-92345785D01*
X133846484Y-92324174D01*
X133853597Y-92300725D01*
X133854840Y-92294475D01*
X133933342Y-92104954D01*
X134047311Y-91934388D01*
X134047312Y-91934386D01*
X134192366Y-91789332D01*
X134362932Y-91675363D01*
X134552455Y-91596860D01*
X134753650Y-91556840D01*
X134958790Y-91556840D01*
X135159985Y-91596860D01*
X135349508Y-91675363D01*
X135520074Y-91789332D01*
X135665128Y-91934386D01*
X135779097Y-92104952D01*
X135857600Y-92294475D01*
X135897620Y-92495671D01*
X135897620Y-92700809D01*
X135857600Y-92902005D01*
X135779097Y-93091528D01*
X135665128Y-93262094D01*
X135520074Y-93407148D01*
X135349508Y-93521117D01*
X135349507Y-93521118D01*
X135349506Y-93521118D01*
X135159985Y-93599620D01*
X134958790Y-93639640D01*
X134753650Y-93639640D01*
X134552455Y-93599620D01*
X134362934Y-93521118D01*
X134362933Y-93521118D01*
X134362932Y-93521117D01*
X134192366Y-93407148D01*
X134047312Y-93262094D01*
X133933343Y-93091528D01*
X133854840Y-92902005D01*
X133853596Y-92895753D01*
X133846484Y-92872306D01*
X133834933Y-92850696D01*
X133819388Y-92831754D01*
X133800446Y-92816208D01*
X133778835Y-92804657D01*
X133755387Y-92797544D01*
X133731000Y-92795142D01*
X133706614Y-92797544D01*
X133683165Y-92804657D01*
X133661555Y-92816208D01*
X133642613Y-92831753D01*
X133627067Y-92850695D01*
X133615516Y-92872306D01*
X133608404Y-92895753D01*
X133607160Y-92902005D01*
X133528657Y-93091528D01*
X133414688Y-93262094D01*
X133269634Y-93407148D01*
X133099068Y-93521117D01*
X133099067Y-93521118D01*
X133099066Y-93521118D01*
X132909545Y-93599620D01*
X132708350Y-93639640D01*
X132503210Y-93639640D01*
X132302015Y-93599620D01*
X132112494Y-93521118D01*
X132112493Y-93521118D01*
X132112492Y-93521117D01*
X131941926Y-93407148D01*
X131796872Y-93262094D01*
X131682903Y-93091528D01*
X131604400Y-92902005D01*
X131564380Y-92700809D01*
X131564380Y-92495671D01*
X131604400Y-92294475D01*
X131682903Y-92104952D01*
X131796872Y-91934386D01*
X131941926Y-91789332D01*
X132112492Y-91675363D01*
X132302015Y-91596860D01*
X132503210Y-91556840D01*
X132708350Y-91556840D01*
X132909545Y-91596860D01*
G37*
G36*
X131680560Y-86727205D02*
G01*
X131715713Y-86737869D01*
X131748110Y-86755186D01*
X131776509Y-86778491D01*
X131799814Y-86806890D01*
X131817131Y-86839287D01*
X131827795Y-86874440D01*
X131832000Y-86917140D01*
X131832000Y-87580860D01*
X131827795Y-87623560D01*
X131817131Y-87658713D01*
X131799814Y-87691110D01*
X131776509Y-87719509D01*
X131748110Y-87742814D01*
X131715713Y-87760131D01*
X131680560Y-87770795D01*
X131637860Y-87775000D01*
X131024140Y-87775000D01*
X130981440Y-87770795D01*
X130946287Y-87760131D01*
X130913890Y-87742814D01*
X130885491Y-87719509D01*
X130862186Y-87691110D01*
X130844869Y-87658713D01*
X130834205Y-87623560D01*
X130830000Y-87580860D01*
X130830000Y-86917140D01*
X130834205Y-86874440D01*
X130844869Y-86839287D01*
X130862186Y-86806890D01*
X130885491Y-86778491D01*
X130913890Y-86755186D01*
X130946287Y-86737869D01*
X130981440Y-86727205D01*
X131024140Y-86723000D01*
X131637860Y-86723000D01*
X131680560Y-86727205D01*
G37*
G36*
X130130560Y-86727205D02*
G01*
X130165713Y-86737869D01*
X130198110Y-86755186D01*
X130226509Y-86778491D01*
X130249814Y-86806890D01*
X130267131Y-86839287D01*
X130277795Y-86874440D01*
X130282000Y-86917140D01*
X130282000Y-87580860D01*
X130277795Y-87623560D01*
X130267131Y-87658713D01*
X130249814Y-87691110D01*
X130226509Y-87719509D01*
X130198110Y-87742814D01*
X130165713Y-87760131D01*
X130130560Y-87770795D01*
X130087860Y-87775000D01*
X129474140Y-87775000D01*
X129431440Y-87770795D01*
X129396287Y-87760131D01*
X129363890Y-87742814D01*
X129335491Y-87719509D01*
X129312186Y-87691110D01*
X129294869Y-87658713D01*
X129284205Y-87623560D01*
X129280000Y-87580860D01*
X129280000Y-86917140D01*
X129284205Y-86874440D01*
X129294869Y-86839287D01*
X129312186Y-86806890D01*
X129335491Y-86778491D01*
X129363890Y-86755186D01*
X129396287Y-86737869D01*
X129431440Y-86727205D01*
X129474140Y-86723000D01*
X130087860Y-86723000D01*
X130130560Y-86727205D01*
G37*
G36*
X130565000Y-84332000D02*
G01*
X129563000Y-84332000D01*
X129563000Y-83430000D01*
X130565000Y-83430000D01*
X130565000Y-84332000D01*
G37*
G36*
X132565000Y-83382000D02*
G01*
X131563000Y-83382000D01*
X131563000Y-82480000D01*
X132565000Y-82480000D01*
X132565000Y-83382000D01*
G37*
G36*
X130565000Y-82432000D02*
G01*
X129563000Y-82432000D01*
X129563000Y-81530000D01*
X130565000Y-81530000D01*
X130565000Y-82432000D01*
G37*
G36*
X132466928Y-78413764D02*
G01*
X132488009Y-78420160D01*
X132507445Y-78430548D01*
X132524476Y-78444524D01*
X132538452Y-78461555D01*
X132548840Y-78480991D01*
X132555236Y-78502072D01*
X132558000Y-78530140D01*
X132558000Y-80343860D01*
X132555236Y-80371928D01*
X132548840Y-80393009D01*
X132538452Y-80412445D01*
X132524476Y-80429476D01*
X132507445Y-80443452D01*
X132488009Y-80453840D01*
X132466928Y-80460236D01*
X132438860Y-80463000D01*
X131975140Y-80463000D01*
X131947072Y-80460236D01*
X131925991Y-80453840D01*
X131906555Y-80443452D01*
X131889524Y-80429476D01*
X131875548Y-80412445D01*
X131865160Y-80393009D01*
X131858764Y-80371928D01*
X131856000Y-80343860D01*
X131856000Y-78530140D01*
X131858764Y-78502072D01*
X131865160Y-78480991D01*
X131875548Y-78461555D01*
X131889524Y-78444524D01*
X131906555Y-78430548D01*
X131925991Y-78420160D01*
X131947072Y-78413764D01*
X131975140Y-78411000D01*
X132438860Y-78411000D01*
X132466928Y-78413764D01*
G37*
G36*
X133736928Y-78413764D02*
G01*
X133758009Y-78420160D01*
X133777445Y-78430548D01*
X133794476Y-78444524D01*
X133808452Y-78461555D01*
X133818840Y-78480991D01*
X133825236Y-78502072D01*
X133828000Y-78530140D01*
X133828000Y-80343860D01*
X133825236Y-80371928D01*
X133818840Y-80393009D01*
X133808452Y-80412445D01*
X133794476Y-80429476D01*
X133777445Y-80443452D01*
X133758009Y-80453840D01*
X133736928Y-80460236D01*
X133708860Y-80463000D01*
X133245140Y-80463000D01*
X133217072Y-80460236D01*
X133195991Y-80453840D01*
X133176555Y-80443452D01*
X133159524Y-80429476D01*
X133145548Y-80412445D01*
X133135160Y-80393009D01*
X133128764Y-80371928D01*
X133126000Y-80343860D01*
X133126000Y-78530140D01*
X133128764Y-78502072D01*
X133135160Y-78480991D01*
X133145548Y-78461555D01*
X133159524Y-78444524D01*
X133176555Y-78430548D01*
X133195991Y-78420160D01*
X133217072Y-78413764D01*
X133245140Y-78411000D01*
X133708860Y-78411000D01*
X133736928Y-78413764D01*
G37*
G36*
X135006928Y-78413764D02*
G01*
X135028009Y-78420160D01*
X135047445Y-78430548D01*
X135064476Y-78444524D01*
X135078452Y-78461555D01*
X135088840Y-78480991D01*
X135095236Y-78502072D01*
X135098000Y-78530140D01*
X135098000Y-80343860D01*
X135095236Y-80371928D01*
X135088840Y-80393009D01*
X135078452Y-80412445D01*
X135064476Y-80429476D01*
X135047445Y-80443452D01*
X135028009Y-80453840D01*
X135006928Y-80460236D01*
X134978860Y-80463000D01*
X134515140Y-80463000D01*
X134487072Y-80460236D01*
X134465991Y-80453840D01*
X134446555Y-80443452D01*
X134429524Y-80429476D01*
X134415548Y-80412445D01*
X134405160Y-80393009D01*
X134398764Y-80371928D01*
X134396000Y-80343860D01*
X134396000Y-78530140D01*
X134398764Y-78502072D01*
X134405160Y-78480991D01*
X134415548Y-78461555D01*
X134429524Y-78444524D01*
X134446555Y-78430548D01*
X134465991Y-78420160D01*
X134487072Y-78413764D01*
X134515140Y-78411000D01*
X134978860Y-78411000D01*
X135006928Y-78413764D01*
G37*
G36*
X136276928Y-78413764D02*
G01*
X136298009Y-78420160D01*
X136317445Y-78430548D01*
X136334476Y-78444524D01*
X136348452Y-78461555D01*
X136358840Y-78480991D01*
X136365236Y-78502072D01*
X136368000Y-78530140D01*
X136368000Y-80343860D01*
X136365236Y-80371928D01*
X136358840Y-80393009D01*
X136348452Y-80412445D01*
X136334476Y-80429476D01*
X136317445Y-80443452D01*
X136298009Y-80453840D01*
X136276928Y-80460236D01*
X136248860Y-80463000D01*
X135785140Y-80463000D01*
X135757072Y-80460236D01*
X135735991Y-80453840D01*
X135716555Y-80443452D01*
X135699524Y-80429476D01*
X135685548Y-80412445D01*
X135675160Y-80393009D01*
X135668764Y-80371928D01*
X135666000Y-80343860D01*
X135666000Y-78530140D01*
X135668764Y-78502072D01*
X135675160Y-78480991D01*
X135685548Y-78461555D01*
X135699524Y-78444524D01*
X135716555Y-78430548D01*
X135735991Y-78420160D01*
X135757072Y-78413764D01*
X135785140Y-78411000D01*
X136248860Y-78411000D01*
X136276928Y-78413764D01*
G37*
G36*
X128733560Y-79107205D02*
G01*
X128768713Y-79117869D01*
X128801110Y-79135186D01*
X128829509Y-79158491D01*
X128852814Y-79186890D01*
X128870131Y-79219287D01*
X128880795Y-79254440D01*
X128885000Y-79297140D01*
X128885000Y-79960860D01*
X128880795Y-80003560D01*
X128870131Y-80038713D01*
X128852814Y-80071110D01*
X128829509Y-80099509D01*
X128801110Y-80122814D01*
X128768713Y-80140131D01*
X128733560Y-80150795D01*
X128690860Y-80155000D01*
X128077140Y-80155000D01*
X128034440Y-80150795D01*
X127999287Y-80140131D01*
X127966890Y-80122814D01*
X127938491Y-80099509D01*
X127915186Y-80071110D01*
X127897869Y-80038713D01*
X127887205Y-80003560D01*
X127883000Y-79960860D01*
X127883000Y-79297140D01*
X127887205Y-79254440D01*
X127897869Y-79219287D01*
X127915186Y-79186890D01*
X127938491Y-79158491D01*
X127966890Y-79135186D01*
X127999287Y-79117869D01*
X128034440Y-79107205D01*
X128077140Y-79103000D01*
X128690860Y-79103000D01*
X128733560Y-79107205D01*
G37*
G36*
X130283560Y-79107205D02*
G01*
X130318713Y-79117869D01*
X130351110Y-79135186D01*
X130379509Y-79158491D01*
X130402814Y-79186890D01*
X130420131Y-79219287D01*
X130430795Y-79254440D01*
X130435000Y-79297140D01*
X130435000Y-79960860D01*
X130430795Y-80003560D01*
X130420131Y-80038713D01*
X130402814Y-80071110D01*
X130379509Y-80099509D01*
X130351110Y-80122814D01*
X130318713Y-80140131D01*
X130283560Y-80150795D01*
X130240860Y-80155000D01*
X129627140Y-80155000D01*
X129584440Y-80150795D01*
X129549287Y-80140131D01*
X129516890Y-80122814D01*
X129488491Y-80099509D01*
X129465186Y-80071110D01*
X129447869Y-80038713D01*
X129437205Y-80003560D01*
X129433000Y-79960860D01*
X129433000Y-79297140D01*
X129437205Y-79254440D01*
X129447869Y-79219287D01*
X129465186Y-79186890D01*
X129488491Y-79158491D01*
X129516890Y-79135186D01*
X129549287Y-79117869D01*
X129584440Y-79107205D01*
X129627140Y-79103000D01*
X130240860Y-79103000D01*
X130283560Y-79107205D01*
G37*
G36*
X132466928Y-73463764D02*
G01*
X132488009Y-73470160D01*
X132507445Y-73480548D01*
X132524476Y-73494524D01*
X132538452Y-73511555D01*
X132548840Y-73530991D01*
X132555236Y-73552072D01*
X132558000Y-73580140D01*
X132558000Y-75393860D01*
X132555236Y-75421928D01*
X132548840Y-75443009D01*
X132538452Y-75462445D01*
X132524476Y-75479476D01*
X132507445Y-75493452D01*
X132488009Y-75503840D01*
X132466928Y-75510236D01*
X132438860Y-75513000D01*
X131975140Y-75513000D01*
X131947072Y-75510236D01*
X131925991Y-75503840D01*
X131906555Y-75493452D01*
X131889524Y-75479476D01*
X131875548Y-75462445D01*
X131865160Y-75443009D01*
X131858764Y-75421928D01*
X131856000Y-75393860D01*
X131856000Y-73580140D01*
X131858764Y-73552072D01*
X131865160Y-73530991D01*
X131875548Y-73511555D01*
X131889524Y-73494524D01*
X131906555Y-73480548D01*
X131925991Y-73470160D01*
X131947072Y-73463764D01*
X131975140Y-73461000D01*
X132438860Y-73461000D01*
X132466928Y-73463764D01*
G37*
G36*
X133736928Y-73463764D02*
G01*
X133758009Y-73470160D01*
X133777445Y-73480548D01*
X133794476Y-73494524D01*
X133808452Y-73511555D01*
X133818840Y-73530991D01*
X133825236Y-73552072D01*
X133828000Y-73580140D01*
X133828000Y-75393860D01*
X133825236Y-75421928D01*
X133818840Y-75443009D01*
X133808452Y-75462445D01*
X133794476Y-75479476D01*
X133777445Y-75493452D01*
X133758009Y-75503840D01*
X133736928Y-75510236D01*
X133708860Y-75513000D01*
X133245140Y-75513000D01*
X133217072Y-75510236D01*
X133195991Y-75503840D01*
X133176555Y-75493452D01*
X133159524Y-75479476D01*
X133145548Y-75462445D01*
X133135160Y-75443009D01*
X133128764Y-75421928D01*
X133126000Y-75393860D01*
X133126000Y-73580140D01*
X133128764Y-73552072D01*
X133135160Y-73530991D01*
X133145548Y-73511555D01*
X133159524Y-73494524D01*
X133176555Y-73480548D01*
X133195991Y-73470160D01*
X133217072Y-73463764D01*
X133245140Y-73461000D01*
X133708860Y-73461000D01*
X133736928Y-73463764D01*
G37*
G36*
X135006928Y-73463764D02*
G01*
X135028009Y-73470160D01*
X135047445Y-73480548D01*
X135064476Y-73494524D01*
X135078452Y-73511555D01*
X135088840Y-73530991D01*
X135095236Y-73552072D01*
X135098000Y-73580140D01*
X135098000Y-75393860D01*
X135095236Y-75421928D01*
X135088840Y-75443009D01*
X135078452Y-75462445D01*
X135064476Y-75479476D01*
X135047445Y-75493452D01*
X135028009Y-75503840D01*
X135006928Y-75510236D01*
X134978860Y-75513000D01*
X134515140Y-75513000D01*
X134487072Y-75510236D01*
X134465991Y-75503840D01*
X134446555Y-75493452D01*
X134429524Y-75479476D01*
X134415548Y-75462445D01*
X134405160Y-75443009D01*
X134398764Y-75421928D01*
X134396000Y-75393860D01*
X134396000Y-73580140D01*
X134398764Y-73552072D01*
X134405160Y-73530991D01*
X134415548Y-73511555D01*
X134429524Y-73494524D01*
X134446555Y-73480548D01*
X134465991Y-73470160D01*
X134487072Y-73463764D01*
X134515140Y-73461000D01*
X134978860Y-73461000D01*
X135006928Y-73463764D01*
G37*
G36*
X136276928Y-73463764D02*
G01*
X136298009Y-73470160D01*
X136317445Y-73480548D01*
X136334476Y-73494524D01*
X136348452Y-73511555D01*
X136358840Y-73530991D01*
X136365236Y-73552072D01*
X136368000Y-73580140D01*
X136368000Y-75393860D01*
X136365236Y-75421928D01*
X136358840Y-75443009D01*
X136348452Y-75462445D01*
X136334476Y-75479476D01*
X136317445Y-75493452D01*
X136298009Y-75503840D01*
X136276928Y-75510236D01*
X136248860Y-75513000D01*
X135785140Y-75513000D01*
X135757072Y-75510236D01*
X135735991Y-75503840D01*
X135716555Y-75493452D01*
X135699524Y-75479476D01*
X135685548Y-75462445D01*
X135675160Y-75443009D01*
X135668764Y-75421928D01*
X135666000Y-75393860D01*
X135666000Y-73580140D01*
X135668764Y-73552072D01*
X135675160Y-73530991D01*
X135685548Y-73511555D01*
X135699524Y-73494524D01*
X135716555Y-73480548D01*
X135735991Y-73470160D01*
X135757072Y-73463764D01*
X135785140Y-73461000D01*
X136248860Y-73461000D01*
X136276928Y-73463764D01*
G37*
G36*
X138258560Y-73900205D02*
G01*
X138293713Y-73910869D01*
X138326110Y-73928186D01*
X138354509Y-73951491D01*
X138377814Y-73979890D01*
X138395131Y-74012287D01*
X138405795Y-74047440D01*
X138410000Y-74090140D01*
X138410000Y-74753860D01*
X138405795Y-74796560D01*
X138395131Y-74831713D01*
X138377814Y-74864110D01*
X138354509Y-74892509D01*
X138326110Y-74915814D01*
X138293713Y-74933131D01*
X138258560Y-74943795D01*
X138215860Y-74948000D01*
X137602140Y-74948000D01*
X137559440Y-74943795D01*
X137524287Y-74933131D01*
X137491890Y-74915814D01*
X137463491Y-74892509D01*
X137440186Y-74864110D01*
X137422869Y-74831713D01*
X137412205Y-74796560D01*
X137408000Y-74753860D01*
X137408000Y-74090140D01*
X137412205Y-74047440D01*
X137422869Y-74012287D01*
X137440186Y-73979890D01*
X137463491Y-73951491D01*
X137491890Y-73928186D01*
X137524287Y-73910869D01*
X137559440Y-73900205D01*
X137602140Y-73896000D01*
X138215860Y-73896000D01*
X138258560Y-73900205D01*
G37*
G36*
X139808560Y-73900205D02*
G01*
X139843713Y-73910869D01*
X139876110Y-73928186D01*
X139904509Y-73951491D01*
X139927814Y-73979890D01*
X139945131Y-74012287D01*
X139955795Y-74047440D01*
X139960000Y-74090140D01*
X139960000Y-74753860D01*
X139955795Y-74796560D01*
X139945131Y-74831713D01*
X139927814Y-74864110D01*
X139904509Y-74892509D01*
X139876110Y-74915814D01*
X139843713Y-74933131D01*
X139808560Y-74943795D01*
X139765860Y-74948000D01*
X139152140Y-74948000D01*
X139109440Y-74943795D01*
X139074287Y-74933131D01*
X139041890Y-74915814D01*
X139013491Y-74892509D01*
X138990186Y-74864110D01*
X138972869Y-74831713D01*
X138962205Y-74796560D01*
X138958000Y-74753860D01*
X138958000Y-74090140D01*
X138962205Y-74047440D01*
X138972869Y-74012287D01*
X138990186Y-73979890D01*
X139013491Y-73951491D01*
X139041890Y-73928186D01*
X139074287Y-73910869D01*
X139109440Y-73900205D01*
X139152140Y-73896000D01*
X139765860Y-73896000D01*
X139808560Y-73900205D01*
G37*
M02*
