G04 #@! TF.GenerationSoftware,KiCad,Pcbnew,(5.1.5)-3*
G04 #@! TF.CreationDate,2021-04-30T23:34:10+03:00*
G04 #@! TF.ProjectId,HM10USBDongle,484d3130-5553-4424-946f-6e676c652e6b,rev?*
G04 #@! TF.SameCoordinates,Original*
G04 #@! TF.FileFunction,Soldermask,Top*
G04 #@! TF.FilePolarity,Negative*
%FSLAX46Y46*%
G04 Gerber Fmt 4.6, Leading zero omitted, Abs format (unit mm)*
G04 Created by KiCad (PCBNEW (5.1.5)-3) date 2021-04-30 23:34:10*
%MOMM*%
%LPD*%
G04 APERTURE LIST*
%ADD10C,0.100000*%
G04 APERTURE END LIST*
D10*
G36*
X139918354Y-93330375D02*
G01*
X140028439Y-93352272D01*
X140339534Y-93481132D01*
X140619512Y-93668207D01*
X140857613Y-93906308D01*
X141044688Y-94186286D01*
X141161622Y-94468588D01*
X141173548Y-94497382D01*
X141231049Y-94786454D01*
X141239240Y-94827637D01*
X141239240Y-95164363D01*
X141173548Y-95494619D01*
X141044688Y-95805714D01*
X140857613Y-96085692D01*
X140619512Y-96323793D01*
X140339534Y-96510868D01*
X140028439Y-96639728D01*
X139918354Y-96661625D01*
X139698185Y-96705420D01*
X139361455Y-96705420D01*
X139141286Y-96661625D01*
X139031201Y-96639728D01*
X138720106Y-96510868D01*
X138440128Y-96323793D01*
X138202027Y-96085692D01*
X138014952Y-95805714D01*
X137886092Y-95494619D01*
X137820400Y-95164363D01*
X137820400Y-94827637D01*
X137828592Y-94786454D01*
X137886092Y-94497382D01*
X137898019Y-94468588D01*
X138014952Y-94186286D01*
X138202027Y-93906308D01*
X138440128Y-93668207D01*
X138720106Y-93481132D01*
X139031201Y-93352272D01*
X139141286Y-93330375D01*
X139361455Y-93286580D01*
X139698185Y-93286580D01*
X139918354Y-93330375D01*
G37*
G36*
X128320714Y-93330375D02*
G01*
X128430799Y-93352272D01*
X128741894Y-93481132D01*
X129021872Y-93668207D01*
X129259973Y-93906308D01*
X129447048Y-94186286D01*
X129563982Y-94468588D01*
X129575908Y-94497382D01*
X129633409Y-94786454D01*
X129641600Y-94827637D01*
X129641600Y-95164363D01*
X129575908Y-95494619D01*
X129447048Y-95805714D01*
X129259973Y-96085692D01*
X129021872Y-96323793D01*
X128741894Y-96510868D01*
X128430799Y-96639728D01*
X128320714Y-96661625D01*
X128100545Y-96705420D01*
X127763815Y-96705420D01*
X127543646Y-96661625D01*
X127433561Y-96639728D01*
X127122466Y-96510868D01*
X126842488Y-96323793D01*
X126604387Y-96085692D01*
X126417312Y-95805714D01*
X126288452Y-95494619D01*
X126222760Y-95164363D01*
X126222760Y-94827637D01*
X126230952Y-94786454D01*
X126288452Y-94497382D01*
X126300379Y-94468588D01*
X126417312Y-94186286D01*
X126604387Y-93906308D01*
X126842488Y-93668207D01*
X127122466Y-93481132D01*
X127433561Y-93352272D01*
X127543646Y-93330375D01*
X127763815Y-93286580D01*
X128100545Y-93286580D01*
X128320714Y-93330375D01*
G37*
G36*
X131673137Y-94468587D02*
G01*
X131791707Y-94517700D01*
X131898411Y-94588997D01*
X131989163Y-94679749D01*
X132060460Y-94786453D01*
X132109573Y-94905023D01*
X132134610Y-95030891D01*
X132134610Y-95159229D01*
X132109573Y-95285097D01*
X132060460Y-95403667D01*
X131989163Y-95510371D01*
X131898411Y-95601123D01*
X131791707Y-95672420D01*
X131673137Y-95721533D01*
X131547269Y-95746570D01*
X131418931Y-95746570D01*
X131293063Y-95721533D01*
X131174493Y-95672420D01*
X131067789Y-95601123D01*
X130977037Y-95510371D01*
X130905740Y-95403667D01*
X130856627Y-95285097D01*
X130831590Y-95159229D01*
X130831590Y-95030891D01*
X130856627Y-94905023D01*
X130905740Y-94786453D01*
X130977037Y-94679749D01*
X131067789Y-94588997D01*
X131174493Y-94517700D01*
X131293063Y-94468587D01*
X131418931Y-94443550D01*
X131547269Y-94443550D01*
X131673137Y-94468587D01*
G37*
G36*
X136168937Y-94468587D02*
G01*
X136287507Y-94517700D01*
X136394211Y-94588997D01*
X136484963Y-94679749D01*
X136556260Y-94786453D01*
X136605373Y-94905023D01*
X136630410Y-95030891D01*
X136630410Y-95159229D01*
X136605373Y-95285097D01*
X136556260Y-95403667D01*
X136484963Y-95510371D01*
X136394211Y-95601123D01*
X136287507Y-95672420D01*
X136168937Y-95721533D01*
X136043069Y-95746570D01*
X135914731Y-95746570D01*
X135788863Y-95721533D01*
X135670293Y-95672420D01*
X135563589Y-95601123D01*
X135472837Y-95510371D01*
X135401540Y-95403667D01*
X135352427Y-95285097D01*
X135327390Y-95159229D01*
X135327390Y-95030891D01*
X135352427Y-94905023D01*
X135401540Y-94786453D01*
X135472837Y-94679749D01*
X135563589Y-94588997D01*
X135670293Y-94517700D01*
X135788863Y-94468587D01*
X135914731Y-94443550D01*
X136043069Y-94443550D01*
X136168937Y-94468587D01*
G37*
G36*
X132909545Y-91596860D02*
G01*
X133099068Y-91675363D01*
X133269634Y-91789332D01*
X133414688Y-91934386D01*
X133414689Y-91934388D01*
X133528658Y-92104954D01*
X133607160Y-92294475D01*
X133608403Y-92300725D01*
X133615516Y-92324174D01*
X133627067Y-92345784D01*
X133642612Y-92364726D01*
X133661554Y-92380272D01*
X133683165Y-92391823D01*
X133706613Y-92398936D01*
X133731000Y-92401338D01*
X133755386Y-92398936D01*
X133778835Y-92391823D01*
X133800445Y-92380272D01*
X133819387Y-92364727D01*
X133834933Y-92345785D01*
X133846484Y-92324174D01*
X133853597Y-92300725D01*
X133854840Y-92294475D01*
X133933342Y-92104954D01*
X134047311Y-91934388D01*
X134047312Y-91934386D01*
X134192366Y-91789332D01*
X134362932Y-91675363D01*
X134552455Y-91596860D01*
X134753650Y-91556840D01*
X134958790Y-91556840D01*
X135159985Y-91596860D01*
X135349508Y-91675363D01*
X135520074Y-91789332D01*
X135665128Y-91934386D01*
X135779097Y-92104952D01*
X135857600Y-92294475D01*
X135897620Y-92495671D01*
X135897620Y-92700809D01*
X135857600Y-92902005D01*
X135779097Y-93091528D01*
X135665128Y-93262094D01*
X135520074Y-93407148D01*
X135349508Y-93521117D01*
X135349507Y-93521118D01*
X135349506Y-93521118D01*
X135159985Y-93599620D01*
X134958790Y-93639640D01*
X134753650Y-93639640D01*
X134552455Y-93599620D01*
X134362934Y-93521118D01*
X134362933Y-93521118D01*
X134362932Y-93521117D01*
X134192366Y-93407148D01*
X134047312Y-93262094D01*
X133933343Y-93091528D01*
X133854840Y-92902005D01*
X133853596Y-92895753D01*
X133846484Y-92872306D01*
X133834933Y-92850696D01*
X133819388Y-92831754D01*
X133800446Y-92816208D01*
X133778835Y-92804657D01*
X133755387Y-92797544D01*
X133731000Y-92795142D01*
X133706614Y-92797544D01*
X133683165Y-92804657D01*
X133661555Y-92816208D01*
X133642613Y-92831753D01*
X133627067Y-92850695D01*
X133615516Y-92872306D01*
X133608404Y-92895753D01*
X133607160Y-92902005D01*
X133528657Y-93091528D01*
X133414688Y-93262094D01*
X133269634Y-93407148D01*
X133099068Y-93521117D01*
X133099067Y-93521118D01*
X133099066Y-93521118D01*
X132909545Y-93599620D01*
X132708350Y-93639640D01*
X132503210Y-93639640D01*
X132302015Y-93599620D01*
X132112494Y-93521118D01*
X132112493Y-93521118D01*
X132112492Y-93521117D01*
X131941926Y-93407148D01*
X131796872Y-93262094D01*
X131682903Y-93091528D01*
X131604400Y-92902005D01*
X131564380Y-92700809D01*
X131564380Y-92495671D01*
X131604400Y-92294475D01*
X131682903Y-92104952D01*
X131796872Y-91934386D01*
X131941926Y-91789332D01*
X132112492Y-91675363D01*
X132302015Y-91596860D01*
X132503210Y-91556840D01*
X132708350Y-91556840D01*
X132909545Y-91596860D01*
G37*
G36*
X130537185Y-91596860D02*
G01*
X130726708Y-91675363D01*
X130897274Y-91789332D01*
X131042328Y-91934386D01*
X131156297Y-92104952D01*
X131234800Y-92294475D01*
X131274820Y-92495671D01*
X131274820Y-92700809D01*
X131234800Y-92902005D01*
X131156297Y-93091528D01*
X131042328Y-93262094D01*
X130897274Y-93407148D01*
X130726708Y-93521117D01*
X130726707Y-93521118D01*
X130726706Y-93521118D01*
X130537185Y-93599620D01*
X130335990Y-93639640D01*
X130130850Y-93639640D01*
X129929655Y-93599620D01*
X129740134Y-93521118D01*
X129740133Y-93521118D01*
X129740132Y-93521117D01*
X129569566Y-93407148D01*
X129424512Y-93262094D01*
X129310543Y-93091528D01*
X129232040Y-92902005D01*
X129192020Y-92700809D01*
X129192020Y-92495671D01*
X129232040Y-92294475D01*
X129310543Y-92104952D01*
X129424512Y-91934386D01*
X129569566Y-91789332D01*
X129740132Y-91675363D01*
X129929655Y-91596860D01*
X130130850Y-91556840D01*
X130335990Y-91556840D01*
X130537185Y-91596860D01*
G37*
G36*
X137532345Y-91596860D02*
G01*
X137721868Y-91675363D01*
X137892434Y-91789332D01*
X138037488Y-91934386D01*
X138151457Y-92104952D01*
X138229960Y-92294475D01*
X138269980Y-92495671D01*
X138269980Y-92700809D01*
X138229960Y-92902005D01*
X138151457Y-93091528D01*
X138037488Y-93262094D01*
X137892434Y-93407148D01*
X137721868Y-93521117D01*
X137721867Y-93521118D01*
X137721866Y-93521118D01*
X137532345Y-93599620D01*
X137331150Y-93639640D01*
X137126010Y-93639640D01*
X136924815Y-93599620D01*
X136735294Y-93521118D01*
X136735293Y-93521118D01*
X136735292Y-93521117D01*
X136564726Y-93407148D01*
X136419672Y-93262094D01*
X136305703Y-93091528D01*
X136227200Y-92902005D01*
X136187180Y-92700809D01*
X136187180Y-92495671D01*
X136227200Y-92294475D01*
X136305703Y-92104952D01*
X136419672Y-91934386D01*
X136564726Y-91789332D01*
X136735292Y-91675363D01*
X136924815Y-91596860D01*
X137126010Y-91556840D01*
X137331150Y-91556840D01*
X137532345Y-91596860D01*
G37*
G36*
X138050433Y-86357686D02*
G01*
X138090283Y-86369774D01*
X138126998Y-86389399D01*
X138159185Y-86415814D01*
X138185600Y-86448001D01*
X138205225Y-86484716D01*
X138217313Y-86524566D01*
X138221999Y-86572141D01*
X138221999Y-88035859D01*
X138217313Y-88083434D01*
X138205225Y-88123284D01*
X138185600Y-88159999D01*
X138159185Y-88192186D01*
X138126998Y-88218601D01*
X138090283Y-88238226D01*
X138050433Y-88250314D01*
X138002858Y-88255000D01*
X137339140Y-88255000D01*
X137291565Y-88250314D01*
X137251715Y-88238226D01*
X137215000Y-88218601D01*
X137182813Y-88192186D01*
X137156398Y-88159999D01*
X137136773Y-88123284D01*
X137124685Y-88083434D01*
X137119999Y-88035859D01*
X137119999Y-86572141D01*
X137124685Y-86524566D01*
X137136773Y-86484716D01*
X137156398Y-86448001D01*
X137182813Y-86415814D01*
X137215000Y-86389399D01*
X137251715Y-86369774D01*
X137291565Y-86357686D01*
X137339140Y-86353000D01*
X138002858Y-86353000D01*
X138050433Y-86357686D01*
G37*
G36*
X132050433Y-86357686D02*
G01*
X132090283Y-86369774D01*
X132126998Y-86389399D01*
X132159185Y-86415814D01*
X132185600Y-86448001D01*
X132205225Y-86484716D01*
X132217313Y-86524566D01*
X132221999Y-86572141D01*
X132221999Y-88035859D01*
X132217313Y-88083434D01*
X132205225Y-88123284D01*
X132185600Y-88159999D01*
X132159185Y-88192186D01*
X132126998Y-88218601D01*
X132090283Y-88238226D01*
X132050433Y-88250314D01*
X132002858Y-88255000D01*
X131339140Y-88255000D01*
X131291565Y-88250314D01*
X131251715Y-88238226D01*
X131215000Y-88218601D01*
X131182813Y-88192186D01*
X131156398Y-88159999D01*
X131136773Y-88123284D01*
X131124685Y-88083434D01*
X131119999Y-88035859D01*
X131119999Y-86572141D01*
X131124685Y-86524566D01*
X131136773Y-86484716D01*
X131156398Y-86448001D01*
X131182813Y-86415814D01*
X131215000Y-86389399D01*
X131251715Y-86369774D01*
X131291565Y-86357686D01*
X131339140Y-86353000D01*
X132002858Y-86353000D01*
X132050433Y-86357686D01*
G37*
G36*
X130550433Y-86357686D02*
G01*
X130590283Y-86369774D01*
X130626998Y-86389399D01*
X130659185Y-86415814D01*
X130685600Y-86448001D01*
X130705225Y-86484716D01*
X130717313Y-86524566D01*
X130721999Y-86572141D01*
X130721999Y-88035859D01*
X130717313Y-88083434D01*
X130705225Y-88123284D01*
X130685600Y-88159999D01*
X130659185Y-88192186D01*
X130626998Y-88218601D01*
X130590283Y-88238226D01*
X130550433Y-88250314D01*
X130502858Y-88255000D01*
X129839140Y-88255000D01*
X129791565Y-88250314D01*
X129751715Y-88238226D01*
X129715000Y-88218601D01*
X129682813Y-88192186D01*
X129656398Y-88159999D01*
X129636773Y-88123284D01*
X129624685Y-88083434D01*
X129619999Y-88035859D01*
X129619999Y-86572141D01*
X129624685Y-86524566D01*
X129636773Y-86484716D01*
X129656398Y-86448001D01*
X129682813Y-86415814D01*
X129715000Y-86389399D01*
X129751715Y-86369774D01*
X129791565Y-86357686D01*
X129839140Y-86353000D01*
X130502858Y-86353000D01*
X130550433Y-86357686D01*
G37*
G36*
X135050433Y-86357686D02*
G01*
X135090283Y-86369774D01*
X135126998Y-86389399D01*
X135159185Y-86415814D01*
X135185600Y-86448001D01*
X135205225Y-86484716D01*
X135217313Y-86524566D01*
X135221999Y-86572141D01*
X135221999Y-88035859D01*
X135217313Y-88083434D01*
X135205225Y-88123284D01*
X135185600Y-88159999D01*
X135159185Y-88192186D01*
X135126998Y-88218601D01*
X135090283Y-88238226D01*
X135050433Y-88250314D01*
X135002858Y-88255000D01*
X134339140Y-88255000D01*
X134291565Y-88250314D01*
X134251715Y-88238226D01*
X134215000Y-88218601D01*
X134182813Y-88192186D01*
X134156398Y-88159999D01*
X134136773Y-88123284D01*
X134124685Y-88083434D01*
X134119999Y-88035859D01*
X134119999Y-86572141D01*
X134124685Y-86524566D01*
X134136773Y-86484716D01*
X134156398Y-86448001D01*
X134182813Y-86415814D01*
X134215000Y-86389399D01*
X134251715Y-86369774D01*
X134291565Y-86357686D01*
X134339140Y-86353000D01*
X135002858Y-86353000D01*
X135050433Y-86357686D01*
G37*
G36*
X139481449Y-86345483D02*
G01*
X139517031Y-86354396D01*
X139550433Y-86357686D01*
X139590283Y-86369774D01*
X139626998Y-86389399D01*
X139659185Y-86415814D01*
X139685600Y-86448001D01*
X139705225Y-86484716D01*
X139717313Y-86524566D01*
X139721999Y-86572141D01*
X139721999Y-88035859D01*
X139717313Y-88083434D01*
X139705225Y-88123284D01*
X139685600Y-88159999D01*
X139659185Y-88192186D01*
X139626998Y-88218601D01*
X139590283Y-88238226D01*
X139550433Y-88250314D01*
X139502858Y-88255000D01*
X138839140Y-88255000D01*
X138791565Y-88250314D01*
X138751715Y-88238226D01*
X138715000Y-88218601D01*
X138682813Y-88192186D01*
X138656398Y-88159999D01*
X138636773Y-88123284D01*
X138624685Y-88083434D01*
X138619999Y-88035859D01*
X138619999Y-86572141D01*
X138624685Y-86524566D01*
X138636773Y-86484716D01*
X138656398Y-86448001D01*
X138682813Y-86415814D01*
X138715000Y-86389399D01*
X138751715Y-86369774D01*
X138791565Y-86357686D01*
X138839140Y-86353000D01*
X139412714Y-86353000D01*
X139437100Y-86350598D01*
X139460549Y-86343485D01*
X139469130Y-86338899D01*
X139481449Y-86345483D01*
G37*
G36*
X136550433Y-86357686D02*
G01*
X136590283Y-86369774D01*
X136626998Y-86389399D01*
X136659185Y-86415814D01*
X136685600Y-86448001D01*
X136705225Y-86484716D01*
X136717313Y-86524566D01*
X136721999Y-86572141D01*
X136721999Y-88035859D01*
X136717313Y-88083434D01*
X136705225Y-88123284D01*
X136685600Y-88159999D01*
X136659185Y-88192186D01*
X136626998Y-88218601D01*
X136590283Y-88238226D01*
X136550433Y-88250314D01*
X136502858Y-88255000D01*
X135839140Y-88255000D01*
X135791565Y-88250314D01*
X135751715Y-88238226D01*
X135715000Y-88218601D01*
X135682813Y-88192186D01*
X135656398Y-88159999D01*
X135636773Y-88123284D01*
X135624685Y-88083434D01*
X135619999Y-88035859D01*
X135619999Y-86572141D01*
X135624685Y-86524566D01*
X135636773Y-86484716D01*
X135656398Y-86448001D01*
X135682813Y-86415814D01*
X135715000Y-86389399D01*
X135751715Y-86369774D01*
X135791565Y-86357686D01*
X135839140Y-86353000D01*
X136502858Y-86353000D01*
X136550433Y-86357686D01*
G37*
G36*
X133550433Y-86357686D02*
G01*
X133590283Y-86369774D01*
X133626998Y-86389399D01*
X133659185Y-86415814D01*
X133685600Y-86448001D01*
X133705225Y-86484716D01*
X133717313Y-86524566D01*
X133721999Y-86572141D01*
X133721999Y-88035859D01*
X133717313Y-88083434D01*
X133705225Y-88123284D01*
X133685600Y-88159999D01*
X133659185Y-88192186D01*
X133626998Y-88218601D01*
X133590283Y-88238226D01*
X133550433Y-88250314D01*
X133502858Y-88255000D01*
X132839140Y-88255000D01*
X132791565Y-88250314D01*
X132751715Y-88238226D01*
X132715000Y-88218601D01*
X132682813Y-88192186D01*
X132656398Y-88159999D01*
X132636773Y-88123284D01*
X132624685Y-88083434D01*
X132619999Y-88035859D01*
X132619999Y-86572141D01*
X132624685Y-86524566D01*
X132636773Y-86484716D01*
X132656398Y-86448001D01*
X132682813Y-86415814D01*
X132715000Y-86389399D01*
X132751715Y-86369774D01*
X132791565Y-86357686D01*
X132839140Y-86353000D01*
X133502858Y-86353000D01*
X133550433Y-86357686D01*
G37*
G36*
X129050433Y-86357686D02*
G01*
X129090283Y-86369774D01*
X129126998Y-86389399D01*
X129159185Y-86415814D01*
X129185600Y-86448001D01*
X129205225Y-86484716D01*
X129217313Y-86524566D01*
X129221999Y-86572141D01*
X129221999Y-88035859D01*
X129217313Y-88083434D01*
X129205225Y-88123284D01*
X129185600Y-88159999D01*
X129159185Y-88192186D01*
X129126998Y-88218601D01*
X129090283Y-88238226D01*
X129050433Y-88250314D01*
X129002858Y-88255000D01*
X128339140Y-88255000D01*
X128291565Y-88250314D01*
X128251715Y-88238226D01*
X128215000Y-88218601D01*
X128182813Y-88192186D01*
X128156398Y-88159999D01*
X128136773Y-88123284D01*
X128124685Y-88083434D01*
X128119999Y-88035859D01*
X128119999Y-86572141D01*
X128124685Y-86524566D01*
X128136773Y-86484716D01*
X128156398Y-86448001D01*
X128182813Y-86415814D01*
X128215000Y-86389399D01*
X128251715Y-86369774D01*
X128291565Y-86357686D01*
X128339140Y-86353000D01*
X129002858Y-86353000D01*
X129050433Y-86357686D01*
G37*
G36*
X140950433Y-85007686D02*
G01*
X140990283Y-85019774D01*
X141026998Y-85039399D01*
X141059185Y-85065814D01*
X141085600Y-85098001D01*
X141105225Y-85134716D01*
X141117313Y-85174566D01*
X141121999Y-85222141D01*
X141121999Y-85885859D01*
X141117313Y-85933434D01*
X141105225Y-85973284D01*
X141085600Y-86009999D01*
X141059185Y-86042186D01*
X141026998Y-86068601D01*
X140990283Y-86088226D01*
X140950433Y-86100314D01*
X140902858Y-86105000D01*
X139529284Y-86105000D01*
X139504898Y-86107402D01*
X139481449Y-86114515D01*
X139472868Y-86119101D01*
X139460549Y-86112517D01*
X139424967Y-86103604D01*
X139391565Y-86100314D01*
X139351715Y-86088226D01*
X139315000Y-86068601D01*
X139282813Y-86042186D01*
X139256398Y-86009999D01*
X139236773Y-85973284D01*
X139224685Y-85933434D01*
X139219999Y-85885859D01*
X139219999Y-85222141D01*
X139224685Y-85174566D01*
X139236773Y-85134716D01*
X139256398Y-85098001D01*
X139282813Y-85065814D01*
X139315000Y-85039399D01*
X139351715Y-85019774D01*
X139391565Y-85007686D01*
X139439140Y-85003000D01*
X140902858Y-85003000D01*
X140950433Y-85007686D01*
G37*
G36*
X128200433Y-85007686D02*
G01*
X128240283Y-85019774D01*
X128276998Y-85039399D01*
X128309185Y-85065814D01*
X128335600Y-85098001D01*
X128355225Y-85134716D01*
X128367313Y-85174566D01*
X128371999Y-85222141D01*
X128371999Y-85885859D01*
X128367313Y-85933434D01*
X128355225Y-85973284D01*
X128335600Y-86009999D01*
X128309185Y-86042186D01*
X128276998Y-86068601D01*
X128240283Y-86088226D01*
X128200433Y-86100314D01*
X128152858Y-86105000D01*
X126689140Y-86105000D01*
X126641565Y-86100314D01*
X126601715Y-86088226D01*
X126565000Y-86068601D01*
X126532813Y-86042186D01*
X126506398Y-86009999D01*
X126486773Y-85973284D01*
X126474685Y-85933434D01*
X126469999Y-85885859D01*
X126469999Y-85222141D01*
X126474685Y-85174566D01*
X126486773Y-85134716D01*
X126506398Y-85098001D01*
X126532813Y-85065814D01*
X126565000Y-85039399D01*
X126601715Y-85019774D01*
X126641565Y-85007686D01*
X126689140Y-85003000D01*
X128152858Y-85003000D01*
X128200433Y-85007686D01*
G37*
G36*
X140950433Y-83507686D02*
G01*
X140990283Y-83519774D01*
X141026998Y-83539399D01*
X141059185Y-83565814D01*
X141085600Y-83598001D01*
X141105225Y-83634716D01*
X141117313Y-83674566D01*
X141121999Y-83722141D01*
X141121999Y-84385859D01*
X141117313Y-84433434D01*
X141105225Y-84473284D01*
X141085600Y-84509999D01*
X141059185Y-84542186D01*
X141026998Y-84568601D01*
X140990283Y-84588226D01*
X140950433Y-84600314D01*
X140902858Y-84605000D01*
X139439140Y-84605000D01*
X139391565Y-84600314D01*
X139351715Y-84588226D01*
X139315000Y-84568601D01*
X139282813Y-84542186D01*
X139256398Y-84509999D01*
X139236773Y-84473284D01*
X139224685Y-84433434D01*
X139219999Y-84385859D01*
X139219999Y-83722141D01*
X139224685Y-83674566D01*
X139236773Y-83634716D01*
X139256398Y-83598001D01*
X139282813Y-83565814D01*
X139315000Y-83539399D01*
X139351715Y-83519774D01*
X139391565Y-83507686D01*
X139439140Y-83503000D01*
X140902858Y-83503000D01*
X140950433Y-83507686D01*
G37*
G36*
X128200433Y-83507686D02*
G01*
X128240283Y-83519774D01*
X128276998Y-83539399D01*
X128309185Y-83565814D01*
X128335600Y-83598001D01*
X128355225Y-83634716D01*
X128367313Y-83674566D01*
X128371999Y-83722141D01*
X128371999Y-84385859D01*
X128367313Y-84433434D01*
X128355225Y-84473284D01*
X128335600Y-84509999D01*
X128309185Y-84542186D01*
X128276998Y-84568601D01*
X128240283Y-84588226D01*
X128200433Y-84600314D01*
X128152858Y-84605000D01*
X126689140Y-84605000D01*
X126641565Y-84600314D01*
X126601715Y-84588226D01*
X126565000Y-84568601D01*
X126532813Y-84542186D01*
X126506398Y-84509999D01*
X126486773Y-84473284D01*
X126474685Y-84433434D01*
X126469999Y-84385859D01*
X126469999Y-83722141D01*
X126474685Y-83674566D01*
X126486773Y-83634716D01*
X126506398Y-83598001D01*
X126532813Y-83565814D01*
X126565000Y-83539399D01*
X126601715Y-83519774D01*
X126641565Y-83507686D01*
X126689140Y-83503000D01*
X128152858Y-83503000D01*
X128200433Y-83507686D01*
G37*
G36*
X128200433Y-82007686D02*
G01*
X128240283Y-82019774D01*
X128276998Y-82039399D01*
X128309185Y-82065814D01*
X128335600Y-82098001D01*
X128355225Y-82134716D01*
X128367313Y-82174566D01*
X128371999Y-82222141D01*
X128371999Y-82885859D01*
X128367313Y-82933434D01*
X128355225Y-82973284D01*
X128335600Y-83009999D01*
X128309185Y-83042186D01*
X128276998Y-83068601D01*
X128240283Y-83088226D01*
X128200433Y-83100314D01*
X128152858Y-83105000D01*
X126689140Y-83105000D01*
X126641565Y-83100314D01*
X126601715Y-83088226D01*
X126565000Y-83068601D01*
X126532813Y-83042186D01*
X126506398Y-83009999D01*
X126486773Y-82973284D01*
X126474685Y-82933434D01*
X126469999Y-82885859D01*
X126469999Y-82222141D01*
X126474685Y-82174566D01*
X126486773Y-82134716D01*
X126506398Y-82098001D01*
X126532813Y-82065814D01*
X126565000Y-82039399D01*
X126601715Y-82019774D01*
X126641565Y-82007686D01*
X126689140Y-82003000D01*
X128152858Y-82003000D01*
X128200433Y-82007686D01*
G37*
G36*
X140950433Y-82007686D02*
G01*
X140990283Y-82019774D01*
X141026998Y-82039399D01*
X141059185Y-82065814D01*
X141085600Y-82098001D01*
X141105225Y-82134716D01*
X141117313Y-82174566D01*
X141121999Y-82222141D01*
X141121999Y-82885859D01*
X141117313Y-82933434D01*
X141105225Y-82973284D01*
X141085600Y-83009999D01*
X141059185Y-83042186D01*
X141026998Y-83068601D01*
X140990283Y-83088226D01*
X140950433Y-83100314D01*
X140902858Y-83105000D01*
X139439140Y-83105000D01*
X139391565Y-83100314D01*
X139351715Y-83088226D01*
X139315000Y-83068601D01*
X139282813Y-83042186D01*
X139256398Y-83009999D01*
X139236773Y-82973284D01*
X139224685Y-82933434D01*
X139219999Y-82885859D01*
X139219999Y-82222141D01*
X139224685Y-82174566D01*
X139236773Y-82134716D01*
X139256398Y-82098001D01*
X139282813Y-82065814D01*
X139315000Y-82039399D01*
X139351715Y-82019774D01*
X139391565Y-82007686D01*
X139439140Y-82003000D01*
X140902858Y-82003000D01*
X140950433Y-82007686D01*
G37*
G36*
X128200433Y-80507686D02*
G01*
X128240283Y-80519774D01*
X128276998Y-80539399D01*
X128309185Y-80565814D01*
X128335600Y-80598001D01*
X128355225Y-80634716D01*
X128367313Y-80674566D01*
X128371999Y-80722141D01*
X128371999Y-81385859D01*
X128367313Y-81433434D01*
X128355225Y-81473284D01*
X128335600Y-81509999D01*
X128309185Y-81542186D01*
X128276998Y-81568601D01*
X128240283Y-81588226D01*
X128200433Y-81600314D01*
X128152858Y-81605000D01*
X126689140Y-81605000D01*
X126641565Y-81600314D01*
X126601715Y-81588226D01*
X126565000Y-81568601D01*
X126532813Y-81542186D01*
X126506398Y-81509999D01*
X126486773Y-81473284D01*
X126474685Y-81433434D01*
X126469999Y-81385859D01*
X126469999Y-80722141D01*
X126474685Y-80674566D01*
X126486773Y-80634716D01*
X126506398Y-80598001D01*
X126532813Y-80565814D01*
X126565000Y-80539399D01*
X126601715Y-80519774D01*
X126641565Y-80507686D01*
X126689140Y-80503000D01*
X128152858Y-80503000D01*
X128200433Y-80507686D01*
G37*
G36*
X140950433Y-80507686D02*
G01*
X140990283Y-80519774D01*
X141026998Y-80539399D01*
X141059185Y-80565814D01*
X141085600Y-80598001D01*
X141105225Y-80634716D01*
X141117313Y-80674566D01*
X141121999Y-80722141D01*
X141121999Y-81385859D01*
X141117313Y-81433434D01*
X141105225Y-81473284D01*
X141085600Y-81509999D01*
X141059185Y-81542186D01*
X141026998Y-81568601D01*
X140990283Y-81588226D01*
X140950433Y-81600314D01*
X140902858Y-81605000D01*
X139439140Y-81605000D01*
X139391565Y-81600314D01*
X139351715Y-81588226D01*
X139315000Y-81568601D01*
X139282813Y-81542186D01*
X139256398Y-81509999D01*
X139236773Y-81473284D01*
X139224685Y-81433434D01*
X139219999Y-81385859D01*
X139219999Y-80722141D01*
X139224685Y-80674566D01*
X139236773Y-80634716D01*
X139256398Y-80598001D01*
X139282813Y-80565814D01*
X139315000Y-80539399D01*
X139351715Y-80519774D01*
X139391565Y-80507686D01*
X139439140Y-80503000D01*
X140902858Y-80503000D01*
X140950433Y-80507686D01*
G37*
G36*
X140950433Y-79007686D02*
G01*
X140990283Y-79019774D01*
X141026998Y-79039399D01*
X141059185Y-79065814D01*
X141085600Y-79098001D01*
X141105225Y-79134716D01*
X141117313Y-79174566D01*
X141121999Y-79222141D01*
X141121999Y-79885859D01*
X141117313Y-79933434D01*
X141105225Y-79973284D01*
X141085600Y-80009999D01*
X141059185Y-80042186D01*
X141026998Y-80068601D01*
X140990283Y-80088226D01*
X140950433Y-80100314D01*
X140902858Y-80105000D01*
X139439140Y-80105000D01*
X139391565Y-80100314D01*
X139351715Y-80088226D01*
X139315000Y-80068601D01*
X139282813Y-80042186D01*
X139256398Y-80009999D01*
X139236773Y-79973284D01*
X139224685Y-79933434D01*
X139219999Y-79885859D01*
X139219999Y-79222141D01*
X139224685Y-79174566D01*
X139236773Y-79134716D01*
X139256398Y-79098001D01*
X139282813Y-79065814D01*
X139315000Y-79039399D01*
X139351715Y-79019774D01*
X139391565Y-79007686D01*
X139439140Y-79003000D01*
X140902858Y-79003000D01*
X140950433Y-79007686D01*
G37*
G36*
X128200433Y-79007686D02*
G01*
X128240283Y-79019774D01*
X128276998Y-79039399D01*
X128309185Y-79065814D01*
X128335600Y-79098001D01*
X128355225Y-79134716D01*
X128367313Y-79174566D01*
X128371999Y-79222141D01*
X128371999Y-79885859D01*
X128367313Y-79933434D01*
X128355225Y-79973284D01*
X128335600Y-80009999D01*
X128309185Y-80042186D01*
X128276998Y-80068601D01*
X128240283Y-80088226D01*
X128200433Y-80100314D01*
X128152858Y-80105000D01*
X126689140Y-80105000D01*
X126641565Y-80100314D01*
X126601715Y-80088226D01*
X126565000Y-80068601D01*
X126532813Y-80042186D01*
X126506398Y-80009999D01*
X126486773Y-79973284D01*
X126474685Y-79933434D01*
X126469999Y-79885859D01*
X126469999Y-79222141D01*
X126474685Y-79174566D01*
X126486773Y-79134716D01*
X126506398Y-79098001D01*
X126532813Y-79065814D01*
X126565000Y-79039399D01*
X126601715Y-79019774D01*
X126641565Y-79007686D01*
X126689140Y-79003000D01*
X128152858Y-79003000D01*
X128200433Y-79007686D01*
G37*
G36*
X140950433Y-77507686D02*
G01*
X140990283Y-77519774D01*
X141026998Y-77539399D01*
X141059185Y-77565814D01*
X141085600Y-77598001D01*
X141105225Y-77634716D01*
X141117313Y-77674566D01*
X141121999Y-77722141D01*
X141121999Y-78385859D01*
X141117313Y-78433434D01*
X141105225Y-78473284D01*
X141085600Y-78509999D01*
X141059185Y-78542186D01*
X141026998Y-78568601D01*
X140990283Y-78588226D01*
X140950433Y-78600314D01*
X140902858Y-78605000D01*
X139439140Y-78605000D01*
X139391565Y-78600314D01*
X139351715Y-78588226D01*
X139315000Y-78568601D01*
X139282813Y-78542186D01*
X139256398Y-78509999D01*
X139236773Y-78473284D01*
X139224685Y-78433434D01*
X139219999Y-78385859D01*
X139219999Y-77722141D01*
X139224685Y-77674566D01*
X139236773Y-77634716D01*
X139256398Y-77598001D01*
X139282813Y-77565814D01*
X139315000Y-77539399D01*
X139351715Y-77519774D01*
X139391565Y-77507686D01*
X139439140Y-77503000D01*
X140902858Y-77503000D01*
X140950433Y-77507686D01*
G37*
G36*
X128200433Y-77507686D02*
G01*
X128240283Y-77519774D01*
X128276998Y-77539399D01*
X128309185Y-77565814D01*
X128335600Y-77598001D01*
X128355225Y-77634716D01*
X128367313Y-77674566D01*
X128371999Y-77722141D01*
X128371999Y-78385859D01*
X128367313Y-78433434D01*
X128355225Y-78473284D01*
X128335600Y-78509999D01*
X128309185Y-78542186D01*
X128276998Y-78568601D01*
X128240283Y-78588226D01*
X128200433Y-78600314D01*
X128152858Y-78605000D01*
X126689140Y-78605000D01*
X126641565Y-78600314D01*
X126601715Y-78588226D01*
X126565000Y-78568601D01*
X126532813Y-78542186D01*
X126506398Y-78509999D01*
X126486773Y-78473284D01*
X126474685Y-78433434D01*
X126469999Y-78385859D01*
X126469999Y-77722141D01*
X126474685Y-77674566D01*
X126486773Y-77634716D01*
X126506398Y-77598001D01*
X126532813Y-77565814D01*
X126565000Y-77539399D01*
X126601715Y-77519774D01*
X126641565Y-77507686D01*
X126689140Y-77503000D01*
X128152858Y-77503000D01*
X128200433Y-77507686D01*
G37*
G36*
X140950433Y-76007686D02*
G01*
X140990283Y-76019774D01*
X141026998Y-76039399D01*
X141059185Y-76065814D01*
X141085600Y-76098001D01*
X141105225Y-76134716D01*
X141117313Y-76174566D01*
X141121999Y-76222141D01*
X141121999Y-76885859D01*
X141117313Y-76933434D01*
X141105225Y-76973284D01*
X141085600Y-77009999D01*
X141059185Y-77042186D01*
X141026998Y-77068601D01*
X140990283Y-77088226D01*
X140950433Y-77100314D01*
X140902858Y-77105000D01*
X139439140Y-77105000D01*
X139391565Y-77100314D01*
X139351715Y-77088226D01*
X139315000Y-77068601D01*
X139282813Y-77042186D01*
X139256398Y-77009999D01*
X139236773Y-76973284D01*
X139224685Y-76933434D01*
X139219999Y-76885859D01*
X139219999Y-76222141D01*
X139224685Y-76174566D01*
X139236773Y-76134716D01*
X139256398Y-76098001D01*
X139282813Y-76065814D01*
X139315000Y-76039399D01*
X139351715Y-76019774D01*
X139391565Y-76007686D01*
X139439140Y-76003000D01*
X140902858Y-76003000D01*
X140950433Y-76007686D01*
G37*
G36*
X128200433Y-76007686D02*
G01*
X128240283Y-76019774D01*
X128276998Y-76039399D01*
X128309185Y-76065814D01*
X128335600Y-76098001D01*
X128355225Y-76134716D01*
X128367313Y-76174566D01*
X128371999Y-76222141D01*
X128371999Y-76885859D01*
X128367313Y-76933434D01*
X128355225Y-76973284D01*
X128335600Y-77009999D01*
X128309185Y-77042186D01*
X128276998Y-77068601D01*
X128240283Y-77088226D01*
X128200433Y-77100314D01*
X128152858Y-77105000D01*
X126689140Y-77105000D01*
X126641565Y-77100314D01*
X126601715Y-77088226D01*
X126565000Y-77068601D01*
X126532813Y-77042186D01*
X126506398Y-77009999D01*
X126486773Y-76973284D01*
X126474685Y-76933434D01*
X126469999Y-76885859D01*
X126469999Y-76222141D01*
X126474685Y-76174566D01*
X126486773Y-76134716D01*
X126506398Y-76098001D01*
X126532813Y-76065814D01*
X126565000Y-76039399D01*
X126601715Y-76019774D01*
X126641565Y-76007686D01*
X126689140Y-76003000D01*
X128152858Y-76003000D01*
X128200433Y-76007686D01*
G37*
G36*
X128200433Y-74507686D02*
G01*
X128240283Y-74519774D01*
X128276998Y-74539399D01*
X128309185Y-74565814D01*
X128335600Y-74598001D01*
X128355225Y-74634716D01*
X128367313Y-74674566D01*
X128371999Y-74722141D01*
X128371999Y-75385859D01*
X128367313Y-75433434D01*
X128355225Y-75473284D01*
X128335600Y-75509999D01*
X128309185Y-75542186D01*
X128276998Y-75568601D01*
X128240283Y-75588226D01*
X128200433Y-75600314D01*
X128152858Y-75605000D01*
X126689140Y-75605000D01*
X126641565Y-75600314D01*
X126601715Y-75588226D01*
X126565000Y-75568601D01*
X126532813Y-75542186D01*
X126506398Y-75509999D01*
X126486773Y-75473284D01*
X126474685Y-75433434D01*
X126469999Y-75385859D01*
X126469999Y-74722141D01*
X126474685Y-74674566D01*
X126486773Y-74634716D01*
X126506398Y-74598001D01*
X126532813Y-74565814D01*
X126565000Y-74539399D01*
X126601715Y-74519774D01*
X126641565Y-74507686D01*
X126689140Y-74503000D01*
X128152858Y-74503000D01*
X128200433Y-74507686D01*
G37*
G36*
X140950433Y-74507686D02*
G01*
X140990283Y-74519774D01*
X141026998Y-74539399D01*
X141059185Y-74565814D01*
X141085600Y-74598001D01*
X141105225Y-74634716D01*
X141117313Y-74674566D01*
X141121999Y-74722141D01*
X141121999Y-75385859D01*
X141117313Y-75433434D01*
X141105225Y-75473284D01*
X141085600Y-75509999D01*
X141059185Y-75542186D01*
X141026998Y-75568601D01*
X140990283Y-75588226D01*
X140950433Y-75600314D01*
X140902858Y-75605000D01*
X139439140Y-75605000D01*
X139391565Y-75600314D01*
X139351715Y-75588226D01*
X139315000Y-75568601D01*
X139282813Y-75542186D01*
X139256398Y-75509999D01*
X139236773Y-75473284D01*
X139224685Y-75433434D01*
X139219999Y-75385859D01*
X139219999Y-74722141D01*
X139224685Y-74674566D01*
X139236773Y-74634716D01*
X139256398Y-74598001D01*
X139282813Y-74565814D01*
X139315000Y-74539399D01*
X139351715Y-74519774D01*
X139391565Y-74507686D01*
X139439140Y-74503000D01*
X140902858Y-74503000D01*
X140950433Y-74507686D01*
G37*
G36*
X140950433Y-73007686D02*
G01*
X140990283Y-73019774D01*
X141026998Y-73039399D01*
X141059185Y-73065814D01*
X141085600Y-73098001D01*
X141105225Y-73134716D01*
X141117313Y-73174566D01*
X141121999Y-73222141D01*
X141121999Y-73885859D01*
X141117313Y-73933434D01*
X141105225Y-73973284D01*
X141085600Y-74009999D01*
X141059185Y-74042186D01*
X141026998Y-74068601D01*
X140990283Y-74088226D01*
X140950433Y-74100314D01*
X140902858Y-74105000D01*
X139439140Y-74105000D01*
X139391565Y-74100314D01*
X139351715Y-74088226D01*
X139315000Y-74068601D01*
X139282813Y-74042186D01*
X139256398Y-74009999D01*
X139236773Y-73973284D01*
X139224685Y-73933434D01*
X139219999Y-73885859D01*
X139219999Y-73222141D01*
X139224685Y-73174566D01*
X139236773Y-73134716D01*
X139256398Y-73098001D01*
X139282813Y-73065814D01*
X139315000Y-73039399D01*
X139351715Y-73019774D01*
X139391565Y-73007686D01*
X139439140Y-73003000D01*
X140902858Y-73003000D01*
X140950433Y-73007686D01*
G37*
G36*
X128200433Y-73007686D02*
G01*
X128240283Y-73019774D01*
X128276998Y-73039399D01*
X128309185Y-73065814D01*
X128335600Y-73098001D01*
X128355225Y-73134716D01*
X128367313Y-73174566D01*
X128371999Y-73222141D01*
X128371999Y-73885859D01*
X128367313Y-73933434D01*
X128355225Y-73973284D01*
X128335600Y-74009999D01*
X128309185Y-74042186D01*
X128276998Y-74068601D01*
X128240283Y-74088226D01*
X128200433Y-74100314D01*
X128152858Y-74105000D01*
X126689140Y-74105000D01*
X126641565Y-74100314D01*
X126601715Y-74088226D01*
X126565000Y-74068601D01*
X126532813Y-74042186D01*
X126506398Y-74009999D01*
X126486773Y-73973284D01*
X126474685Y-73933434D01*
X126469999Y-73885859D01*
X126469999Y-73222141D01*
X126474685Y-73174566D01*
X126486773Y-73134716D01*
X126506398Y-73098001D01*
X126532813Y-73065814D01*
X126565000Y-73039399D01*
X126601715Y-73019774D01*
X126641565Y-73007686D01*
X126689140Y-73003000D01*
X128152858Y-73003000D01*
X128200433Y-73007686D01*
G37*
G36*
X128200433Y-71507686D02*
G01*
X128240283Y-71519774D01*
X128276998Y-71539399D01*
X128309185Y-71565814D01*
X128335600Y-71598001D01*
X128355225Y-71634716D01*
X128367313Y-71674566D01*
X128371999Y-71722141D01*
X128371999Y-72385859D01*
X128367313Y-72433434D01*
X128355225Y-72473284D01*
X128335600Y-72509999D01*
X128309185Y-72542186D01*
X128276998Y-72568601D01*
X128240283Y-72588226D01*
X128200433Y-72600314D01*
X128152858Y-72605000D01*
X126689140Y-72605000D01*
X126641565Y-72600314D01*
X126601715Y-72588226D01*
X126565000Y-72568601D01*
X126532813Y-72542186D01*
X126506398Y-72509999D01*
X126486773Y-72473284D01*
X126474685Y-72433434D01*
X126469999Y-72385859D01*
X126469999Y-71722141D01*
X126474685Y-71674566D01*
X126486773Y-71634716D01*
X126506398Y-71598001D01*
X126532813Y-71565814D01*
X126565000Y-71539399D01*
X126601715Y-71519774D01*
X126641565Y-71507686D01*
X126689140Y-71503000D01*
X128152858Y-71503000D01*
X128200433Y-71507686D01*
G37*
G36*
X140950433Y-71507686D02*
G01*
X140990283Y-71519774D01*
X141026998Y-71539399D01*
X141059185Y-71565814D01*
X141085600Y-71598001D01*
X141105225Y-71634716D01*
X141117313Y-71674566D01*
X141121999Y-71722141D01*
X141121999Y-72385859D01*
X141117313Y-72433434D01*
X141105225Y-72473284D01*
X141085600Y-72509999D01*
X141059185Y-72542186D01*
X141026998Y-72568601D01*
X140990283Y-72588226D01*
X140950433Y-72600314D01*
X140902858Y-72605000D01*
X139439140Y-72605000D01*
X139391565Y-72600314D01*
X139351715Y-72588226D01*
X139315000Y-72568601D01*
X139282813Y-72542186D01*
X139256398Y-72509999D01*
X139236773Y-72473284D01*
X139224685Y-72433434D01*
X139219999Y-72385859D01*
X139219999Y-71722141D01*
X139224685Y-71674566D01*
X139236773Y-71634716D01*
X139256398Y-71598001D01*
X139282813Y-71565814D01*
X139315000Y-71539399D01*
X139351715Y-71519774D01*
X139391565Y-71507686D01*
X139439140Y-71503000D01*
X140902858Y-71503000D01*
X140950433Y-71507686D01*
G37*
G36*
X140950433Y-70007686D02*
G01*
X140990283Y-70019774D01*
X141026998Y-70039399D01*
X141059185Y-70065814D01*
X141085600Y-70098001D01*
X141105225Y-70134716D01*
X141117313Y-70174566D01*
X141121999Y-70222141D01*
X141121999Y-70885859D01*
X141117313Y-70933434D01*
X141105225Y-70973284D01*
X141085600Y-71009999D01*
X141059185Y-71042186D01*
X141026998Y-71068601D01*
X140990283Y-71088226D01*
X140950433Y-71100314D01*
X140902858Y-71105000D01*
X139439140Y-71105000D01*
X139391565Y-71100314D01*
X139351715Y-71088226D01*
X139315000Y-71068601D01*
X139282813Y-71042186D01*
X139256398Y-71009999D01*
X139236773Y-70973284D01*
X139224685Y-70933434D01*
X139219999Y-70885859D01*
X139219999Y-70222141D01*
X139224685Y-70174566D01*
X139236773Y-70134716D01*
X139256398Y-70098001D01*
X139282813Y-70065814D01*
X139315000Y-70039399D01*
X139351715Y-70019774D01*
X139391565Y-70007686D01*
X139439140Y-70003000D01*
X140902858Y-70003000D01*
X140950433Y-70007686D01*
G37*
G36*
X128200433Y-70007686D02*
G01*
X128240283Y-70019774D01*
X128276998Y-70039399D01*
X128309185Y-70065814D01*
X128335600Y-70098001D01*
X128355225Y-70134716D01*
X128367313Y-70174566D01*
X128371999Y-70222141D01*
X128371999Y-70885859D01*
X128367313Y-70933434D01*
X128355225Y-70973284D01*
X128335600Y-71009999D01*
X128309185Y-71042186D01*
X128276998Y-71068601D01*
X128240283Y-71088226D01*
X128200433Y-71100314D01*
X128152858Y-71105000D01*
X126689140Y-71105000D01*
X126641565Y-71100314D01*
X126601715Y-71088226D01*
X126565000Y-71068601D01*
X126532813Y-71042186D01*
X126506398Y-71009999D01*
X126486773Y-70973284D01*
X126474685Y-70933434D01*
X126469999Y-70885859D01*
X126469999Y-70222141D01*
X126474685Y-70174566D01*
X126486773Y-70134716D01*
X126506398Y-70098001D01*
X126532813Y-70065814D01*
X126565000Y-70039399D01*
X126601715Y-70019774D01*
X126641565Y-70007686D01*
X126689140Y-70003000D01*
X128152858Y-70003000D01*
X128200433Y-70007686D01*
G37*
G36*
X140950433Y-68507686D02*
G01*
X140990283Y-68519774D01*
X141026998Y-68539399D01*
X141059185Y-68565814D01*
X141085600Y-68598001D01*
X141105225Y-68634716D01*
X141117313Y-68674566D01*
X141121999Y-68722141D01*
X141121999Y-69385859D01*
X141117313Y-69433434D01*
X141105225Y-69473284D01*
X141085600Y-69509999D01*
X141059185Y-69542186D01*
X141026998Y-69568601D01*
X140990283Y-69588226D01*
X140950433Y-69600314D01*
X140902858Y-69605000D01*
X139439140Y-69605000D01*
X139391565Y-69600314D01*
X139351715Y-69588226D01*
X139315000Y-69568601D01*
X139282813Y-69542186D01*
X139256398Y-69509999D01*
X139236773Y-69473284D01*
X139224685Y-69433434D01*
X139219999Y-69385859D01*
X139219999Y-68722141D01*
X139224685Y-68674566D01*
X139236773Y-68634716D01*
X139256398Y-68598001D01*
X139282813Y-68565814D01*
X139315000Y-68539399D01*
X139351715Y-68519774D01*
X139391565Y-68507686D01*
X139439140Y-68503000D01*
X140902858Y-68503000D01*
X140950433Y-68507686D01*
G37*
G36*
X128200433Y-68507686D02*
G01*
X128240283Y-68519774D01*
X128276998Y-68539399D01*
X128309185Y-68565814D01*
X128335600Y-68598001D01*
X128355225Y-68634716D01*
X128367313Y-68674566D01*
X128371999Y-68722141D01*
X128371999Y-69385859D01*
X128367313Y-69433434D01*
X128355225Y-69473284D01*
X128335600Y-69509999D01*
X128309185Y-69542186D01*
X128276998Y-69568601D01*
X128240283Y-69588226D01*
X128200433Y-69600314D01*
X128152858Y-69605000D01*
X126689140Y-69605000D01*
X126641565Y-69600314D01*
X126601715Y-69588226D01*
X126565000Y-69568601D01*
X126532813Y-69542186D01*
X126506398Y-69509999D01*
X126486773Y-69473284D01*
X126474685Y-69433434D01*
X126469999Y-69385859D01*
X126469999Y-68722141D01*
X126474685Y-68674566D01*
X126486773Y-68634716D01*
X126506398Y-68598001D01*
X126532813Y-68565814D01*
X126565000Y-68539399D01*
X126601715Y-68519774D01*
X126641565Y-68507686D01*
X126689140Y-68503000D01*
X128152858Y-68503000D01*
X128200433Y-68507686D01*
G37*
G36*
X128200433Y-67007686D02*
G01*
X128240283Y-67019774D01*
X128276998Y-67039399D01*
X128309185Y-67065814D01*
X128335600Y-67098001D01*
X128355225Y-67134716D01*
X128367313Y-67174566D01*
X128371999Y-67222141D01*
X128371999Y-67885859D01*
X128367313Y-67933434D01*
X128355225Y-67973284D01*
X128335600Y-68009999D01*
X128309185Y-68042186D01*
X128276998Y-68068601D01*
X128240283Y-68088226D01*
X128200433Y-68100314D01*
X128152858Y-68105000D01*
X126689140Y-68105000D01*
X126641565Y-68100314D01*
X126601715Y-68088226D01*
X126565000Y-68068601D01*
X126532813Y-68042186D01*
X126506398Y-68009999D01*
X126486773Y-67973284D01*
X126474685Y-67933434D01*
X126469999Y-67885859D01*
X126469999Y-67222141D01*
X126474685Y-67174566D01*
X126486773Y-67134716D01*
X126506398Y-67098001D01*
X126532813Y-67065814D01*
X126565000Y-67039399D01*
X126601715Y-67019774D01*
X126641565Y-67007686D01*
X126689140Y-67003000D01*
X128152858Y-67003000D01*
X128200433Y-67007686D01*
G37*
G36*
X140950433Y-67007686D02*
G01*
X140990283Y-67019774D01*
X141026998Y-67039399D01*
X141059185Y-67065814D01*
X141085600Y-67098001D01*
X141105225Y-67134716D01*
X141117313Y-67174566D01*
X141121999Y-67222141D01*
X141121999Y-67885859D01*
X141117313Y-67933434D01*
X141105225Y-67973284D01*
X141085600Y-68009999D01*
X141059185Y-68042186D01*
X141026998Y-68068601D01*
X140990283Y-68088226D01*
X140950433Y-68100314D01*
X140902858Y-68105000D01*
X139439140Y-68105000D01*
X139391565Y-68100314D01*
X139351715Y-68088226D01*
X139315000Y-68068601D01*
X139282813Y-68042186D01*
X139256398Y-68009999D01*
X139236773Y-67973284D01*
X139224685Y-67933434D01*
X139219999Y-67885859D01*
X139219999Y-67222141D01*
X139224685Y-67174566D01*
X139236773Y-67134716D01*
X139256398Y-67098001D01*
X139282813Y-67065814D01*
X139315000Y-67039399D01*
X139351715Y-67019774D01*
X139391565Y-67007686D01*
X139439140Y-67003000D01*
X140902858Y-67003000D01*
X140950433Y-67007686D01*
G37*
M02*
