G04 #@! TF.GenerationSoftware,KiCad,Pcbnew,(5.1.5)-3*
G04 #@! TF.CreationDate,2021-04-30T23:34:10+03:00*
G04 #@! TF.ProjectId,HM10USBDongle,484d3130-5553-4424-946f-6e676c652e6b,rev?*
G04 #@! TF.SameCoordinates,Original*
G04 #@! TF.FileFunction,Legend,Bot*
G04 #@! TF.FilePolarity,Positive*
%FSLAX46Y46*%
G04 Gerber Fmt 4.6, Leading zero omitted, Abs format (unit mm)*
G04 Created by KiCad (PCBNEW (5.1.5)-3) date 2021-04-30 23:34:10*
%MOMM*%
%LPD*%
G04 APERTURE LIST*
%ADD10C,0.127000*%
%ADD11C,0.120000*%
%ADD12C,0.150000*%
G04 APERTURE END LIST*
D10*
X128468380Y-61619761D02*
X127468380Y-61619761D01*
X127944571Y-61619761D02*
X127944571Y-62191190D01*
X128468380Y-62191190D02*
X127468380Y-62191190D01*
X128468380Y-62667380D02*
X127468380Y-62667380D01*
X128182666Y-63000714D01*
X127468380Y-63334047D01*
X128468380Y-63334047D01*
X128087428Y-63810238D02*
X128087428Y-64572142D01*
X128468380Y-65572142D02*
X128468380Y-65000714D01*
X128468380Y-65286428D02*
X127468380Y-65286428D01*
X127611238Y-65191190D01*
X127706476Y-65095952D01*
X127754095Y-65000714D01*
X127468380Y-66191190D02*
X127468380Y-66286428D01*
X127516000Y-66381666D01*
X127563619Y-66429285D01*
X127658857Y-66476904D01*
X127849333Y-66524523D01*
X128087428Y-66524523D01*
X128277904Y-66476904D01*
X128373142Y-66429285D01*
X128420761Y-66381666D01*
X128468380Y-66286428D01*
X128468380Y-66191190D01*
X128420761Y-66095952D01*
X128373142Y-66048333D01*
X128277904Y-66000714D01*
X128087428Y-65953095D01*
X127849333Y-65953095D01*
X127658857Y-66000714D01*
X127563619Y-66048333D01*
X127516000Y-66095952D01*
X127468380Y-66191190D01*
X127468380Y-67715000D02*
X128277904Y-67715000D01*
X128373142Y-67762619D01*
X128420761Y-67810238D01*
X128468380Y-67905476D01*
X128468380Y-68095952D01*
X128420761Y-68191190D01*
X128373142Y-68238809D01*
X128277904Y-68286428D01*
X127468380Y-68286428D01*
X128420761Y-68714999D02*
X128468380Y-68857857D01*
X128468380Y-69095952D01*
X128420761Y-69191190D01*
X128373142Y-69238809D01*
X128277904Y-69286428D01*
X128182666Y-69286428D01*
X128087428Y-69238809D01*
X128039809Y-69191190D01*
X127992190Y-69095952D01*
X127944571Y-68905476D01*
X127896952Y-68810238D01*
X127849333Y-68762619D01*
X127754095Y-68714999D01*
X127658857Y-68714999D01*
X127563619Y-68762619D01*
X127516000Y-68810238D01*
X127468380Y-68905476D01*
X127468380Y-69143571D01*
X127516000Y-69286428D01*
X127944571Y-70048333D02*
X127992190Y-70191190D01*
X128039809Y-70238809D01*
X128135047Y-70286428D01*
X128277904Y-70286428D01*
X128373142Y-70238809D01*
X128420761Y-70191190D01*
X128468380Y-70095952D01*
X128468380Y-69714999D01*
X127468380Y-69714999D01*
X127468380Y-70048333D01*
X127516000Y-70143571D01*
X127563619Y-70191190D01*
X127658857Y-70238809D01*
X127754095Y-70238809D01*
X127849333Y-70191190D01*
X127896952Y-70143571D01*
X127944571Y-70048333D01*
X127944571Y-69714999D01*
X128468380Y-71476904D02*
X127468380Y-71476904D01*
X127468380Y-71714999D01*
X127516000Y-71857857D01*
X127611238Y-71953095D01*
X127706476Y-72000714D01*
X127896952Y-72048333D01*
X128039809Y-72048333D01*
X128230285Y-72000714D01*
X128325523Y-71953095D01*
X128420761Y-71857857D01*
X128468380Y-71714999D01*
X128468380Y-71476904D01*
X127468380Y-72667380D02*
X127468380Y-72857857D01*
X127516000Y-72953095D01*
X127611238Y-73048333D01*
X127801714Y-73095952D01*
X128135047Y-73095952D01*
X128325523Y-73048333D01*
X128420761Y-72953095D01*
X128468380Y-72857857D01*
X128468380Y-72667380D01*
X128420761Y-72572142D01*
X128325523Y-72476904D01*
X128135047Y-72429285D01*
X127801714Y-72429285D01*
X127611238Y-72476904D01*
X127516000Y-72572142D01*
X127468380Y-72667380D01*
X128468380Y-73524523D02*
X127468380Y-73524523D01*
X128468380Y-74095952D01*
X127468380Y-74095952D01*
X127516000Y-75095952D02*
X127468380Y-75000714D01*
X127468380Y-74857857D01*
X127516000Y-74714999D01*
X127611238Y-74619761D01*
X127706476Y-74572142D01*
X127896952Y-74524523D01*
X128039809Y-74524523D01*
X128230285Y-74572142D01*
X128325523Y-74619761D01*
X128420761Y-74714999D01*
X128468380Y-74857857D01*
X128468380Y-74953095D01*
X128420761Y-75095952D01*
X128373142Y-75143571D01*
X128039809Y-75143571D01*
X128039809Y-74953095D01*
X128468380Y-76048333D02*
X128468380Y-75572142D01*
X127468380Y-75572142D01*
X127944571Y-76381666D02*
X127944571Y-76714999D01*
X128468380Y-76857857D02*
X128468380Y-76381666D01*
X127468380Y-76381666D01*
X127468380Y-76857857D01*
D11*
X130696580Y-87759000D02*
X130415420Y-87759000D01*
X130696580Y-86739000D02*
X130415420Y-86739000D01*
X129299580Y-80139000D02*
X129018420Y-80139000D01*
X129299580Y-79119000D02*
X129018420Y-79119000D01*
X138543420Y-73912000D02*
X138824580Y-73912000D01*
X138543420Y-74932000D02*
X138824580Y-74932000D01*
X131824000Y-81351000D02*
X130364000Y-81351000D01*
X131824000Y-84511000D02*
X129664000Y-84511000D01*
X131824000Y-84511000D02*
X131824000Y-83581000D01*
X131824000Y-81351000D02*
X131824000Y-82281000D01*
X136672000Y-76962000D02*
X136672000Y-80412000D01*
X136672000Y-76962000D02*
X136672000Y-75012000D01*
X131552000Y-76962000D02*
X131552000Y-78912000D01*
X131552000Y-76962000D02*
X131552000Y-75012000D01*
D12*
X131992666Y-86336142D02*
X132040285Y-86383761D01*
X132183142Y-86431380D01*
X132278380Y-86431380D01*
X132421238Y-86383761D01*
X132516476Y-86288523D01*
X132564095Y-86193285D01*
X132611714Y-86002809D01*
X132611714Y-85859952D01*
X132564095Y-85669476D01*
X132516476Y-85574238D01*
X132421238Y-85479000D01*
X132278380Y-85431380D01*
X132183142Y-85431380D01*
X132040285Y-85479000D01*
X131992666Y-85526619D01*
X131659333Y-85431380D02*
X131040285Y-85431380D01*
X131373619Y-85812333D01*
X131230761Y-85812333D01*
X131135523Y-85859952D01*
X131087904Y-85907571D01*
X131040285Y-86002809D01*
X131040285Y-86240904D01*
X131087904Y-86336142D01*
X131135523Y-86383761D01*
X131230761Y-86431380D01*
X131516476Y-86431380D01*
X131611714Y-86383761D01*
X131659333Y-86336142D01*
X130722666Y-78716142D02*
X130770285Y-78763761D01*
X130913142Y-78811380D01*
X131008380Y-78811380D01*
X131151238Y-78763761D01*
X131246476Y-78668523D01*
X131294095Y-78573285D01*
X131341714Y-78382809D01*
X131341714Y-78239952D01*
X131294095Y-78049476D01*
X131246476Y-77954238D01*
X131151238Y-77859000D01*
X131008380Y-77811380D01*
X130913142Y-77811380D01*
X130770285Y-77859000D01*
X130722666Y-77906619D01*
X130341714Y-77906619D02*
X130294095Y-77859000D01*
X130198857Y-77811380D01*
X129960761Y-77811380D01*
X129865523Y-77859000D01*
X129817904Y-77906619D01*
X129770285Y-78001857D01*
X129770285Y-78097095D01*
X129817904Y-78239952D01*
X130389333Y-78811380D01*
X129770285Y-78811380D01*
X139993666Y-73255142D02*
X140041285Y-73302761D01*
X140184142Y-73350380D01*
X140279380Y-73350380D01*
X140422238Y-73302761D01*
X140517476Y-73207523D01*
X140565095Y-73112285D01*
X140612714Y-72921809D01*
X140612714Y-72778952D01*
X140565095Y-72588476D01*
X140517476Y-72493238D01*
X140422238Y-72398000D01*
X140279380Y-72350380D01*
X140184142Y-72350380D01*
X140041285Y-72398000D01*
X139993666Y-72445619D01*
X139041285Y-73350380D02*
X139612714Y-73350380D01*
X139327000Y-73350380D02*
X139327000Y-72350380D01*
X139422238Y-72493238D01*
X139517476Y-72588476D01*
X139612714Y-72636095D01*
X134365904Y-82510380D02*
X134365904Y-83319904D01*
X134318285Y-83415142D01*
X134270666Y-83462761D01*
X134175428Y-83510380D01*
X133984952Y-83510380D01*
X133889714Y-83462761D01*
X133842095Y-83415142D01*
X133794476Y-83319904D01*
X133794476Y-82510380D01*
X133413523Y-82510380D02*
X132794476Y-82510380D01*
X133127809Y-82891333D01*
X132984952Y-82891333D01*
X132889714Y-82938952D01*
X132842095Y-82986571D01*
X132794476Y-83081809D01*
X132794476Y-83319904D01*
X132842095Y-83415142D01*
X132889714Y-83462761D01*
X132984952Y-83510380D01*
X133270666Y-83510380D01*
X133365904Y-83462761D01*
X133413523Y-83415142D01*
X138088619Y-77977904D02*
X137279095Y-77977904D01*
X137183857Y-77930285D01*
X137136238Y-77882666D01*
X137088619Y-77787428D01*
X137088619Y-77596952D01*
X137136238Y-77501714D01*
X137183857Y-77454095D01*
X137279095Y-77406476D01*
X138088619Y-77406476D01*
X137088619Y-76406476D02*
X137088619Y-76977904D01*
X137088619Y-76692190D02*
X138088619Y-76692190D01*
X137945761Y-76787428D01*
X137850523Y-76882666D01*
X137802904Y-76977904D01*
M02*
