M48
; DRILL file {KiCad (5.1.5)-3} date 30/04/2021 23:34:08
; FORMAT={3:3/ absolute / metric / keep zeros}
; #@! TF.CreationDate,2021-04-30T23:34:08+03:00
; #@! TF.GenerationSoftware,Kicad,Pcbnew,(5.1.5)-3
; #@! TF.FileFunction,Plated,1,2,PTH
FMAT,2
METRIC
T1C0.400
T2C0.914
T3C2.200
%
G90
G05
T1
X125857Y-068326
X128651Y-083820
X128651Y-089789
X129032Y-080772
X129159Y-085471
X129286Y-077978
X130175Y-067564
X130175Y-069088
X130429Y-071120
X130429Y-085090
X131572Y-089789
X133223Y-068834
X133477Y-077597
X133477Y-081407
X134874Y-082169
X135128Y-084328
X138303Y-072771
X138430Y-076073
X138557Y-085471
X139192Y-089789
X141732Y-068326
T2
X130233Y-092598
X132606Y-092598
X134856Y-092598
X137229Y-092598
T3
X127932Y-094996
X139530Y-094996
T0
M30
