G04 #@! TF.GenerationSoftware,KiCad,Pcbnew,(5.1.5)-3*
G04 #@! TF.CreationDate,2021-04-30T23:34:10+03:00*
G04 #@! TF.ProjectId,HM10USBDongle,484d3130-5553-4424-946f-6e676c652e6b,rev?*
G04 #@! TF.SameCoordinates,Original*
G04 #@! TF.FileFunction,Paste,Bot*
G04 #@! TF.FilePolarity,Positive*
%FSLAX46Y46*%
G04 Gerber Fmt 4.6, Leading zero omitted, Abs format (unit mm)*
G04 Created by KiCad (PCBNEW (5.1.5)-3) date 2021-04-30 23:34:10*
%MOMM*%
%LPD*%
G04 APERTURE LIST*
%ADD10C,0.100000*%
%ADD11R,0.900000X0.800000*%
G04 APERTURE END LIST*
D10*
G36*
X130028054Y-86775083D02*
G01*
X130049895Y-86778323D01*
X130071314Y-86783688D01*
X130092104Y-86791127D01*
X130112064Y-86800568D01*
X130131003Y-86811919D01*
X130148738Y-86825073D01*
X130165099Y-86839901D01*
X130179927Y-86856262D01*
X130193081Y-86873997D01*
X130204432Y-86892936D01*
X130213873Y-86912896D01*
X130221312Y-86933686D01*
X130226677Y-86955105D01*
X130229917Y-86976946D01*
X130231000Y-86999000D01*
X130231000Y-87499000D01*
X130229917Y-87521054D01*
X130226677Y-87542895D01*
X130221312Y-87564314D01*
X130213873Y-87585104D01*
X130204432Y-87605064D01*
X130193081Y-87624003D01*
X130179927Y-87641738D01*
X130165099Y-87658099D01*
X130148738Y-87672927D01*
X130131003Y-87686081D01*
X130112064Y-87697432D01*
X130092104Y-87706873D01*
X130071314Y-87714312D01*
X130049895Y-87719677D01*
X130028054Y-87722917D01*
X130006000Y-87724000D01*
X129556000Y-87724000D01*
X129533946Y-87722917D01*
X129512105Y-87719677D01*
X129490686Y-87714312D01*
X129469896Y-87706873D01*
X129449936Y-87697432D01*
X129430997Y-87686081D01*
X129413262Y-87672927D01*
X129396901Y-87658099D01*
X129382073Y-87641738D01*
X129368919Y-87624003D01*
X129357568Y-87605064D01*
X129348127Y-87585104D01*
X129340688Y-87564314D01*
X129335323Y-87542895D01*
X129332083Y-87521054D01*
X129331000Y-87499000D01*
X129331000Y-86999000D01*
X129332083Y-86976946D01*
X129335323Y-86955105D01*
X129340688Y-86933686D01*
X129348127Y-86912896D01*
X129357568Y-86892936D01*
X129368919Y-86873997D01*
X129382073Y-86856262D01*
X129396901Y-86839901D01*
X129413262Y-86825073D01*
X129430997Y-86811919D01*
X129449936Y-86800568D01*
X129469896Y-86791127D01*
X129490686Y-86783688D01*
X129512105Y-86778323D01*
X129533946Y-86775083D01*
X129556000Y-86774000D01*
X130006000Y-86774000D01*
X130028054Y-86775083D01*
G37*
G36*
X131578054Y-86775083D02*
G01*
X131599895Y-86778323D01*
X131621314Y-86783688D01*
X131642104Y-86791127D01*
X131662064Y-86800568D01*
X131681003Y-86811919D01*
X131698738Y-86825073D01*
X131715099Y-86839901D01*
X131729927Y-86856262D01*
X131743081Y-86873997D01*
X131754432Y-86892936D01*
X131763873Y-86912896D01*
X131771312Y-86933686D01*
X131776677Y-86955105D01*
X131779917Y-86976946D01*
X131781000Y-86999000D01*
X131781000Y-87499000D01*
X131779917Y-87521054D01*
X131776677Y-87542895D01*
X131771312Y-87564314D01*
X131763873Y-87585104D01*
X131754432Y-87605064D01*
X131743081Y-87624003D01*
X131729927Y-87641738D01*
X131715099Y-87658099D01*
X131698738Y-87672927D01*
X131681003Y-87686081D01*
X131662064Y-87697432D01*
X131642104Y-87706873D01*
X131621314Y-87714312D01*
X131599895Y-87719677D01*
X131578054Y-87722917D01*
X131556000Y-87724000D01*
X131106000Y-87724000D01*
X131083946Y-87722917D01*
X131062105Y-87719677D01*
X131040686Y-87714312D01*
X131019896Y-87706873D01*
X130999936Y-87697432D01*
X130980997Y-87686081D01*
X130963262Y-87672927D01*
X130946901Y-87658099D01*
X130932073Y-87641738D01*
X130918919Y-87624003D01*
X130907568Y-87605064D01*
X130898127Y-87585104D01*
X130890688Y-87564314D01*
X130885323Y-87542895D01*
X130882083Y-87521054D01*
X130881000Y-87499000D01*
X130881000Y-86999000D01*
X130882083Y-86976946D01*
X130885323Y-86955105D01*
X130890688Y-86933686D01*
X130898127Y-86912896D01*
X130907568Y-86892936D01*
X130918919Y-86873997D01*
X130932073Y-86856262D01*
X130946901Y-86839901D01*
X130963262Y-86825073D01*
X130980997Y-86811919D01*
X130999936Y-86800568D01*
X131019896Y-86791127D01*
X131040686Y-86783688D01*
X131062105Y-86778323D01*
X131083946Y-86775083D01*
X131106000Y-86774000D01*
X131556000Y-86774000D01*
X131578054Y-86775083D01*
G37*
G36*
X128631054Y-79155083D02*
G01*
X128652895Y-79158323D01*
X128674314Y-79163688D01*
X128695104Y-79171127D01*
X128715064Y-79180568D01*
X128734003Y-79191919D01*
X128751738Y-79205073D01*
X128768099Y-79219901D01*
X128782927Y-79236262D01*
X128796081Y-79253997D01*
X128807432Y-79272936D01*
X128816873Y-79292896D01*
X128824312Y-79313686D01*
X128829677Y-79335105D01*
X128832917Y-79356946D01*
X128834000Y-79379000D01*
X128834000Y-79879000D01*
X128832917Y-79901054D01*
X128829677Y-79922895D01*
X128824312Y-79944314D01*
X128816873Y-79965104D01*
X128807432Y-79985064D01*
X128796081Y-80004003D01*
X128782927Y-80021738D01*
X128768099Y-80038099D01*
X128751738Y-80052927D01*
X128734003Y-80066081D01*
X128715064Y-80077432D01*
X128695104Y-80086873D01*
X128674314Y-80094312D01*
X128652895Y-80099677D01*
X128631054Y-80102917D01*
X128609000Y-80104000D01*
X128159000Y-80104000D01*
X128136946Y-80102917D01*
X128115105Y-80099677D01*
X128093686Y-80094312D01*
X128072896Y-80086873D01*
X128052936Y-80077432D01*
X128033997Y-80066081D01*
X128016262Y-80052927D01*
X127999901Y-80038099D01*
X127985073Y-80021738D01*
X127971919Y-80004003D01*
X127960568Y-79985064D01*
X127951127Y-79965104D01*
X127943688Y-79944314D01*
X127938323Y-79922895D01*
X127935083Y-79901054D01*
X127934000Y-79879000D01*
X127934000Y-79379000D01*
X127935083Y-79356946D01*
X127938323Y-79335105D01*
X127943688Y-79313686D01*
X127951127Y-79292896D01*
X127960568Y-79272936D01*
X127971919Y-79253997D01*
X127985073Y-79236262D01*
X127999901Y-79219901D01*
X128016262Y-79205073D01*
X128033997Y-79191919D01*
X128052936Y-79180568D01*
X128072896Y-79171127D01*
X128093686Y-79163688D01*
X128115105Y-79158323D01*
X128136946Y-79155083D01*
X128159000Y-79154000D01*
X128609000Y-79154000D01*
X128631054Y-79155083D01*
G37*
G36*
X130181054Y-79155083D02*
G01*
X130202895Y-79158323D01*
X130224314Y-79163688D01*
X130245104Y-79171127D01*
X130265064Y-79180568D01*
X130284003Y-79191919D01*
X130301738Y-79205073D01*
X130318099Y-79219901D01*
X130332927Y-79236262D01*
X130346081Y-79253997D01*
X130357432Y-79272936D01*
X130366873Y-79292896D01*
X130374312Y-79313686D01*
X130379677Y-79335105D01*
X130382917Y-79356946D01*
X130384000Y-79379000D01*
X130384000Y-79879000D01*
X130382917Y-79901054D01*
X130379677Y-79922895D01*
X130374312Y-79944314D01*
X130366873Y-79965104D01*
X130357432Y-79985064D01*
X130346081Y-80004003D01*
X130332927Y-80021738D01*
X130318099Y-80038099D01*
X130301738Y-80052927D01*
X130284003Y-80066081D01*
X130265064Y-80077432D01*
X130245104Y-80086873D01*
X130224314Y-80094312D01*
X130202895Y-80099677D01*
X130181054Y-80102917D01*
X130159000Y-80104000D01*
X129709000Y-80104000D01*
X129686946Y-80102917D01*
X129665105Y-80099677D01*
X129643686Y-80094312D01*
X129622896Y-80086873D01*
X129602936Y-80077432D01*
X129583997Y-80066081D01*
X129566262Y-80052927D01*
X129549901Y-80038099D01*
X129535073Y-80021738D01*
X129521919Y-80004003D01*
X129510568Y-79985064D01*
X129501127Y-79965104D01*
X129493688Y-79944314D01*
X129488323Y-79922895D01*
X129485083Y-79901054D01*
X129484000Y-79879000D01*
X129484000Y-79379000D01*
X129485083Y-79356946D01*
X129488323Y-79335105D01*
X129493688Y-79313686D01*
X129501127Y-79292896D01*
X129510568Y-79272936D01*
X129521919Y-79253997D01*
X129535073Y-79236262D01*
X129549901Y-79219901D01*
X129566262Y-79205073D01*
X129583997Y-79191919D01*
X129602936Y-79180568D01*
X129622896Y-79171127D01*
X129643686Y-79163688D01*
X129665105Y-79158323D01*
X129686946Y-79155083D01*
X129709000Y-79154000D01*
X130159000Y-79154000D01*
X130181054Y-79155083D01*
G37*
G36*
X139706054Y-73948083D02*
G01*
X139727895Y-73951323D01*
X139749314Y-73956688D01*
X139770104Y-73964127D01*
X139790064Y-73973568D01*
X139809003Y-73984919D01*
X139826738Y-73998073D01*
X139843099Y-74012901D01*
X139857927Y-74029262D01*
X139871081Y-74046997D01*
X139882432Y-74065936D01*
X139891873Y-74085896D01*
X139899312Y-74106686D01*
X139904677Y-74128105D01*
X139907917Y-74149946D01*
X139909000Y-74172000D01*
X139909000Y-74672000D01*
X139907917Y-74694054D01*
X139904677Y-74715895D01*
X139899312Y-74737314D01*
X139891873Y-74758104D01*
X139882432Y-74778064D01*
X139871081Y-74797003D01*
X139857927Y-74814738D01*
X139843099Y-74831099D01*
X139826738Y-74845927D01*
X139809003Y-74859081D01*
X139790064Y-74870432D01*
X139770104Y-74879873D01*
X139749314Y-74887312D01*
X139727895Y-74892677D01*
X139706054Y-74895917D01*
X139684000Y-74897000D01*
X139234000Y-74897000D01*
X139211946Y-74895917D01*
X139190105Y-74892677D01*
X139168686Y-74887312D01*
X139147896Y-74879873D01*
X139127936Y-74870432D01*
X139108997Y-74859081D01*
X139091262Y-74845927D01*
X139074901Y-74831099D01*
X139060073Y-74814738D01*
X139046919Y-74797003D01*
X139035568Y-74778064D01*
X139026127Y-74758104D01*
X139018688Y-74737314D01*
X139013323Y-74715895D01*
X139010083Y-74694054D01*
X139009000Y-74672000D01*
X139009000Y-74172000D01*
X139010083Y-74149946D01*
X139013323Y-74128105D01*
X139018688Y-74106686D01*
X139026127Y-74085896D01*
X139035568Y-74065936D01*
X139046919Y-74046997D01*
X139060073Y-74029262D01*
X139074901Y-74012901D01*
X139091262Y-73998073D01*
X139108997Y-73984919D01*
X139127936Y-73973568D01*
X139147896Y-73964127D01*
X139168686Y-73956688D01*
X139190105Y-73951323D01*
X139211946Y-73948083D01*
X139234000Y-73947000D01*
X139684000Y-73947000D01*
X139706054Y-73948083D01*
G37*
G36*
X138156054Y-73948083D02*
G01*
X138177895Y-73951323D01*
X138199314Y-73956688D01*
X138220104Y-73964127D01*
X138240064Y-73973568D01*
X138259003Y-73984919D01*
X138276738Y-73998073D01*
X138293099Y-74012901D01*
X138307927Y-74029262D01*
X138321081Y-74046997D01*
X138332432Y-74065936D01*
X138341873Y-74085896D01*
X138349312Y-74106686D01*
X138354677Y-74128105D01*
X138357917Y-74149946D01*
X138359000Y-74172000D01*
X138359000Y-74672000D01*
X138357917Y-74694054D01*
X138354677Y-74715895D01*
X138349312Y-74737314D01*
X138341873Y-74758104D01*
X138332432Y-74778064D01*
X138321081Y-74797003D01*
X138307927Y-74814738D01*
X138293099Y-74831099D01*
X138276738Y-74845927D01*
X138259003Y-74859081D01*
X138240064Y-74870432D01*
X138220104Y-74879873D01*
X138199314Y-74887312D01*
X138177895Y-74892677D01*
X138156054Y-74895917D01*
X138134000Y-74897000D01*
X137684000Y-74897000D01*
X137661946Y-74895917D01*
X137640105Y-74892677D01*
X137618686Y-74887312D01*
X137597896Y-74879873D01*
X137577936Y-74870432D01*
X137558997Y-74859081D01*
X137541262Y-74845927D01*
X137524901Y-74831099D01*
X137510073Y-74814738D01*
X137496919Y-74797003D01*
X137485568Y-74778064D01*
X137476127Y-74758104D01*
X137468688Y-74737314D01*
X137463323Y-74715895D01*
X137460083Y-74694054D01*
X137459000Y-74672000D01*
X137459000Y-74172000D01*
X137460083Y-74149946D01*
X137463323Y-74128105D01*
X137468688Y-74106686D01*
X137476127Y-74085896D01*
X137485568Y-74065936D01*
X137496919Y-74046997D01*
X137510073Y-74029262D01*
X137524901Y-74012901D01*
X137541262Y-73998073D01*
X137558997Y-73984919D01*
X137577936Y-73973568D01*
X137597896Y-73964127D01*
X137618686Y-73956688D01*
X137640105Y-73951323D01*
X137661946Y-73948083D01*
X137684000Y-73947000D01*
X138134000Y-73947000D01*
X138156054Y-73948083D01*
G37*
D11*
X132064000Y-82931000D03*
X130064000Y-81981000D03*
X130064000Y-83881000D03*
D10*
G36*
X136181703Y-73512722D02*
G01*
X136196264Y-73514882D01*
X136210543Y-73518459D01*
X136224403Y-73523418D01*
X136237710Y-73529712D01*
X136250336Y-73537280D01*
X136262159Y-73546048D01*
X136273066Y-73555934D01*
X136282952Y-73566841D01*
X136291720Y-73578664D01*
X136299288Y-73591290D01*
X136305582Y-73604597D01*
X136310541Y-73618457D01*
X136314118Y-73632736D01*
X136316278Y-73647297D01*
X136317000Y-73662000D01*
X136317000Y-75312000D01*
X136316278Y-75326703D01*
X136314118Y-75341264D01*
X136310541Y-75355543D01*
X136305582Y-75369403D01*
X136299288Y-75382710D01*
X136291720Y-75395336D01*
X136282952Y-75407159D01*
X136273066Y-75418066D01*
X136262159Y-75427952D01*
X136250336Y-75436720D01*
X136237710Y-75444288D01*
X136224403Y-75450582D01*
X136210543Y-75455541D01*
X136196264Y-75459118D01*
X136181703Y-75461278D01*
X136167000Y-75462000D01*
X135867000Y-75462000D01*
X135852297Y-75461278D01*
X135837736Y-75459118D01*
X135823457Y-75455541D01*
X135809597Y-75450582D01*
X135796290Y-75444288D01*
X135783664Y-75436720D01*
X135771841Y-75427952D01*
X135760934Y-75418066D01*
X135751048Y-75407159D01*
X135742280Y-75395336D01*
X135734712Y-75382710D01*
X135728418Y-75369403D01*
X135723459Y-75355543D01*
X135719882Y-75341264D01*
X135717722Y-75326703D01*
X135717000Y-75312000D01*
X135717000Y-73662000D01*
X135717722Y-73647297D01*
X135719882Y-73632736D01*
X135723459Y-73618457D01*
X135728418Y-73604597D01*
X135734712Y-73591290D01*
X135742280Y-73578664D01*
X135751048Y-73566841D01*
X135760934Y-73555934D01*
X135771841Y-73546048D01*
X135783664Y-73537280D01*
X135796290Y-73529712D01*
X135809597Y-73523418D01*
X135823457Y-73518459D01*
X135837736Y-73514882D01*
X135852297Y-73512722D01*
X135867000Y-73512000D01*
X136167000Y-73512000D01*
X136181703Y-73512722D01*
G37*
G36*
X134911703Y-73512722D02*
G01*
X134926264Y-73514882D01*
X134940543Y-73518459D01*
X134954403Y-73523418D01*
X134967710Y-73529712D01*
X134980336Y-73537280D01*
X134992159Y-73546048D01*
X135003066Y-73555934D01*
X135012952Y-73566841D01*
X135021720Y-73578664D01*
X135029288Y-73591290D01*
X135035582Y-73604597D01*
X135040541Y-73618457D01*
X135044118Y-73632736D01*
X135046278Y-73647297D01*
X135047000Y-73662000D01*
X135047000Y-75312000D01*
X135046278Y-75326703D01*
X135044118Y-75341264D01*
X135040541Y-75355543D01*
X135035582Y-75369403D01*
X135029288Y-75382710D01*
X135021720Y-75395336D01*
X135012952Y-75407159D01*
X135003066Y-75418066D01*
X134992159Y-75427952D01*
X134980336Y-75436720D01*
X134967710Y-75444288D01*
X134954403Y-75450582D01*
X134940543Y-75455541D01*
X134926264Y-75459118D01*
X134911703Y-75461278D01*
X134897000Y-75462000D01*
X134597000Y-75462000D01*
X134582297Y-75461278D01*
X134567736Y-75459118D01*
X134553457Y-75455541D01*
X134539597Y-75450582D01*
X134526290Y-75444288D01*
X134513664Y-75436720D01*
X134501841Y-75427952D01*
X134490934Y-75418066D01*
X134481048Y-75407159D01*
X134472280Y-75395336D01*
X134464712Y-75382710D01*
X134458418Y-75369403D01*
X134453459Y-75355543D01*
X134449882Y-75341264D01*
X134447722Y-75326703D01*
X134447000Y-75312000D01*
X134447000Y-73662000D01*
X134447722Y-73647297D01*
X134449882Y-73632736D01*
X134453459Y-73618457D01*
X134458418Y-73604597D01*
X134464712Y-73591290D01*
X134472280Y-73578664D01*
X134481048Y-73566841D01*
X134490934Y-73555934D01*
X134501841Y-73546048D01*
X134513664Y-73537280D01*
X134526290Y-73529712D01*
X134539597Y-73523418D01*
X134553457Y-73518459D01*
X134567736Y-73514882D01*
X134582297Y-73512722D01*
X134597000Y-73512000D01*
X134897000Y-73512000D01*
X134911703Y-73512722D01*
G37*
G36*
X133641703Y-73512722D02*
G01*
X133656264Y-73514882D01*
X133670543Y-73518459D01*
X133684403Y-73523418D01*
X133697710Y-73529712D01*
X133710336Y-73537280D01*
X133722159Y-73546048D01*
X133733066Y-73555934D01*
X133742952Y-73566841D01*
X133751720Y-73578664D01*
X133759288Y-73591290D01*
X133765582Y-73604597D01*
X133770541Y-73618457D01*
X133774118Y-73632736D01*
X133776278Y-73647297D01*
X133777000Y-73662000D01*
X133777000Y-75312000D01*
X133776278Y-75326703D01*
X133774118Y-75341264D01*
X133770541Y-75355543D01*
X133765582Y-75369403D01*
X133759288Y-75382710D01*
X133751720Y-75395336D01*
X133742952Y-75407159D01*
X133733066Y-75418066D01*
X133722159Y-75427952D01*
X133710336Y-75436720D01*
X133697710Y-75444288D01*
X133684403Y-75450582D01*
X133670543Y-75455541D01*
X133656264Y-75459118D01*
X133641703Y-75461278D01*
X133627000Y-75462000D01*
X133327000Y-75462000D01*
X133312297Y-75461278D01*
X133297736Y-75459118D01*
X133283457Y-75455541D01*
X133269597Y-75450582D01*
X133256290Y-75444288D01*
X133243664Y-75436720D01*
X133231841Y-75427952D01*
X133220934Y-75418066D01*
X133211048Y-75407159D01*
X133202280Y-75395336D01*
X133194712Y-75382710D01*
X133188418Y-75369403D01*
X133183459Y-75355543D01*
X133179882Y-75341264D01*
X133177722Y-75326703D01*
X133177000Y-75312000D01*
X133177000Y-73662000D01*
X133177722Y-73647297D01*
X133179882Y-73632736D01*
X133183459Y-73618457D01*
X133188418Y-73604597D01*
X133194712Y-73591290D01*
X133202280Y-73578664D01*
X133211048Y-73566841D01*
X133220934Y-73555934D01*
X133231841Y-73546048D01*
X133243664Y-73537280D01*
X133256290Y-73529712D01*
X133269597Y-73523418D01*
X133283457Y-73518459D01*
X133297736Y-73514882D01*
X133312297Y-73512722D01*
X133327000Y-73512000D01*
X133627000Y-73512000D01*
X133641703Y-73512722D01*
G37*
G36*
X132371703Y-73512722D02*
G01*
X132386264Y-73514882D01*
X132400543Y-73518459D01*
X132414403Y-73523418D01*
X132427710Y-73529712D01*
X132440336Y-73537280D01*
X132452159Y-73546048D01*
X132463066Y-73555934D01*
X132472952Y-73566841D01*
X132481720Y-73578664D01*
X132489288Y-73591290D01*
X132495582Y-73604597D01*
X132500541Y-73618457D01*
X132504118Y-73632736D01*
X132506278Y-73647297D01*
X132507000Y-73662000D01*
X132507000Y-75312000D01*
X132506278Y-75326703D01*
X132504118Y-75341264D01*
X132500541Y-75355543D01*
X132495582Y-75369403D01*
X132489288Y-75382710D01*
X132481720Y-75395336D01*
X132472952Y-75407159D01*
X132463066Y-75418066D01*
X132452159Y-75427952D01*
X132440336Y-75436720D01*
X132427710Y-75444288D01*
X132414403Y-75450582D01*
X132400543Y-75455541D01*
X132386264Y-75459118D01*
X132371703Y-75461278D01*
X132357000Y-75462000D01*
X132057000Y-75462000D01*
X132042297Y-75461278D01*
X132027736Y-75459118D01*
X132013457Y-75455541D01*
X131999597Y-75450582D01*
X131986290Y-75444288D01*
X131973664Y-75436720D01*
X131961841Y-75427952D01*
X131950934Y-75418066D01*
X131941048Y-75407159D01*
X131932280Y-75395336D01*
X131924712Y-75382710D01*
X131918418Y-75369403D01*
X131913459Y-75355543D01*
X131909882Y-75341264D01*
X131907722Y-75326703D01*
X131907000Y-75312000D01*
X131907000Y-73662000D01*
X131907722Y-73647297D01*
X131909882Y-73632736D01*
X131913459Y-73618457D01*
X131918418Y-73604597D01*
X131924712Y-73591290D01*
X131932280Y-73578664D01*
X131941048Y-73566841D01*
X131950934Y-73555934D01*
X131961841Y-73546048D01*
X131973664Y-73537280D01*
X131986290Y-73529712D01*
X131999597Y-73523418D01*
X132013457Y-73518459D01*
X132027736Y-73514882D01*
X132042297Y-73512722D01*
X132057000Y-73512000D01*
X132357000Y-73512000D01*
X132371703Y-73512722D01*
G37*
G36*
X132371703Y-78462722D02*
G01*
X132386264Y-78464882D01*
X132400543Y-78468459D01*
X132414403Y-78473418D01*
X132427710Y-78479712D01*
X132440336Y-78487280D01*
X132452159Y-78496048D01*
X132463066Y-78505934D01*
X132472952Y-78516841D01*
X132481720Y-78528664D01*
X132489288Y-78541290D01*
X132495582Y-78554597D01*
X132500541Y-78568457D01*
X132504118Y-78582736D01*
X132506278Y-78597297D01*
X132507000Y-78612000D01*
X132507000Y-80262000D01*
X132506278Y-80276703D01*
X132504118Y-80291264D01*
X132500541Y-80305543D01*
X132495582Y-80319403D01*
X132489288Y-80332710D01*
X132481720Y-80345336D01*
X132472952Y-80357159D01*
X132463066Y-80368066D01*
X132452159Y-80377952D01*
X132440336Y-80386720D01*
X132427710Y-80394288D01*
X132414403Y-80400582D01*
X132400543Y-80405541D01*
X132386264Y-80409118D01*
X132371703Y-80411278D01*
X132357000Y-80412000D01*
X132057000Y-80412000D01*
X132042297Y-80411278D01*
X132027736Y-80409118D01*
X132013457Y-80405541D01*
X131999597Y-80400582D01*
X131986290Y-80394288D01*
X131973664Y-80386720D01*
X131961841Y-80377952D01*
X131950934Y-80368066D01*
X131941048Y-80357159D01*
X131932280Y-80345336D01*
X131924712Y-80332710D01*
X131918418Y-80319403D01*
X131913459Y-80305543D01*
X131909882Y-80291264D01*
X131907722Y-80276703D01*
X131907000Y-80262000D01*
X131907000Y-78612000D01*
X131907722Y-78597297D01*
X131909882Y-78582736D01*
X131913459Y-78568457D01*
X131918418Y-78554597D01*
X131924712Y-78541290D01*
X131932280Y-78528664D01*
X131941048Y-78516841D01*
X131950934Y-78505934D01*
X131961841Y-78496048D01*
X131973664Y-78487280D01*
X131986290Y-78479712D01*
X131999597Y-78473418D01*
X132013457Y-78468459D01*
X132027736Y-78464882D01*
X132042297Y-78462722D01*
X132057000Y-78462000D01*
X132357000Y-78462000D01*
X132371703Y-78462722D01*
G37*
G36*
X133641703Y-78462722D02*
G01*
X133656264Y-78464882D01*
X133670543Y-78468459D01*
X133684403Y-78473418D01*
X133697710Y-78479712D01*
X133710336Y-78487280D01*
X133722159Y-78496048D01*
X133733066Y-78505934D01*
X133742952Y-78516841D01*
X133751720Y-78528664D01*
X133759288Y-78541290D01*
X133765582Y-78554597D01*
X133770541Y-78568457D01*
X133774118Y-78582736D01*
X133776278Y-78597297D01*
X133777000Y-78612000D01*
X133777000Y-80262000D01*
X133776278Y-80276703D01*
X133774118Y-80291264D01*
X133770541Y-80305543D01*
X133765582Y-80319403D01*
X133759288Y-80332710D01*
X133751720Y-80345336D01*
X133742952Y-80357159D01*
X133733066Y-80368066D01*
X133722159Y-80377952D01*
X133710336Y-80386720D01*
X133697710Y-80394288D01*
X133684403Y-80400582D01*
X133670543Y-80405541D01*
X133656264Y-80409118D01*
X133641703Y-80411278D01*
X133627000Y-80412000D01*
X133327000Y-80412000D01*
X133312297Y-80411278D01*
X133297736Y-80409118D01*
X133283457Y-80405541D01*
X133269597Y-80400582D01*
X133256290Y-80394288D01*
X133243664Y-80386720D01*
X133231841Y-80377952D01*
X133220934Y-80368066D01*
X133211048Y-80357159D01*
X133202280Y-80345336D01*
X133194712Y-80332710D01*
X133188418Y-80319403D01*
X133183459Y-80305543D01*
X133179882Y-80291264D01*
X133177722Y-80276703D01*
X133177000Y-80262000D01*
X133177000Y-78612000D01*
X133177722Y-78597297D01*
X133179882Y-78582736D01*
X133183459Y-78568457D01*
X133188418Y-78554597D01*
X133194712Y-78541290D01*
X133202280Y-78528664D01*
X133211048Y-78516841D01*
X133220934Y-78505934D01*
X133231841Y-78496048D01*
X133243664Y-78487280D01*
X133256290Y-78479712D01*
X133269597Y-78473418D01*
X133283457Y-78468459D01*
X133297736Y-78464882D01*
X133312297Y-78462722D01*
X133327000Y-78462000D01*
X133627000Y-78462000D01*
X133641703Y-78462722D01*
G37*
G36*
X134911703Y-78462722D02*
G01*
X134926264Y-78464882D01*
X134940543Y-78468459D01*
X134954403Y-78473418D01*
X134967710Y-78479712D01*
X134980336Y-78487280D01*
X134992159Y-78496048D01*
X135003066Y-78505934D01*
X135012952Y-78516841D01*
X135021720Y-78528664D01*
X135029288Y-78541290D01*
X135035582Y-78554597D01*
X135040541Y-78568457D01*
X135044118Y-78582736D01*
X135046278Y-78597297D01*
X135047000Y-78612000D01*
X135047000Y-80262000D01*
X135046278Y-80276703D01*
X135044118Y-80291264D01*
X135040541Y-80305543D01*
X135035582Y-80319403D01*
X135029288Y-80332710D01*
X135021720Y-80345336D01*
X135012952Y-80357159D01*
X135003066Y-80368066D01*
X134992159Y-80377952D01*
X134980336Y-80386720D01*
X134967710Y-80394288D01*
X134954403Y-80400582D01*
X134940543Y-80405541D01*
X134926264Y-80409118D01*
X134911703Y-80411278D01*
X134897000Y-80412000D01*
X134597000Y-80412000D01*
X134582297Y-80411278D01*
X134567736Y-80409118D01*
X134553457Y-80405541D01*
X134539597Y-80400582D01*
X134526290Y-80394288D01*
X134513664Y-80386720D01*
X134501841Y-80377952D01*
X134490934Y-80368066D01*
X134481048Y-80357159D01*
X134472280Y-80345336D01*
X134464712Y-80332710D01*
X134458418Y-80319403D01*
X134453459Y-80305543D01*
X134449882Y-80291264D01*
X134447722Y-80276703D01*
X134447000Y-80262000D01*
X134447000Y-78612000D01*
X134447722Y-78597297D01*
X134449882Y-78582736D01*
X134453459Y-78568457D01*
X134458418Y-78554597D01*
X134464712Y-78541290D01*
X134472280Y-78528664D01*
X134481048Y-78516841D01*
X134490934Y-78505934D01*
X134501841Y-78496048D01*
X134513664Y-78487280D01*
X134526290Y-78479712D01*
X134539597Y-78473418D01*
X134553457Y-78468459D01*
X134567736Y-78464882D01*
X134582297Y-78462722D01*
X134597000Y-78462000D01*
X134897000Y-78462000D01*
X134911703Y-78462722D01*
G37*
G36*
X136181703Y-78462722D02*
G01*
X136196264Y-78464882D01*
X136210543Y-78468459D01*
X136224403Y-78473418D01*
X136237710Y-78479712D01*
X136250336Y-78487280D01*
X136262159Y-78496048D01*
X136273066Y-78505934D01*
X136282952Y-78516841D01*
X136291720Y-78528664D01*
X136299288Y-78541290D01*
X136305582Y-78554597D01*
X136310541Y-78568457D01*
X136314118Y-78582736D01*
X136316278Y-78597297D01*
X136317000Y-78612000D01*
X136317000Y-80262000D01*
X136316278Y-80276703D01*
X136314118Y-80291264D01*
X136310541Y-80305543D01*
X136305582Y-80319403D01*
X136299288Y-80332710D01*
X136291720Y-80345336D01*
X136282952Y-80357159D01*
X136273066Y-80368066D01*
X136262159Y-80377952D01*
X136250336Y-80386720D01*
X136237710Y-80394288D01*
X136224403Y-80400582D01*
X136210543Y-80405541D01*
X136196264Y-80409118D01*
X136181703Y-80411278D01*
X136167000Y-80412000D01*
X135867000Y-80412000D01*
X135852297Y-80411278D01*
X135837736Y-80409118D01*
X135823457Y-80405541D01*
X135809597Y-80400582D01*
X135796290Y-80394288D01*
X135783664Y-80386720D01*
X135771841Y-80377952D01*
X135760934Y-80368066D01*
X135751048Y-80357159D01*
X135742280Y-80345336D01*
X135734712Y-80332710D01*
X135728418Y-80319403D01*
X135723459Y-80305543D01*
X135719882Y-80291264D01*
X135717722Y-80276703D01*
X135717000Y-80262000D01*
X135717000Y-78612000D01*
X135717722Y-78597297D01*
X135719882Y-78582736D01*
X135723459Y-78568457D01*
X135728418Y-78554597D01*
X135734712Y-78541290D01*
X135742280Y-78528664D01*
X135751048Y-78516841D01*
X135760934Y-78505934D01*
X135771841Y-78496048D01*
X135783664Y-78487280D01*
X135796290Y-78479712D01*
X135809597Y-78473418D01*
X135823457Y-78468459D01*
X135837736Y-78464882D01*
X135852297Y-78462722D01*
X135867000Y-78462000D01*
X136167000Y-78462000D01*
X136181703Y-78462722D01*
G37*
M02*
